<svg xmlns="http://www.w3.org/2000/svg" viewBox="0 0 512 212.5" enable-background="new 0 0 512 212.5"><g><g><path fill="#003A72" d="M306.3 131.7c.7 0 1.3.1 2 .4.7.2 1.3.7 1.9 1.3l11.1 11.6c-4.8 6.3-10.9 11.1-18.2 14.3-7.3 3.2-15.9 4.8-25.9 4.8-9.1 0-17.3-1.6-24.6-4.7-7.2-3.1-13.4-7.4-18.4-12.8-5-5.5-8.9-11.9-11.6-19.4-2.7-7.5-4-15.6-4-24.4 0-8.9 1.5-17.2 4.6-24.7 3.1-7.5 7.4-14 12.9-19.4 5.5-5.4 12.2-9.7 19.9-12.7 7.7-3 16.2-4.5 25.5-4.5 4.5 0 8.8.4 12.8 1.2 4 .8 7.7 1.9 11.2 3.3 3.5 1.4 6.7 3.1 9.6 5 2.9 1.9 5.5 4.1 7.8 6.5l-9.6 12.5c-.6.8-1.3 1.5-2.1 2.1-.9.7-2.1 1-3.7.9-.9 0-1.8-.3-2.6-.7-.9-.4-1.8-1-2.8-1.6-1-.6-2.1-1.3-3.3-2.1-1.2-.7-2.6-1.4-4.2-2.1-1.6-.6-3.5-1.2-5.7-1.6-2.2-.4-4.7-.7-7.6-.7-5.1 0-9.7.9-13.9 2.7-4.2 1.8-7.8 4.3-10.8 7.7-3 3.3-5.3 7.3-7 12.1-1.7 4.7-2.5 10-2.5 15.9 0 6.1.8 11.6 2.5 16.4 1.7 4.8 4 8.8 6.9 12.1 2.9 3.3 6.3 5.8 10.1 7.5 3.9 1.7 8 2.6 12.4 2.6 2.5 0 4.8-.1 6.9-.4 2.1-.2 4-.7 5.8-1.3 1.8-.6 3.5-1.4 5.1-2.3 1.6-1 3.3-2.2 4.9-3.6.7-.5 1.4-1 2.1-1.4.9-.3 1.7-.5 2.5-.5z"/><path fill="#004A91" d="M247.5 109.5c-.2-2.2-.4-4.4-.4-6.7 0-5.9.8-11.2 2.5-15.9 1.7-4.7 4-8.7 7-12.1 3-3.3 6.6-5.9 10.8-7.7 4.2-1.8 8.8-2.7 13.9-2.7 2.9 0 5.5.2 7.6.7 2.2.4 4.1 1 5.7 1.6 1.6.6 3 1.3 4.2 2.1 1.2.7 2.3 1.4 3.3 2.1 1 .6 1.9 1.2 2.8 1.6.8.4 1.7.6 2.6.7 1.6 0 2.8-.3 3.7-.9.8-.6 1.5-1.3 2.1-2.1l9.4-12.6c-2.3-2.4-4.8-4.5-7.8-6.5-2.9-1.9-6.1-3.6-9.6-5s-7.2-2.5-11.2-3.3c-4-.8-8.2-1.2-12.8-1.2-9.3 0-17.8 1.5-25.5 4.5-7.7 3-14.3 7.2-19.9 12.7-5.5 5.4-9.8 11.9-12.9 19.4-3.1 7.5-4.6 15.7-4.6 24.7v2c10.3 1.1 20 2.7 29.1 4.6z"/><path fill="#003A72" d="M150.4 122.6v40.1h-27.9v-120h42.5c8.5 0 15.8 1 21.9 3 6.1 2 11.1 4.8 15 8.3 3.9 3.5 6.8 7.7 8.7 12.4 1.9 4.8 2.8 9.9 2.8 15.5 0 6-1 11.5-2.9 16.5s-4.9 9.3-8.8 12.8c-4 3.6-9 6.4-15.1 8.4s-13.3 3-21.6 3h-14.6zm0-21h14.5c7.3 0 12.5-1.7 15.7-5.2 3.2-3.5 4.8-8.3 4.8-14.5 0-2.7-.4-5.2-1.2-7.5-.8-2.3-2.1-4.2-3.8-5.8-1.7-1.6-3.8-2.9-6.4-3.7-2.6-.9-5.6-1.3-9.1-1.3h-14.5v38z"/><path fill="#004A91" d="M150.4 100.8v-37.2h14.5c3.5 0 6.6.4 9.1 1.3 2.6.9 4.7 2.1 6.4 3.7 1.7 1.6 2.9 3.6 3.8 5.8.8 2.3 1.2 4.7 1.2 7.5 0 6.2-1.6 11-4.8 14.5-2.1 2.3-5.2 3.8-9.1 4.6 12.6.4 24.9 1.2 36.5 2.4.9-1.6 1.8-3.3 2.5-5.1 1.9-5 2.9-10.5 2.9-16.5 0-5.5-.9-10.7-2.8-15.5-1.9-4.8-4.8-8.9-8.7-12.4-3.9-3.5-9-6.3-15-8.3-6.1-2-13.4-3-21.9-3h-42.5v58.9c9-.3 18.4-.7 27.9-.7z"/><path fill="#003A72" d="M105.1 162.7h-28.1v-50.7h-48.9v50.7h-28.1v-120h28.1v50.2h48.9v-50.2h28.1v120z"/><path fill="#004A91" d="M28.1 118.1v-6.1h21.1c16.5-4 35.4-7.1 55.9-9v-60.3h-28.1v50.2h-48.9v-50.2h-28.1v88.4c7.3-4.8 16.8-9.1 28.1-13z"/></g><g fill-rule="evenodd" clip-rule="evenodd" fill="#EBBD00"><path d="M377.1 90.6c-.1-2.4 1.4-4.4 2.4-7 0-.7-.8-1 .2-1.8.3.5.6 1 .5 1.8-.2.5-.5 1.1 0 1.2 1-2.3 1.2-4.8 2.7-5.9-.4-.1-.3-.6-.7-.8-.6 1.2-1.1 3.3-2 2.8.1-1.3.7-1.4.9-2.7-1.2.4 0-1.3-1-1.8-.4 0-.8.8-1.2.9-1.4 3.7-2.3 6.8-2.2 8.8 0 1-.4.4-.5 1.4-.1 1.3.2 2.8-.1 4.2.4-.6.6-1 1-1.1zm.2-4.2c.4-1.1.7-2.7 1.4-2-.3.2-.4.9-.8.8-.2 1-1.4 3.5-.6 1.2zM382.4 87.3c-.5 1-.1 1.5-.1 2.2.2-.8.7-1.9.1-2.2zM380.9 95.8c.1-.4.1-.8-.2-.8-.4 1.4-.6 2.7.3 3 .4-1.3 0-2.2 1.2-1.7.8-1.7 0-2 .2-3.1.6.2.1 1.4.8.3-.1-1-.5-.4-.7-1.4-.2 1.1-.6 1.4-.9 2.1.2.3.4.5.4.9-.4.4-.6.9-1.1.7zM398.5 54.3c-.4-.5-.9-.2-1.3.5.4.6.8.2 1.3-.5zM382.5 101.9c.2-1 1-1.7.3-2.3 0 .7-.7 2-.3 2.3zM384.2 91c-.2 1.2-1.3 3-1 3.8.2-1.2 1.2-2.9 1-3.8zM391.8 65.5c.1 0 .4-.3.5-.4.8-.3.6-1 .8-1.4.1-.2.3.1.5-.4s.1-1.1.3-1.4c0 0 .3.3.4.3.5-.1.7-1.5 1.1-1.6 0-.3-.2-1.4.5-1.2.3.4-.7 1.2-.2 1.5.8-.5.9-2.3.4-3.1.7-.2 2.8-1.2 2.5-2.6-.7.4-1.4 1.5-2 .3-.5 1.1-.5 2-1.7 3.3-.2-.2-.1-.4-.2-.6-.9.8-.1 1.2-.7 1.9-1.6 1.5-3 3.5-3.6 5.4.8-1.3 1 .2 1.4 0zm.8-3c1.4 1.1-.4 1.1-1 2.5-.5-.6.5-1.7 1-2.5zM390 70.5c.9-1.2-.5-.9-.3-1.4l1.1-1.9c-.1-.2-.4-.3-.2-.6 1 .3 0 1.3.3 1.8.4-.8 1.7-1.5 1.1-2.3-.7 1.2-.5-.1-.6-.4-1 .1-1.1 1.8-1.9 1-.5 1.2-.5 2.2.4 1.1-.8 1.8-2.2 1.2-1.9 2.9 1.2-2.3 1.1 0 2-.2zM391.5 68.9c.5 0 1 .8 1.4-.1-.3-.7-.8-1.2-1.4.1zM386.4 75.8c.5.6.8-.4 1-.5.2-.1.1.6.2.5.3-.1.5-1.5 1.2-.8-.5 1-1.1 1.2-1.5 2.5-.3-.4-.2-1.2-.8-.9-.4.6-1.5 2.9-.5 2-.4-.4.6-1.4 1-.9-.1.7-1 2.2-.5 3.1.3-1.9 2.8-4.6 3.1-6.8-.4.7-.7-.4-.4-.7.7-1.1 1.4-1.2 2.1-2.4-1.3-.5-3 2.7-3.5 4.1-.1-.8-.5-.4-1-.6 1.2-.7 2.1-2.3 1.6-3.6-.3.4-.5 1-.8.6-1.2 1.5-.6 2.3-1.4 3.7.1.3.3.4.2.7zM381.5 97.4c-.6 1.6-.1 2.8-1.1 3.5l-.6-.2c0-1 .5-.8.6-1.6-.7-.1-.9 1.3-1.2 2.5-.2.7-.3 1.8-.5 2.7l.2 1.1c.3-1.3 1.9-2 1.5-3.4 0 .9-.3 1.2-.8.8.3-1.1.8-1.6 1.5-1.7 0 1.2-.3 3.7-1.2 3.8.7 0 .3 1.3 1 .6 0-1.2.5-3 .7-4.6v-1.7c0-.7.8-1.9-.1-1.8zM385.4 81.7c.2-.4.4-.6.6-.8l-.4-1.4c-.5 1.1-.2 1.6-.2 2.2zM383.1 82.4c.3-.9.7-.9 1.2-.5.7-1.2 0-1.5 0-2.3.3.1.4.4.5.7 1-2.1 1.2-3.6.8-5 .2-.5.5-1 .1-1.2-.3.3-.9 2.3-1.1 2.1 0 .1.3-.9.1-.7-.6.8-.9.9-.7 1.9.6-1.5.4-.3 1.1-.1.2-.2.3-.6.5-.5-.4.4-.6 1.9-1.1 1.7-.3-.2.1-.6-.1-.9-.7.8 0 .9-.2 1.5-.6.3-.2-.2-.8-.5-.2 1.5-1.3 2.8-.3 3.8zM379 90.3c-.6-.3-.9.7-1.2 1.7.7.6.7-1.7 1.2-1.7zM383 138.8c.2.8.9 3 .8 1.9-.3-1.1-.5-2-.7-2.8-.2-.8-.4-1.5-.5-2.2-.2-.7-.3-1.4-.5-2.2-.1-.6-.2-1.4-.4-2.2-.1.1-.2.1-.4.2.5 2.4 1.1 5.3 1.7 7.3zM376.9 131.2c-.4 0-.6.5-.6 1 1 .2.2-.6.7-.8 0 0 0-.1-.1-.2zM392.5 129.4l.4-.1c-.1-.3-.1-.7-.1-1h-.6l.3 1.1zM385.2 145.5c.3.9.7 1.8 1.3 2.4-.1-.5-.4-1.5-.8-2.4-.4-.9-.8-1.9-1.2-2.2.2.5.4 1.3.7 2.2zM507.7 117.6c-.7 1-1.8 2.5-2.2 3.1.6-.9 1.8-2.5 2.2-3.1zM378.7 131.6v-.2c-.1 0-.2 0-.2-.1 0 .3.1.3.2.3zM392.5 131.3c.1.8.4 1.6 1.1 1.1 0-.8.1-.7-.2-1.1-.5-.6 0-1.8-.9-2 0 .2-.1 1.2 0 2zM469.1 96.4c.8-.9 2.7-1.7 2.9-2.6-.8.9-2.7 1.7-2.9 2.6zM377.7 104c0-.9.7-2.4.3-2.8-.4 1.1-1.4 2.3-.3 2.8zM377.2 97.7c-.3.3-1.2 1.6-.7 2.3.4-.9 1.4-2.7 1.2-4-.7.5-.4.9-.5 1.7zM379.8 96.1c.5-.6.1-2.2-.1-2.9 0 .9-1.2.4-.6 1.2.1-.4.4-.4.6-.5l.1 2.2zM379.9 89.1c.2-.6.8-1.5.1-1.5-.6.9 0 1.9-.1 2.2-.1.4-.5.3-.5.9 0 .1.3.3.3.5 0 .6-.7 1.3-.3 1.7.1-.2.3-.3.5-.2 0-1.1.9-1.6.9-2.2 0-.3-.5-.1-.3-.5.1-.3 1.1-.2.5-.9-.6 1.1-.4.1-1.1 0zM299.1 74.3c-.2-.3-.9.9-1.1 1.4-.3.6-.7 2-.5 2.2.8-1.8.7-2.3 1.6-3.6zM376.9 109.6c-.6-.3-.7 1.1-1.1.2l-.1 1.1c.5-.2 1.1-.2 1.2-1.3zM364.3 134.1c-.4.4-3.2-.4-3.6.5.4 0 .9 0 .9.2.4-.4 3.7 0 2.7-.7zM464.6 158.7c0-.1.2-.3.1-.4-.8.5-.6.8-1 1.2-.8.8-2 .9-2.6 1.6.6-.3.6.1 1.4-.3.9-.6 1.3-1.4 2.1-1.4 0-.1-.2-.3.1-.5 1.6-.9 4-2 4.3-3.2-.5.2-1.1.5-1.6.6.4.8-1.4 1.4-2.8 2.4zM451.5 166.2c.5-.8 1.1-.2 1.6-.3.8-.1 1.7-.6 2.4-.7.1-.5-.6 0-1.1.2 0-.4-.4 0-.8.1l-.3-.2c-.3 0-.7.3-1 .4-.1 0-1.1-.3-1.1.3 1-.1-.5.4-.4.6.3-.1.6 0 .6.2-.2.1-.5.2-.5.3 1-.7 1.1-.2 2.4-.8 0-.6-1.2 0-1.8-.1zM449.8 165.2c0 .5 1-.1.4.4 1.5-.3 2.6-1 3.7-1.1.1-.6-.9.1-1.2-.1 1.2-.4-.4-.4.3-.8-1 .3-.7.7-1.1 1.1l-2.1.5zM452.9 163.3c.6-.1 1.7-1 2.6-1.5-.8 0-1 .5-1.8.6.1.2-.6.4-1.1.6-.6.2-1 .3-.6.3 1.1-.3 1.7-.6.9 0zM449 168.6c-.7.1-1.3.2-1.6.7.7-.2 1.3-.3 1.6-.7zM456.4 165.1c-.7.7-3.2 1-2.5 1.4-1.1.6-2.2.4-2.3 1 .7 0 1.9-.6 2.9-1.1.7-.4 2.3-.9 1.9-1.3zM451.4 167.7c-.3.1-.3-.1-.4-.3-.5.2-.5.4-.7.5-.8.4-.9.1-1.4.2.2.7 1.9.1 2.5-.4zM474 152.1c-.5.3-.7.2-1 .6.4-.2.8-.3 1.1-.3.7-1 2.1-1.1 2.4-1.9-.6.5-1.1.5-1.7.9-.2.1-.3.4-.8.7zM457.7 162.8s0-.3.2-.4l1-.5c0-.4-1.1-.2-1.4.2.6.3-1.3.7-2 .9-.1.6 1-.2 1 .3-.8.4-.9.1-1.4.3.1.6 1-.1 1.6-.4.3-.1.7-.2 1-.4zM509.9 113.6c-.4.4-1.2 1.2-1.2 1.3.4-.4.1 0-.4.5l-.2.2-3.6 3.7.4-.4c-.4.4-.5.6-1 1.1 0 0 .1-.1.2-.3-.9 1-2.6 2.5-3 3.1.8-.8 1.3-1.4 1.5-1.3l-1 1c-.3.4.8-.7.3-.1-.6.6-.6.6-1.2 1.3-.3.1-.4.1-.2-.3l-2.8 2.7-2.7 2.7c.8-.6 1.3-1.2 1.7-1.5.3-.3.4-.3.7-.5-.1 0 .6-.6.6-.6l-.5.7c-.7.8-.6.5-1.3 1.1-.1.3-1.7 1.9-1.7 1.5.4-.3 1.1-.9.8-.8-.7.6-.8.9-1.6 1.6-.1.3.7-.4.1.2-.3.3-.2.1-.5.3 0 .4-1.2 1.6-2.3 2.6.8-.6 1.9-1.3 2.4-2 0 .1.3-.2.5-.3.4-.5 2.1-2 1.6-1.6l-.6.5c.5-.6 2.2-2 .9-.6l1-1c.1-.3-.7.4-.8.4l1.2-1.2c-1 1 0 .1-.3.5.9-1 1.7-1.6 2.4-2.5-.6.6-1.3 1.1-2 1.6.4-.5 1.5-1.4 1.7-1.5.5-.5.8-.9 1-1-.2.3-.4.5-.6.7 1-.9 1.9-1.9 2.9-3s2.2-2.3 3.6-3.9c.3-.4.5-.7.9-1.1.7-.7 1.4-1.6 1.7-2 .3-.4.8-.9 1-1.1.9-1 1-1.2 1.6-1.8-.6.5-.7.6-1.2 1.1zm-14.6 15.2c0-.2 1.6-1.7 1.7-1.5-.9.7-1.1 1-1.7 1.5zm3-3c-.3.3-.1.3-.8.9-.2-.1 1.4-1.6 1.8-1.8.3-.3-.6.2.5-.8-.1.4.1.2.8-.4-.6.8-1.4 1.3-2.3 2.1zm5.1-5.1l-1 1c-.4.3.7-.7 1-1 .3-.5.5-.8 1.3-1.6-.4.7-1.1 1.3-1.3 1.6zm1.8-1.8c-.4.4-.8.9-.8.8l.8-.8zm-.3.1c.2-.2.3-.4.8-.9v.1l-.8.8zm1.6-1.7c-.7.8-.4.3-.3.1.7-.6.6-.4.3-.1zm3.2-3.4l-.8.8.2-.2c-.1.1.7-.8.6-.6zM389.1 152.7c-.8-1.2-2.5-4.8-2.4-4 2.2 3.8 3.1 6.7 5.6 8.7-.5-.6-1-1.4-1.6-2.2-.3-.4-.6-.8-.8-1.2-.3-.5-.6-.9-.8-1.3zM489.4 141.1c-.3.3-1.4 1.9-2.2 2.4.1-.3.9-1 .9-1.2.1.1 1.4-1.3 1.3-1.5-.7.8-1.3 1.3-1.7 1.6.2.1-.1.5-.7 1v-.4c-.7.8-1.3 1.3-1.9 1.7-.1.5-.6 1.2-1.4 2-1.4 1-2.4 2.1-4.2 3.4 0 .3-.7.9-1.1 1.4 0 .2.4-.1.1.2-.9.7 0-.2-.2-.4-.6.8-.9.9-1.7 1.5-.3.3-.8.8-1.1 1-.1 0-.6.2-.8.4 0 0-.2.3-.4.4-.5.4-1.4 1-2.1 1.5-.5.4-1.8.9-1.8 1.4.4.1 1.1-.6 1.8-.9.5-.2.5-.1 1.1-.4 1.6-1 3.4-2.9 4.6-3.4.4-.6.9-1.3 1.5-1.9.5.1-.8.9-.9 1.3.3-.2.5-.4.7-.4 1.1-1.4 2.7-2.3 4.1-3.7.1-.1.2-.3.6-.7.9-.8 1.8-1.5 2.6-2.3.9-.9 1.7-1.8 2.6-2.8.6-.6 1.2-1.1 1.6-1.6l.5-.8c.1-.1.1.1.5-.3.2-.3.1-.3.3-.5.1.1.1 0 .5-.3 1.2-1.4 3.3-4 3.8-4.9-.3.3-.7.9-.8.9.4-.6.7-1 1-1.5-.4.5-2 2.5-2 2.1-.3.4-.4.7-.8 1.2 0 0-.2.1-.3.1.2-.3.7-.9.8-1.2-.4.5-1.4 1.5-1.5 1.8.2-.2.5-.4.3-.1l-.9.7c-.3.3-.8 1-1.3 1.6-.1 0-.3.2-.7.5-.1.3-.2.6-.6 1.1 0 .1-.1 0-.1 0zm-9 8.5c-.6.7.2.2-.2.8-.4.2-.4-.1-.7-.1.7-.6 1.2-1.3 1.4-1-.2.2-.4.4-.5.3zm1.5-.4c-.7.7-.5 0-1.2.8 0-.1.4-.4.4-.4.5-.5.2-.6.9-1.2.3.1-.5.8-.1.8zm.7-1c0-.2-.5.2-.4-.2.5-.4 1.2-1 1.4-.9-.6.6-.5.7-1 1.1zm2.2-1.8c-.5.2 1-.9 1.6-1.6.6-.4-1.3 1.4-1.6 1.6zm-.2-.3c0-.4 1.7-2.6 2.1-2.4-1.3 1.1-.9 1.3-2.1 2.4zm8.9-9c.1.1-.4.7-.8 1.3 0-.1-.1 0-.3.1.2-.3.6-.8 1.1-1.4zM448.1 167.2c.8-.2.8-.6.9-1l-.8.2c.2.4-.4.5-.1.8zM510.5 113.6l1.5-2.2c-.4.6-1.9 2.8-1.5 2.2zM496.8 130.7c-.6.7-2.5 2.7-2.1 2.4.8-.9 1.9-1.8 2.1-2.4zM460.9 162.7c.9-.7.3.5 1.1-.2.1-.5-.1-.6.7-1.3.8-.4 1.4-.9 1.3-1.3-1 .4-.7.7-1.4 1-.5.3-.4-.1-1.1.3 0 .2.2.3-.1.5-1.1.3-1 .7-1.9 1.2l-.1-.3c.7-.3 1.5-.7 1.4-1-1.3.4-1.1.7-2.4 1.4-.3-.2-1.3.3-1.5.7.4-.4 1.4-.3 1.6-.4-.1 0 0-.2.2-.2.4 0 .5.1.4.3 0-.2-.4.1-.5.2-.2.2.3.4-.4.6-.2-.2.1-.9-.7-.3.3.4.1.7-.2 1.1 1.2-.7 3.1-1.3 3.7-2-.2.1-.4-.1-.1-.3zM469.7 157.1l.5-.3c0 .1.2 0 .2-.2-.7.3-.2-.6.4-1 .3.2-.3.6.1.7 1-.8.3-.5.6-1.2-.7.4-.5-.1-1.1.4-.2.1-.1.4-.6.7-.6.3-.6 0-1.3.5-.3.4-.8.8-.7 1.1 1-.4 1.1-.7 2.1-1.5.4.2-.5.6-.2.8zM458.6 160.7c.3-.1.7-.3 1-.5 0-.3-.9-.4-1.1.1.4-.1 0 .3.1.4zM476.9 151.5c.1-.4 1.1-.7 1.3-1.2-.6.6-.4 0-1.2.8.5-.1-.9.9-.1.4zM478.1 150.1c.6-.3.6-.7.6-.1.4-.5 1.1-1 1.7-1.5.6-.5 1-.9.9-1.2-.9 1.3-2.7 1.8-3.2 2.8zM480.2 149.2c1.3-1.1 2.2-1.9 3.3-2.7-.2-.1 1.2-1 .7-1-.4.4-.4.5-.8.8-.6.6-3.7 3.1-3.2 2.9zM485 144.1c.8-.8 1.4-1.5 1.5-1.8-.7.4-.8.9-1.6 1.6-.6.7-.6.3-1.3 1-.1.7-1 1-1.9 1.8.4.3 2.3-1.5 3.3-2.6zM475.8 152.3c-.6.5-.6.2-1 .5.1.7 2.3-1.4 1.7-1.5-.6.5-.7.3-1.2.7-.9.6-1.5 1.6-1.5 2l1.3-1.6c.3-.1 1.2-.5.7-.1zM482.7 144.9c0 .3.5-.2.6-.1.9-1 1.4-1.3 1.9-1.7 0 0 0-.2.1-.3 0 0 .6-.3.7-.5-.3-.1.7-.8.7-1-1 .9-1.5 1.5-2.2 1.8 0 .2.3-.1.4.1-.3.2-1 .5-1.1.9.2-.2.3-.1.1.1l-.4.4c-.1-.1 0-.2.1-.4l-.9.7zM479 150.5c-.9.9-1.7 1.3-1.8 1.9.6-.6.9-.9 1.5-1.3-.1-.1.5-.5.3-.6zM464.6 160.1c.4-.3 1-.7 1.1-.9-.4 0-1.4.6-1.1.9zM476 150.5c-.3.2-.1.2.1.2 1.5-1.1 3.1-2.4 4.6-3.8.8-.6.7-.8 0-.1-1.6 1.3-3.8 2.9-4.7 3.7zM461.5 160.5c-.5-.2.6-.6.3-.8-1 .4-.7.6-1.1 1 .1.1.4 0 .8-.2zM460.8 159.4c0-.4 1.9-.8 1.8-1.2-.6.1-2.6 1.3-1.8 1.2zM464.1 155.1c-1.1.4-2 .9-2 1.4.9-.4 2.6-1.6 3.9-2.4-.1-.6-1.7.6-1.9 1zM472.8 152.7c-1 .6-1.2 1-1.7 1.5-.2-.1-1.3.8-1.1.9.2-.1.3-.1.3 0 1.1-1.1 2.5-1.2 3.2-2.3-.9.6-1.8.9-.7-.1zM466.7 159.2c1.1-.7 2.3-1 2.9-1.8-.5.4-.9.6-1 .4-.5.5-1.2.8-1.9 1.2-.8.5-1.7 1.2-1.9 1.3.2-.1-1.8.4-1.5.8.5-.3 1.1-.4 1.5-.7.7-.2 1.2-.7 1.9-1.2zM459.9 161.1c.8-.3-.2.5.2.6 1.1-.4-.2-.6.5-.9-.1-.3-.7 0-.7.3zM463.9 161.2c-.4.5-.8.3-1.5.7-.3 1 2.4-1 1.5-.7zM407.3 157.6c-.3.9 1 1.3 1.8 1.9.3-.6.9-.3 1.3-.6-1.2-1-.7.8-2-.2.9-.2-.6-.4-1.1-1.1zM345.4 114.5c1 0 2.7.5 3.4 0-.6-.1-3.4-.7-3.4 0zM359.1 114.4c-.7.1-1.4.2-1.8.5.6-.2 2 .3 1.8-.5zM342.4 114c.8.4 1.8.8 2.5.3-.6-.4-2-.3-2.5-.3zM507.8 118.9c-.1.1-.2.4-.4.8l-.3.5-.4.8c.1-.2-.2.2.1-.3l1.2-2 .1-.3c-1.9 3-2.1 3.5-4.1 6.5-.3.7-.9 1.3-1.3 2-.2.3-.3.5-.6 1s-.4.5-.7.9c-1.2 1.8-2.5 3.7-3.9 5.5l-3.4 4.4c-.6.7-1 1.4-1.6 2.2-1 1.2-2.2 2.7-3.4 4-1.2 1.3-2.4 2.6-3.2 3.5l-1.2 1.3c-1.6 1.7-3.4 3.1-4.9 4.7-.9.9-1.9 1.7-2.9 2.5l-.5.8c-.1-.1-.4.1-.4-.1-.8.6-1.8 1.5-3 2.4l-3.6 2.7c0 .7.7-.8 1-.5-.3.5-2.2 1.7-1.5.8-.9.7-1.9 1.4-2.9 2-1 .7-2 1.3-2.7 1.9-.1-.2-.5 0-1.1.4.8-.1-.2.9-.9.9.3-.2.7-.4.7-.5-1.1.6-2.2 1-3.2 1.5-1.7.7-1.8 1.3-3.4 1.9-.1.6 1-.2 1.2 0-1.9 1-3.1 1.2-4.2 1.3-1.6.7-4 1.3-5.1 2 .2 0 .6-.2.6 0-1.1.4-1.8.5-2.4.4.5.3-1.2.7-1.1.5.2 0 1-.4.9-.4-.6-.1-3.3.8-3.5 1.2-.7-.5-2.1.2-3.3.5-.6.1-.7-.1-1.2 0s-1 .2-1.6.2l-1.7.1c-1.1.1-2.1.1-2.8.1-4.7-.2-8.2-.4-12.1-1.2-.7-.2-1.4-.9-1.9-.3.4.1.9.2.9.4-1.2-.1-1.1-.7-2-.9-.7.4-.9-.1-1.9-.4-1.1-.4-1.4-.4-2-1-.4-.1-.4.2-.7.1-.8-.2-3.3-1.1-3.7-1.3-.5-.3-.6-.7-1-.9-.5-.2-1.1-.4-1.5-.7-.8-.5-1.3-1-2.1-1.6-.5-.3-1.1-.7-1.7-1.1l-1.7-1.2c-1-.7-2-1.6-3-2.5-1-1-1.9-2.1-2.7-3.2-.4-.3-.6.2-1.2-.8.8.2.1-.2.2-.6-2.7-3.1-4.6-5.7-6.2-9.7-.6-.3-2-1.1-1.9-2.5.4.6.6 2 1.1 1.4-.8-2.5-2.7-6.2-3.5-9.3-.1-.4-.4-.2-.6-.5-.1-.9.1-1.5-.1-2.5-.3-1-.6-2-.8-2.9l-.3-2.1-.3.1c-.5.1-1 0-1.5-.2v.1c.5 4.1 1.4 7 2.4 9.9.3.7.5 1.4.8 2.2.3.7.6 1.5.9 2.3.3.8.7 1.6 1.1 2.5.4.9.8 1.8 1.3 2.8.4-.1.1-.6.2-.9.2.3.3.3.5.5.5.8.3 1.1-.2 1.3.3.8 1.5 2.1 1.3 2.5-.6.2-.9-1-1.3-1.7-.2.1-.4.1-.7-.4-.4-.8-.7-1.6-.7-2.1l-1.5-1.7c-.1-.5-.3-1-.5-1.5l-.7-1.7c-.5-1.1-1-2.1-1.2-2.7.1.3.2.7.1.7-.6-2.7-1.3-4.1-2.4-6.4.2-.1 1 1 .9.2l-.3-1.4c-.2.5-.4.5-.7-.2.2-1 0-1.9-.3-2.8 0-.7-.3-1.2-.6-1.5h-.2c0 .8.1 1.7.1 2.3-.2.2-.8-1.3-.7-.3-.1-.1-.2-.7-.1-1.3-.9.2-.2-.3-.3-.4-.2-.2-1.2.2-1.6.8.3 1.9.5 3.9 1.1 5.7.2.8.7 1.3 1 2.1 1.1 3 2 6.5 3.8 9.9.3.6.7 0 1 .8.5 1.2 1.6 2.6 1.6 3.4.4.1.8.2 1.3 1-.3.3-.7-.8-1.1-.6.8 1.1 1.3 2.2 1.9 3.1.6.9 1.1 1.6 1.8 2.1.8 2.1 2.5 3 3.4 3.9.3.3.2.5.6 1 .9.9 1.9 1.8 3 2.8 1.1 1 2.1 2 3.2 2.9l1.3.7c.3.3.6.7.8.8l1.4.5 1.4 1.1c.4.2.5.1 1 .4.9.5 1.8 1 2.6 1.5.9.5 1.7 1 2.6 1.4.8.3 2 .5 2.7.7.4.1.4.3.9.5.6.2.9 0 1.4.1 1.1 1 3.3 1 5.3 1.4 2 .5 4.5.9 7 .9.6 0 1.3-.2 2-.2.5 0 2.1-.1 2.9-.2h2c.6 0 1.2 0 1.5.1.5-.1.3-.4 1-.4.7.4 1.4-.1 2.5 0 .1-.1 0-.3.3-.4 1.3 0 2.7-.3 4.4-.9.1.2 0 .4.4.4 0-.2 1.1-.6 1.5-.7 1.8-.5 4.2-.9 5.5-1.3.4-.1.6-.4.8-.5.2-.1.4.3.9-.1.5-.6 1.4-.8 2.3-1.2.9-.3 1.9-.6 2.4-1.2.3.5 1.6-.2 2.7-.6-.3-.1.9-1.4 2.1-1.6-.6.2-.9 1-.4.7 1.4-1.1 3-1.6 4.2-2.7.6-.4.6.1 1.4-.5.8-.8 1.2-.8 2-1.4 1-.8 1.8-1.5 2.7-2 .4-.2.7-.3 1.1-.6 4.1-2.8 8.1-6.5 11.7-10.1.6-.6 1.1-1 1.7-1.7l4.6-5.2c.3-.3.3-.5.7-1 1-1.2 2-2.4 2.9-3.5.3-.4.5-.8.7-1 .4-.6 1-1.1 1.2-1.7.2-.6-.8.7-.4 0 .4-.2.9-1.2.8-1.4-.7 1.1-1 1.2-1.4 1.5-.2 0 .3-.8-.4 0 0 .3-.9 1.3-.5 1.2.3-.1.9-1.3 1-1-.7.9-1.1 1.6-1.9 2.3.4-.6.1-.4.2-.7.1-.2.8-.9.5-.8-.8.6-.6.9-.8 1.3-.2.3-.5.6-.5.8 0 0 .7-.6.3-.1-.3.3-.6.6-.9.8.5-.6.8-1.2 1-1.6-1.1 1.3-1.4 2-1.9 2.8-.7.5-.7 1-1.5 1.9v-.5c-.8 1.1 0 .8-.7 1.5l-.2-.3c-.6.8-.8.8-1.4 1.5-.4.7.1.4-.1.9-.3.2-.6.2-1 .5.3-.6 1.4-1.2.8-1.4.7-.4 1-1.1 1.4-1.6.2-.3.5-.2.8-.8.5-.9 1.2-1.6 2.6-3.4-.1-.2-.9.7-.2-.3 0 .2.4-.3.4 0 1.4-1.7 3-3.8 4.2-5.5.3-.4.6-.8.9-1.1.2-.3.5-.8.6-1 .3-.5.8-1 1.1-1.4 1.7-2.4 3.2-5 4.9-7.5 0-.1.3-.3.5-.7 1.1-1.8 2.1-3.5 3-5.1.6-1.1 1.2-2.1 1.8-3.1v-.1c.3-.6.6-1 .6-1-.6.3-.7.3-1.1 1zm-124 26.2c.9.4.3 1.4.6 2-.9-.4-.3-1.4-.6-2zm-8.1-7.3c-.5-1.4-.4-2.2-.3-3 .5.4.9 2.9.3 3zm3.4 8.8c.7-.1 1.3 2.2 1.5 3-.9-.8-.7-1.9-1.5-3zm8 6.9c-.2-.7 1.7 1.2 1.6 1.8-.5.2-1.1-1.8-1.6-1.8zm14.4 19.3c.8.1 1.5.5 2.2 1.1-.5.5-1.6-.6-2.2-1.1zm13.6 5.9c-1-.3-2-.5-2.9-.9.2-.1 1.1-.4 1.1 0 .6.3 2.3.4 1.8.9zm34.8-3.4c.2-.3.4-.7 1.3-1 .2.4-.6.7-1.3 1zm-.4-1.6c-.4.4.3.2-.8.4.2-.8 2.6-1 3.6-1.5.2.9-2 .3-2.8 1.1zm7.3-2.9c-.2-.4.9-1.1 1.5-1.2-.4.4-.5.7-1.5 1.2zm2.1-1.2c.2-.4 1.8-1.2 1.7-.6-.8.4-1 .1-1.7.6zm11-3.8l1-.7c.4.1-1.2 1.5-1 .7zm3.5-2.2c-.5-.1.7-.7.3-.8-.5.1-1.3.8-1.4.5 1.1-1 .9 0 2.1-1.1-.3.4-.2.7-1 1.4zm9.3-9.3c.1.2-.1.6-.7 1.2-.1 0-.3.1-.5.3.2-.4.6-.9 1.2-1.5zm-.7 2.1c-.4-.1.8-1.3.8-.9l-.8.9zm11.3-13.5l.4-.4.1.1c.3-.2 1-1.3.9-.8-.7.7-1 .8-1.4 1.1-.3.5-.8 1.3-.8.9l.8-.9zm-1.2 1.9c.4-.2-1.1 1.7-.9 1.2l.9-1.2zm0-.6c.1.1-.6.8-.4.9-.5.2-1.1 1.5-1.5 1.4.9-.9 1.1-1.5 1.9-2.3zm-1.3 2.2c.3.2-.7 1-.9 1.2-.4.5-.3.8-.9 1.3-.2-.2 1.4-2.1 1.8-2.5zm-4.2 4.7c.2.2-.4.8-.8 1.4-.2-.2.3-.9.8-1.4zm15.8-23.4c-.3.2-.2.1 0-.4.4-.7.5-.6.6-.6-.3.5-.1.4-.6 1zm2.4-4.2c-.4.6-1 1.6-1 1.4.6-.9.8-1.1 1.1-1.7.3-.3.1.1-.1.3.1-.1.2-.2.3-.5 0 .3-.3.7-.3.5zM472.4 57.1c0 .7 0 1.2.6.8-.3 0-.3-.4-.3-.7.8-.7.2-1.6-.5-2 .2.3.2 1.2.2 1.9zM460.9 41.8c1.3.5 2.1 1.1 2.9 1.2-.5-.8-2-1.2-2.9-1.2zM472.8 60.4c.1-.7-.1-1.4-.4-1.7.1.6 0 1.1-.1 1.6l-.4 1.4c.5 0 .8-.6.9-1.3zM332.9 112.1c0 .2-.1.5.4.5 1.7.4 3.4.8 4.8.7-1-.2-1.8-.6-2.7-.7-.8-.3-1.6-.4-2.5-.5zM404.7 56.7c.8-1.1.4-.7-.3.1-.7.8-1.7 2.1-2.1 2.7-1 1.4-2.1 2.5-2.3 3.7.6-1 1.5-2.1 2.4-3.3.8-1.2 1.7-2.4 2.3-3.2zM385 92.1c-.1.7-.9 1.9-.5 2.2.3-.6 1.1-1.7.5-2.2zM309 96c.3.6.6 1.8 1 1.9-.2-.4-.3-.8-.4-1.1-.2-.3-.3-.5-.6-.8zM310 98.4c.3.3.5 1.2.8 1 0-.3-.4-1.2-.8-1zM469.4 62.9c-1.1-.3.4-.9-.3-1.1-.2.4-.7.4-.8.9.2.1.9.7 1.1.2zM311.1 76.6c-1.4 2.8-1.9 4.8-2.4 6.6-.2.6-1 1.8-.3 2.4.4-2.1 1.3-5.2 2.2-7.4.2-.6.7-1.1.5-1.6zM329.8 111.3c-1-.3-1.9-.7-2.8-1.1l-1.4-.6-1.5-.7c-.8-.4-1.9-1.2-2.6-.9.9.4 1.8.8 2.6 1.3l1.2.6 1.2.5c1 .4 2 .7 3.1.9 1 .2 2 .5 2.9 1-.2-1-1.7-.7-2.7-1zM318.7 106.3c1 .8 1.8.9 2.3 1.4.4-.3-1.8-1.8-2.3-1.4zM314.6 103.4c.4.5 1.1 1 1.8 1.4.7.4 1.3.8 2 1-.6-.3-1.2-.8-1.9-1.3-.7-.4-1.4-.8-1.9-1.1zM446.6 80.3c-.8-.8.2-1.1.2-1.7-.3.1-.6 0-1 .4-.1.2.2 1.6.8 1.3zM407.7 52.7c-.8 1-1.7 1-1.4 2.1.3-.6 2.2-2.4 1.4-2.1zM440 88.5c.3-.7-.3-1.6.1-2.2-1.2.9-.2 2.4-.7 3.4-.2.2-.5.3-.4.5.6-.6 1.1-.3 1.5-.6.6-.4.5-1.2 1.5-1.2-.1-1.1-.9-.4-1.2-1.1.2-.5.8.2.7.2 1.1-.6 1.3-2.4 2.8-2.7.5.9 1.4.2 2.3-.2-.2-.5-.5-.2-.8-.4 1.2-.4 3.2-.6 3.9-1.7-.7-.2-1.4.2-1.9 1-.9-.2-1.6-1.1-2.8 0-.2.3.4.9 0 1.2-.3-.8-.9-.2-1.3-.7.3-.1 1.4-.9.6-.7l-2.2 1.4c-.2.3.4.9 0 1.2-.8.2-.6.3-1 .9-.2-.4-.4-.8-.8-.4.3 1.1.2 1.2.3 1.9 0 .1-.4.4-.6.2zM450.1 80.7c.5-.9 1.2-.5 1.4-1.3-.5-.3-1.5 1.2-2 .8.6-.1.8-1.1.2-.8.3.8-.6.1-.9.6.3.8 1 .2 1.3.7zM448.4 77.2c-.5-.1-1.4.5-.8 1.2.5-.3 1-.7.8-1.2zM444.2 82c.2-.6 2.4-2 .4-.9-.5.2-.8-.4-1.4.3l-.4.3c.3.6.9.1 1.4.3zM437.6 85.4c.2.5.5.3.8.4-1.1.6.7.7-.2 1.3-.2-.5-.9.4-1.3.4.2.3.1.6.1.8 1 0 .7-1.2 2.1-1.2-.8-.7.3-.8.2-1.3 0 .1-.8-.4-.3-.7.4 0 .8-.1 1.3-.4-.2-.9-.9.1-1.4.2-.5.2-.9 0-1.3.5zM434.7 87.7c-.5-.2-1.3.4-.9 1.1.5-.3 1.1-.6.9-1.1zM438.2 56c.5-.3.8-.7.8-1.4-.6.2-.7.8-1.3 1.2-.5.3-1.6.2-1.4 1 .8-.3 1.5-.5 1.9-.8zM451.9 75.5c.3-.3.8-.5.7-.9-.7.3.1-.6-.2-.8l-.6.5c.5.5-.2.8.1 1.2zM453.6 73.9c-.4-.6-.6-.2-.6-.9l-.6.5.6.9.6-.5zM452.3 78.2c-.3-.9-.9.3-1.3.3-.2 0-.4-.7-.7-.1.2.3-.2.5-.2.8.7-.1 1.4-.3 2.2-1zM451.9 79.1c0 .5.3 1-.1 1.4-.4.6-1.9.7-1.1.8 1 .4 1.7-.8 1.8-1.7.9.3 1.6-.1 1.7-1.3-.8 1-1.4.1-2.3.8zM452.4 76.8c.4 1.1 2.3-.4 1.4-1.1-.4.6-.7.9-1.4 1.1zM467.7 71.2c.2-.3 1.3 0 .4-.6-.5.1-.9.6-1.3 1.2-.4.5-.6 1.2-.7 1.6.5-.5 1.6-1.3 1.6-2.2zM451.6 75.1c-.4-1-1.5.1-1 .8l1-.8zM390.1 128.9c0 .3-.5.5-1.3.5.1.5.2 1 .4 1.2-.2.3-.5.5-.9.5 0-.7-.2-1.1-.3-1.6-1.1-.1-1.8.3-2.6 0-.1 0-.2 0-.3.1-.1.2-.2.4-.5.5 0 0 .8 7.4 3.7 14.4 2.9 7 7.4 13.3 13.1 17.9.3-.3 0-.8.5-1.1.6.6 1.4 1.2 1 1.6-.7-.8-1.2-.8-1.4-.2.8.9 1 .2 1.6.9 0 .7 1.5 1.6 2.5 2.3.2-.2.2-.5.5-.3 1.1 1.1 2.9.4 1.8 1.1.2.4.9.2 1.1.4l-.2.3c1.2.9 3.5 2 5.6 2.7 1.2.5 3 1 4.2 1.3.4.1.9-.1 1.2 0 .8.1 1.6.4 2.4.6.8.2 1.5.4 2.2.2-.3-.5-1.4-.1-1.4-.4-.2-.6.7-.2 1.2-.1 0-.3.3-.4.9-.2 0-.4-.5-.6.4-.6 1 .2 2.1.2 2.2.7-1.4-.4-2.6-.3-2.9.5.6.5 1.9.3 2.8.3.5 0 .7.3 1.1.2.6 0 1-.4 1.5-.4 0 0 .4.3.8.3.7 0 .8-.5 1.7-.2-.3-.1-1.2 0-1.1.2.9.2 1.6-.2 2.6-.2 1.7-.1 4.1-.2 4.2-.8-.8-.3-1 .2-1.7.3 0-.2-.5-.1-.6-.3.8-.4.5-.7 0-1.1.5-.1 1.4 0 1.1-.4-1 .2-2.3.5-2.5-.3.2-.2.7-.4 1.3-.4l-.5.5c.6 0 1-.1 1.4-.3.1-.3-.5-.3-.6-.4v-.5c-.2-.2-1.2 0-.8-.4-.9-.2-1.4.6-1.6.2.7-.2.6-.6.8-.8 1-.3.6.4 1.1.4.4-.2 0-.8 1-.7l-.5 1c1 .1.8-.4 1.3-.6.5.3.2.9.1 1.2.3 0 .6 0 .6.3.9 0 1-.3 1.3-.5.8.2-.7.5.1.8 1.4-.4 1.6 0 1.2.6 1-.1 1.2-.5 1.6-.8 0 .3 1-.1 1.4-.1.2-.5-.9 0-.9-.4.8-.2.1-.8 1-.9-.1.5.3.6.4.9.7-.1 1.1-.9 1.6-.6-.5.2-.7.8-.1.9-.8.2-.9.3-.5.4.2.4.4-.3.8-.4 0 .3.3.4.9.2-.1-.2 0-.4.2-.6-.4.1-1 .3-1.1.2.5-.4 1.3-1.2 2.3-1.1.1-.7-1.1-.3-1.1-1-1.5.6-1.4-.2-2.7.2-.3.2.1.6-.4.7-.7 0-1.5 0-2.4.2-.8-.1-.5-1.2-2-.9-.4.6 1.2.5.4.9-.5-.1-1.1-.2-1.1-.6-.7.1-1.5.3-1.6-.1 1.1-.1 1.5.1 2.1-.4-1.4.3-3 .2-4.2.4l-1 .3s-1-.2-.8.2c.2.2 1 0 .8.5-.3 0-.3.1-.5.2-.6 0-.5-.5-1.3-.5-.1.6.8.5 1.1.8-.7.3-1.4.1-1.9-.3-.5-.6.1 0-.5.1-.5.1-1.4-.1-.8-.5-.8-.2-.4.5-1.1.4-.7-.1-1.6-.1-1.5-.5-.3-.6 2.2.1 1.4-.4-2.9-.3-5.1-.6-6.9-1.2-.2.3-.6.3-.9.4.4.8 1.7.1 1.8.5-.7.1.1.9-.4.8-.7-.3-1.8-.6-2-.7.4-.3 1.4-1.2-.2-1.5-.2.4.4.5 0 .9-1-.1-1.9-.2-2.3.3 0-.4-.5-.8-1.1-1.1-.6-.3-1.3-.6-1.9-.7.2-.6-1.1-1.1-1-1.7.7-.2 1.6.3 2.5.6.4.1.8.2 1.2.2.4 0 .8 0 1.1.1.6.2 1.3.5 2.1.7.7.3 1.5.5 2.3.6 2.2.4 5.4.6 6.9.8-.2-.3 1.2-.3 1.3-.3 0 0-.2.3-.3.3 1.3.4 3.9-.1 2.3-1-.4.4-1.4.3-1.8.6-.1-.2-.4-.3-.2-.7 1.6 0 1.3 0 2.5-.1.2.4.2.7.8 1.1.8.1.5-.4 1-.5.7-.1 1.6-.1 2.3-.1.7-.1 1.4-.2 1.8-.5 1.3.2 2.6-.2 3.9-.5 1.3-.4 2.5-.8 3.5-1.1-1.6.3-.8-.6-.8-1.2-.9.2-.5.7-1.7.8-.4-.4-.9-.8 0-1.2 0 .2-.1.3-.2.5 1.9-.2 3.5-.5 4.7-.3-.7.4-2.2.1-2.4 1.1 1.3-.5.7 0 1.1 0-.1 0 .3-.2.5-.3.3-.1.6.1.8.1.7-.2 1.6-.7 2.4-1.1-.3.1-.7 0-.3-.2 1-.3 1.9-.7 2.7-1.1l2.3-1.1c.7-.4 1.5-.8 2.4-1.2.9-.5 1.8-.9 3-1.4l.5-.9c-1.3.5-1.4 1.1-1.9.9-.3.3.3.5-.5.8 0-.1.3-.5-.1-.3-.2.4-1.5.8-2.1 1.1.5-.6-.7.3-1.5.4.4.4-.7.7-.8 1-1.1.3 0-.6-.9-.3-.3.5.5.5-.5 1-.6.2-1.3-.5-1.6.3.6-.4 1.3-.1.9.1-.9.4-.7-.2-1.6.1-.6.3-.8 1.2-1.6 1.1.5-.2.8-.5.9-.8-1.2.2-1.7.6-3 .7-.1-.3-.5-.3-.4-.7-1.6.3-3.1.6-3.9.8-1.2.3-2.3 0-2.7.5l2.2-.3c-.4.5.1.2.8.4l.6.3c-.1.1-1.1.6-1.3.2.3-.1.5-.3.7-.4-1.3 0-.9.7-1.7.9-.5 0-1.7.5-1.5-.1-1.2.3-2.8.5-3.2 1.1-.5-.3-.7-.7-1.3-.9-.3.2-.2.7-1 .7-.6-.2-.8-.7-1.8-.7 0 .2.1.6-.2.6-.6 0-.8.3-1.3.3-.3 0-.4-.3-.7-.4-.1 0-.4.5-.5.1 0-.3.6-.1.5-.5-1 .1-.7-.5-1.7-.5 0 .6-1.1.1-1.5.3 0-.2-.3-.3-.2-.5.4-.4 1.1.5 1.5 0-.6.2-.7-.7-.2-.5.5.2.8.6 1.7.5-.1.3.3.5.5.2-.6-.3-.5-.8.5-.6 0 .7.5 1.1 1.2 1.4.4-.4.1-.5-.2-.7-.3-.2-.7-.4-.5-.8 1.1-.1 1.2.7 1.9.2.4.3.4.8 1 1l.7-.5c.4.3 3-.3 2.3.4.8 0 .6-.5 1.2-.6 1.3-.3 2.2 0 2.9-.7-.7-.3-1.2.3-1.7.3-.1 0-.1-.5-.5-.3 0 .3.4.3.5.4-.9.2-1.2-.1-1.3-.5-1.1.3-2.5.3-3.9.4-.1.3.4.4 0 .5-.8 0-.5-.6-1-.8-1.5.4-4.1-.4-4.8 0 .3.1.7.1.7.3-1 .1-1-.4-1.6-.6-1.1-.2-1.7 0-2.4.1 0-.3.1-.6-.4-.6-.9 0 .2.5-.3.6h-.5c-.2-.2 0-.6-.6-.7-1.6-.5-2.2.1-3.4 0 0-.5-.9-1.1-.1-1.3-.3 0-1-.7-1.1-.3.3.4 1.1 1.5.1 1.3.1-.6-.3-.8-.8-1-.5-.2-1.1-.5-1.2-1.1.4.3.7.2.8-.2-.8-.5-1.3-.2-2.1-.9-.4-.3-.2-.7-.8-.9-.5.7-1.4.4-2.2.3.1.1.2.3 0 .4-.8-.8-.8.3-1.4-.3.1-.7.5-.2.7-.4-1.5-.6-2.3-2.2-3.5-2 .1.6.7.6 1.1.9.1.5-.2 1 .2 1.5.5-.2-.2-1.1.5-.8 1 .6 1.2 1.4 1.9 2-.7.7-1.6-1.5-2.1-.8 1.6 1-.4.5.1 1.4.1-.2.5.1.4.3-.6.7-.8-.9-1.1-.6.4.7.4 1.1 1.5 1.5l.9 1.6c-.4-.2-1-.5-1.3-.4.6.6 1.6.4 1.6 1-.1.7-1.1-.3-1.2-.5-.1.6-.7.4-1.3.1-.1-.4-.6-.8-.5-1.2.5.4.9.5 1.1.3l-1.5-.6c.1-.2.2-.4-.3-.6-.8.2-.8-.6-1.4-.8-.1-.1-.4.2-.6 0 0 0-.2-.6-.4-.8-.4-.5-1-.9-1.6-1.4-.6-.6-1.7-1.5-2.3-1.5.3.4 1.1.8.5 1.1-.5-.4-.2-.7-.8-1.1-.8-.4-.6.6-1.1.4.7-.4-.7-1.2-.6-1.8-.5-.7-1.8-.6-1.8-1.7.4.8.7.1 1.1.5.8.7 1.2 1.2 1.8 2.1.3-.2.8.7 1.1.1-1.8-1.1-3.1-4.1-4.4-4.9.2-.2-.2-.6-.1-.9-.4 0-.7-.8-1-1.3-.3-.4-.9-1.1-1-1.3-.1-.1.2-.4.1-.7-.4-.8-.9-1.7-1.4-2.6-.5-.9-1-1.8-1.4-2.8-.3 0-.8.7-1 .1 0-.5.4-.6.1-1.3-.4-.1-.3 1.1-.7.3.2-.1.4-.3.2-.7-.8-1.2-.8-2.3-1.1-3.6 0-.1-.3-.1-.3-.5 0-.2.1-.5 0-.6 0-.1-.8 0-.6-.7-.1-.5.4-.3.2-.9 0-1.1-.8-.3-.9-1.3.6-.5.3-1.9.6-2.8.2 2.5 1.1 6.1 1.8 8.4.1.5-.3 1.3.5 1-.2-1.5-.8-3.5-1.3-5.7-.3-1.4-.6-2.9-.7-4.2-.1-.1-.2-.3-.4-.3-1.1.3-1.1.5-1 .5zm51.6 39.9c.5-.2.1-.6 1-.7.2.6-.9.7-1.5 1.1l-.1-1c.5-.1.6.2.6.6zm-14.5 1.6c0-.4.5-.4.4-1l.8.1c-.3.4-.2 1-1.2.9zm.1 1.7c1.2-.3.9-.6 1.5-1 1.3.4-.5 1-1.5 1zm7.6-1.7c-.2.3-1.1.2-.8.8-1.5 0-.3-.5-.3-.9.5 0 .6.2 1.1.1zm-1.9-1.7c.6-.1.7.1 1.1.1-.1.2-.5.3-.5.5-.5 0-.7-.2-.6-.6zm0 3.2c-.2-.1-.6-.1-1.1-.1-.1-.3.2-.4.3-.6.8-.1.8.3.8.7zm-2.4-3.2c-.1.6.4.8 1 1 .6-.1 0-.6-.2-.8-.2-.1-.7 0-.5-.3 1.3.2 1.8.7 1.9 1.5-.4.2-.5.4-1.1.5-1 0-1-.5-1.6-.7l.6-.3c-.1-.2-.5-.3-.5-.5-1.2-.2-2.2.2-2.9-.2.7-.4 1.9-.2 3.3-.2zm-7-1.4c.8.1 3.4.5 3 1.6-1-.2-1.5-.3-1-.8-.3-.1-.9-.1-1.4-.2-.4-.2-.8-.3-.6-.6zm1.4 1c-.7.3-.6.5.4.7-.2.2-.6.2-1.1.2-.2-.3-.1-.7-1-.7-.3-.2 1-.4 1.7-.2zm-2 2.1c.2.1.3 0 .3-.1.7.1.9.4.7.8-.8 0-1.2-.2-1-.7zm4-5.4c.7.3.5.5 1.5.4-.3.3-.8.3-1.5.1v-.5zm-3.1-2.3c.1.7-1.5-.1-1.6-.3 0-.5 1.5-.1 1.6.3zm-2.7 1.1c.5-.3 1.8 0 1.4.8-1.2.2-1.9-.8-3-1.2.5-.3.6.2 1.6.4zm-4.9-1.7c.8.1 2.4.1 2.5 1.1-.6-.9-2-.3-2.5-1.1zm2.6-1c-1 .5-1.8-.8-2.8-1.3.9-.1 1.6 1.1 2.8 1.3zm2.7 10.3c-1-.1-1-.4-1-.6 0-.3.7-.3.7-.4 0-.3-.8-.5-.4-.8 1.4.2 1 .9 1.7 1.3-.5.2-1.1-.5-1 .5zm-4.9-3.8c.5 0 1.1.1 1.1-.3 1.3.4 2.4.3 3.8.6-.7.5 0 .8 1.2 1l-.1.7c-1.2-.4-1.9-1-2.7-1.6-.5 0-.8.3-1.7-.2.5 1.4-1.5-.7-1.6.4-.8-.7-.5-.7 0-.6zm-3.2 0c0 .7 2.1 1.1 1.7 1.9.4.1 1.3-.2.8-.4.4.1 1.6.4 1.1-.6 1.3.5 1.4-.2 2.4-.1.7.3-.5.1-.6.2l.6 1.1c-.5-.1-.5-.3-1-.5-1 0-.1.8-1.7.5.3.4 1.2 1.2 2.1 1-.3-.5-.7-.1-1.3-.6.4-.2 1.5.3 2 .2.2.3.3.5.1.9-1.5-.3-2.9-.9-3.8-1.5-.9-.1-1.8-.1-3-.4-.1-.9 1.1-.1 1.8.2.1-.4-.8-.7-1.5-1l.3-.9zm-1.9-2.7c.6.3.4.6 1.2.8-.1.2-.5.2-.9 0s-.7-.6-.3-.8zm-.4 1c.3.5 1.1.4 2 1-.2.4-1-.1-1.7-.4-.5-.2.1.8-1 .1.1-.5.7-.2.7-.7zm-1.2 1c-.1.2-.1.3.1.5-.5.3-1.1-.7-1.5-.9.2-.4.8 0 1.4.4zm-1.1-1.3c.3.2.5.3-.2.1-.3-.2-.4.2-.5.3-1.3-.7-2.1-.6-3.2-1l-1.2-1.4c.7-.4.7.6 1.4 1.1l-.1-1c.6.7.7.2 1.1.4l.8 1c.4.2.2-.3-.1-.5.5-.3.5.6.9.8.2-.2.7 0 1.1.2zm-1.1-2.9c-.3.4.2.6-.4.6-.5-.4-.5-.8-1.3-1.2l.1 1c-.6-.4-1.1-.8-1.3-1.2.2-.1 1.6.5.5-.3.6-.3 1.6.8 2.4 1.1zm-3.2-5c.6.6.7 1 1.5 1.6l-.4.6c-.5-.3-.1-.5-.4-.8-.5-.8-.5.3-1-.4.7 0-.2-.6.3-1zm.8 3c-.5.1-1.6-1.1-1.4-1.4-.3-.8 1.2 1 1.4 1.4zm-2 1.3l1.1.9c.3.4.1.3-.2.1-.3-.2-.7-.6-.8-.7-.5-.6-.9-1.1-1.7-1.7.1-.6.7.2 1.1.5.3-.3.4-.6 0-1 1 .2.5 1.5.5 1.9zm-.5-3.6c-.8-.7-.8-1.3-1.2-2 .7.1 1.7 1.6 1.2 2zm-1.5.1l1 1.5c.4.7-1.7-1.3-1-1.5zm-.4-2.1c-.4.2-.7-.2-1-.6l-.7-1.3c.5-.4 1.3 1.3 1.7 1.9zm-13.7-18.6c-.4-.9-.3-.5-.4-1.5l.5.2c.1-1-.8-3.1 0-3.5.2.7.3 1.4.2 1.8.2.3.7-.4.9 1 .4-.2-.2-1.3-.2-1.8.5-.1.6.9.6 1.1.2.7-.2.6-.2 1v.5c.1.2 0 .3 0 0 0-.1-.1-.3-.3-.1-.5.3.7 1.7-.2 1.6l-.4-1.5c-.8-.1.3 1.4-.5 1.2zm2.3 6.5c.5.8.3 1.1.6 1.8-.3.1-1.4-2-.6-1.8zm.6-1.7c-.1 0-.6-.4-.6-.4-.2.1.1.8-.3.8-.5-1.4-1.4-1.1-1.7-3 .4-.3.7-.2 1 0 .2.7.4 1.4.7 2 .2-.4-.1-1-.2-1.6.5 0 .6 2.1 1.2 1.1.4.8-.1.2-.3.4.1.1.1.8.2.7zm3.2 8c-.3-.6-.4-.9.5.3.3.4.5.4.8.9-.3.3-1-.5-1.3-1.2zm1.7 4.8c-.1-.5-.4-1 0-1.2l.7 1c-.2.4-.5.1-.7.2zm3.1 3.5c-.8-.9-2.1-2.1-2.2-2.9.6 0 1.1.6 1 1.2.4.5.6-.4.9-.4.5.4.2.8-.1.5-.3.2 0 .5.3.9.1.2.4.5.1.7zm-1-4.1c.8-.2.8 1.1.8 1.6-.6.1-.3-1.1-.8-1.6zm1.2-2.2c.3-.2-.3-.8.3-.9l.6.9c-.4.1-.9.7-1.4-.3.2-.1.4.2.5.3zm-1.7-4.3c-.1 1.2.7 1.8 1.3 3.2-.6-.1-1.6-.2-1.7-1.2.4.1.8.8 1.2.5-.6-.8-1.3-.7-1.8-2.2.4-.4.7.2 1-.3zm-2.9-6c.7 1 .1 1.2.4 2 .1.5.4.4.6.3.3 1.1.2 1.4 1 2.4-.6.6-1.2.3-1.8.8-.2-.8.7-1-.2-2.2-.2-.3-.2 0-.2.1-.3 0-.5-.6-.7-1 .1-.7.4 0 .9-.5-.2-.5-.6-.5-.3-.8-.4-.5-.1.5-.6 0-.2-.5.3-.6-.1-1.2.4-.5.6.1 1 .1zm-1.7 2.1c-.8-.6-.4-.2-.4-1.4 0-.4-.5-1 0-1 .2 1.2 1 1.9.6 3 .3.6 1 1.2.9 1.9-.4.1-.7-1.2-1.1-1.8l-.3.2c-.2.2.1.6.2.5.3.4-.7.4-.8-.3.7-.2.2-1.1.9-1.1zm-.8 3.5l.8-.5c.6 1.6 1.4 1.4 2.1 2.6-.5.4-.9-1.2-1.4-.1.2.4.6 1.4 1.3 2.5-1.2.3-2.2-2.8-1.3-3.2-.3-.5-.5-.4-.7-1-.5.1-.3.5-.2.9.2.4.3.8-.2.8-.3-.8-.7-1.8-1.3-2.9-.3-1 .6 1 .9.9zm-.8-7.7c-.2-1-.9-2.2-.7-2.9.7.7 1.7 2.3.7 2.9zm-.2-4.2c-.3.1-.8.1-.7.5-.2-.4-.3-1-.4-1.6 0-.6 0-1.3-.2-1.9-.1-.5-.5.5-.6-1.1l.8-.2c.4 2 .2 3.1 1.1 4.3zM380.7 131c0 .2 0 .4.1.6l.6-.3-.1-.5c-.2.2-.4.2-.6.2zM388.4 129.5l.2-.1h-.7v.1h.5zM395.6 137.4l-.9-1.1c-.4.1-.7.3-.6.8.7-.6.9.4 1.5.3zM388.8 129.4c0-.1 0-.3-.1-.4 0 .1-.1.3-.2.4h.3zM393.1 134l-.3-1.3c-.7-.3-.3 1.9.3 1.3zM393.8 135.5c.5 1.5 1.1-.1.8-1.1-.7 0 .1 1.8-.8 1.1zM398 140.8c.3-.9-.6-3.1-1.1-3.1 0 .7.6 1.7.8 2.4.1.3-.3 1.2.3.7zM429.6 167.5c.6.1 1.4.4 1.6-.1-.5-.1-1.3-.3-1.6.1zM397.5 142.5c-.2-.4-.3-.8-.2-1.1-.4-.1-.3 1-.7.4-.2-.5.3-.7.4-1.1-.8-.8-.4-2.6-1.4-2.8.3.6.3 1.1-.2 1.2-.4-.7 0-.9-.3-1.6-.3.2-.5-.1-.8 0 .3.6 1.2 1.4.1 1.1.5 1.3 1.3 1.3 2 2-.2.1-.1.4-.4.5-.2-.4-.3-.9-.6-.6.1.8.6.3.7.8-.3.4.5 1.4.8 1.4-.3-.6.3.2.6-.2zM410 172.7c-1.1-.4-2.8-1.7-3.8-1.7 1.2.5 2.9 1.8 3.8 1.7zM415.7 164.3c-.1.2-.3.3-.4.4.5.5 1.9-.1 2.1 1.1.8.3.9-.3 1.8.3.3-.9-1.3-.8-1.9-.9 0-.4-1.2-.6-1.6-.9zM381.6 130.7v-.30000000000000004l-.4.2c0 .1 0 .2.1.3.1 0 .2-.1.3-.2zM406.1 157.1c.3-1-1.2-1.3-1.4-2.4.3-.4.9 1.2 1.1.3-1-.9-1.8-1.5-2.5-1 1 1.4 1.7 1.8 2.8 3.1zM379.8 131.3c.2-.2.5-.2.9-.3-.3.1-.6-.3-.7-.8h-.3c0 .6-.5.8.1 1.1zM437.9 169.7c.1.5.3.8.6 1.1l1.1-.3c-.1-.6-.8-.7-1.7-.8zM438.6 171.4l2.8-.5c-.2-.5-2.3.4-2.8.5zM444.1 169.8c-1 .2-1.7.4-2.2.8 1.1 0 1.8.1 2.8-.5-.4 0-.6-.1-.6-.3zM399.1 165c-.3.7 1.1 1.3 1.8 2 1 .9 2.7 2.8 3.7 2.2-.8-.4-1.7-1-2.7-1.7-1.1-.8-2.1-1.6-2.8-2.5zM447 111.3c.6-.3 1.2-.7 1.9-1-.3-1-2 .6-1.9 1zM433.2 115.2c-.1-1-1.2.1-1.3-.8-.6.2-1 .5-.9 1 .9-.6 1.3.2 2.2-.2zM436.9 114.1c-1.3.8-2.2.7-3.3 1.2.2 1.1 1.7-.6 2.2-.1-.5-.6 1.4-.5 1.1-1.1zM435.7 113.5c-.3-.9-1.6.3-2.2.1.3.9 1.3.3 2.2-.1zM421.2 161.8c0-1.1 1.1.5 1.3-.5-.7 0-.6-.3-1.5-.5 0 .4-.6.9.2 1zM442.7 110.3c1-.3 1.5.2 2.7-.5-.2-1.2-2.7.5-2.7.5zM450.9 160.3c.1 0 .2.1.5 0 .4-.1.7-.5 1.1-.7.5-.3 1.6-.4 1.4-.8-.8 0-1.3.7-2.4 1.1-1.4.5-3.2.6-4.4 1.3 1.3-.1 1.3-.1 2.5-.7.5.4 1.1-.1 1.3-.2zM416.4 121.3c.2.7.9.5 1.6.2-.1-.7-.9-.5-1.6-.2zM432.7 118.2c1.1-.4 2.3-1.2 3.1-1.1-1.1-1.3-4.1 1.4-6 1.8.5.8 1.8-.2 2.9-.7zM398.1 146.1l1 .6-.6-1.5c-.3.2-.4.5-.4.9zM405.2 151.9c-.4.2-.2 1.3.3 1.2-.2-.2 0-.5.2-.3.2.7.8.6 1.3 1.1.4.4 1.1 2 1.8 1.2-.9-.7-1.8-1.6-2.5-2.5-.7-.9-1.5-1.7-2-2.5-.3-.4-.5-.3-.7-.6-.3-.4-.2-.6-.4-.9-.3-.4-.6-.7-.9-1-.3-.3-.4-.7-.4-1-.3.4-.1 1 0 1.5 1.2.9 1.8 2.4 3.3 3.8zM403.7 152.4c.7-.3.8 1 1.2.9.1-.6-1.4-1.8-1.2-.9zM400.6 150.1c-1-.9-.9-1.7-1.4-2.2-.6.3 0 1.2.2 1.8.4-.5.8.6 1.2.4zM409 156.9c-.8 1.2-1.7-1.8-2.7-1.7.1.1.2.2.1.3-.1-.1-.2-.2-.3 0 .4.4.9.5 1.3.7 0 1.4 2.2 1.9 2.5 1.6l-.9-.9zM401.2 151.3c.3.6.9 1.7 1.4 1.2l-.6-.8c.8.3.5-1 .4-1.4-.6 0-1.2-1.6-1.9-1.1l1.8 1.9c-.4.1-.8-.4-1.1.2zM400.4 144.6c-.6-.8-.9-2.5-1.5-2.8.1 1 .6 2 1.5 2.8zM404.3 153.6c-.8-.7-.7-1.3-1.5-2.1-.4.5.6 1.4.9 2l.6.1zM376.3 131c.2 0 .4.1.6.2.1.1.2.1.2.2.5-.1.9 0 1.2 0-.1-.2-.2-.6-.2-1l.3-.1c0 .4.1.7.2 1.1.1 0 .2 0 .3.1.2-.4.3-.1.6 0-.1-.5-.2-.9-.2-1.3l.6-.1v.2c.6.1.8.5 1.3.4l-.1-.7c.3-.2.4.2.5.5 0 0 .1 0 .1-.1 0 .2 0 .3-.1.3l.1.5c.4-.2.7-.3 1.2-.3.3-.6-.9-.8-.1-.9 1.1.1.3.9.5 1.6.5-.1.6-.3.2-.5.5-.2.4-.8.7-1.1h.2c0-.2.2-.4.5-.5l.1-.1c.1 0 .1 0 .2.1.7-.1 1.7-.1 2.6-.1-.1-.3-.2-.6-.2-1-.1.1-.4 0-.5-.1l.5-.1c.1.2.1.4.4.2 0-.1 0-.2.1-.3l1.4-.3c-.1.4-.2.9-.8.9v.4c.1-.2.2-.4.7-.4.2-.1.4-.1.5-.1-.1-.2-.1-.5-.2-.8l.5-.1.1 1.2c.1.1.3.2.6.1.4-.3.9-.4 1.3-.5-.1-.4-.2-.8-.4-1.2l.4-.1c0 .5.4.6.4.2.4.2.3.7.2 1.1 1.1.1 2.1.5 3.1-.1-.4-.3-1.3-.5-.8-1.1.6.8 2.5.4 3.5-.3.2.4-.2.6-.1 1 .6.3 2.9-.1 2.3-.6-.4.2-.5.5-1.1.5 0-.5-.4-.4-.5-.9.3-.1.3-.3.5-.4l1.6.4c.5-1.1-1.8-.6-2.6-.9 1.1-.4 1.7 0 2.9-.5-.2 1 1.7.8 1.9.3l-.8.2c.6-.7-.7-.9.3-1.4.1.3.8.2 1.2.2 1.4-.1.8-.3 1.6-.7.1.4.4.7.8.8.2-.5.3-1 1.2-1.1.2.7.8.9 1.4.9-.4-.9-1.3-1.1-2-1.7.3-.1.3-.3.5-.4.8.3 1.1 1.4 2.8.4 0 .4-.3.5-.4.9 1.4-.6 3.1-.1 3.2-1.5-.8.2-1.5 1.2-2 .4.5-.3 1.8-.2 1.3-.9-.1-.4-.8.1-1-.2 0-.3.2-.6.7-.7 1.1-.1.3.8.9 1 1-.2 2.2-1 2.8-.7.1-.5-1.1-.5-.3-1 .7.6.7-.2 1.6-.6.5.5-1 1.4.3 1 1.2-.5 0-1.2.4-1.7-.5 0-1.2.3-1.5 0 .3-.5 1.4-.9 1.9-.7-.6 1.3 1.1.9 1.4 1.6-.4.1-1 .4-.5.4.9-.2.4-1 1.5-1.1.2 1.2 1.8.1 2.8 0 .2-.9 2.1-2.3 3.3-2.1.4.7-1.2.7-1.1 1.3 1-.3 1.5-.7 2.1-1.1-.4-.3-.5-1.2-1.1-1.2.1.3-.6.6-.8.3 0-1.7 1.3-.2 2.1-.3.7-.1.4-.7 1.3-.8.1.3-.2.7.4.4-.1-.8-.6-.8-.8-1.3.4-.1.5-.4.7-.6.5 0 .7.5 1.2.6.2-.6.6-1.2 1.2-1.7.8.2.3-.2.7-.6.8.2 2.6-.6 3.3-1.2-.1.1-.4-.1-.1-.2.8.4 1.6-.3 2.5-.9.1.3-.2.5 0 .8.9-.3.8-.9 1.7-1.1.1.5.5.4.7.8.9-.3.3-1 1.4-1.3.8-.3.8.9 1.7.3.1-.8-.5-.7-.2-1.1.5-.2 1.2-1.4 1.8-1 .9 1.1-.6 2.3.3 2.8 1.5-1 2.4-.5 3.5-.4.9-.6 1.5-.7 2.2-1 0-.2-.2-.5 0-.6 1.1-.1 1.7-1.2 2.5-1.8.6-.4 1.4-.5 1.9-.9s.8-1.1 1.3-1.4c.8-.6 1.8-.8 2.7-1.5 1.7-1.2 3.2-2.9 4.6-3.8.3-.2.5 0 .9-.3.8-.6.9-1.7 2-1.5.5-1.5 2.3-2 3.6-3.2.6-.6 1.4-1.2 2.1-1.8.4-.3.8-.6 1.1-1l1.3-1.2c.6-.6 1.2-1.3 1.8-2.2l.9-1.2 1.1-1.5c1.1-1.2 2.3-2.6 3.1-3.7.9-1.2 1.5-2.3 1.3-3 .9-1.4 2.1-3.3 3-5.2.9-1.9 1.4-3.9 1.3-5.4 1.6-2.6 1.4-6.2 1.6-10.5-.5-.7-.8-1.8-.9-3.1-.2-1.3-.3-2.7-.3-4-.1-.8-.7-1.1-1.1-2.2 0 .1 0-.9-.2-1.4-.4-1.1-1.7-3.1-.6-2.9.7.8 1 1.8 1.2 2.7.3 1 .4 1.9 1 2.6-.4-4-2.3-7.8-5.4-12.4-.5-.6-.7.1-1.3-.8.3-1.1-1.3-1.9-2-2.7-1.8-1.9-4-4-6.3-5.5-2.2-1.6-4.5-2.7-6.2-3.1-.8-.2-1.8-.8-2.2-.9-.8-.2-1.6.7-2.9-.1-.7 0-.4 1-1.1.8-1.5 0-2.2-.7-2.9-.4.5.1.9.3.7.7-1.3-.3-2-.9-2.9-1.3-1.8.5-3 .2-4.6-.4-.1.3-.1.6-.8.5-.6 0-.3-.7-1.1-.5.2 1.1-1.3.3-1.5.3l-1.1.6c-.7.2-1.2-.3-1.5.1-.3.5 1.1.8.1 1.1-.4 0-.4.3-.7.3-.9-.5 1-1.3-.5-1.6.8 0 1.4-.2 1.4-.7-.7.3-1.9-.1-2.6.3-.3.2.2.5-.3.6-.6.2-1.3-.1-1.5 0-.6.1-1.2.5-1.7.6-1.5.3-3.3.1-4.7 1 .4-.1 1-.1.9 0-.8.6-1.8.4-3.1.8l-.6.5c-.4.2-.6-.2-1.1.1-.5.3-.7 1.1-1 1.3 0 0-.7-.2-1.1-.1-.5.2-1.1.5-1.6.8l-1.6.8c-.5.2-1.1-.8-1 .3.2-.1.4 0 .1.2-1.1-.1-1.7 1.6-2.8 1.3.5-.3 1-.6.7-1-.7.7-2 1.3-2 2.2-1.6.5-3.2 1.7-3.1 2.8-.2-.5-.6-.5-1.2-.1-.5.8-1.5 1.5-2.5 2.3-1 .8-2.1 1.6-2.9 2.4-.2-.4-.6-.3-1 .3-.3 1.6 1.7-.2 1.4.8-.9.8-1.4 0-2.2.3-1.3 1.4-2.1 2.7-3.5 3.1.8.5-.4 1.3-.5 2-.8.1-2.3 1.7-2.6 2.5.1-.1.4-.1.2.2-.6.5-2.2.6-2.2 1.9.3-.2.8-.3.6.1-2 .9-3.6 3.2-2.1 4.7l1-1.3c-.2-.3-.7-.5-.5-.9.7 1.2 1.6-1.5 2.3-1.4l-.7 1.6c.3-.5.4.4.2.6-.3.2-.6-.5-.5-.5-.7.4 0 1.1-1 1.7.3.4.6 0 .9 0-.8 1.7-1.5.2-2.3 1-.2.8.7.1.4.8-.7.3-1.4.8-1.7 1.9.2-.3.5-.6.7-.2-.4.5-.1.7-.2 1.1-.7 1.3-1.4 1.2-2.2 2.3.2.4.7 0 .6.5-.8 1-1.7.9-2.5 2.1.1.7-.8 1.8-.8 2.6.3-.5.7-.8 1-.8 0 .8-.9 1.9-1.4 2.8-.1.5.4.8-.1 1.5l-.6-.8c-.6 1.1-.6 1.9-.8 2.9-.7.6-1.3 2.2-1.4 3.6-.6 1-1.4 2-1.9 3s-.9 2-.9 2.8c-.5-.4-.8.3-1.1.9.2 1.2-.6 1.8-.6 3.3-.3-1.6-.6 1.6-1.3.8-.3-1.4 1.1-2.2 1.5-3.3-.7-.9 1-1.8.4-2.7-.3 1.2-.9.6-1.2 1.6.5.2.5.6.2 1.2-.4-.2 0-1.9-.8-1.2.4.3-.6 1.5-.9 1 .2-.8-.9-1.5-1.5-1.2-.4 1.4-1 2.6-1.2 3.6 0 .2.4.2.3.5-.1.3-1 1.3-.3 1.4.7-.5.4-2.2 1.3-2.4.3.2 1.1.8 1 2 .2-.5.6-.5 1-.2-.1.3 0 .4 0 .7-.2 1.1-.7 1-1 2.1.8.6-.8 1.4.1 1.8.8-.5.5-2.2.9-3.2l.4 1.6c.6-1.5.8-2.7.9-3.9.2.1.1.6.4.2.2-1.1.6-2.3 1.1-3.6.5-1.2 1.2-2.4 1.8-3.7.7-1.2 1.4-2.5 2-3.8.6-1.3 1.2-2.6 1.6-3.9-.2.3-.5.1-.4-.3.5-.1.9-1.2 1.4-.9-.3-1.2 1.2-1.7 1.8-2.5.4-.5.5-1.1.8-1.7.3-.4.8-.7 1-1.2 2-3.3 4.6-6.9 7.3-10.3 2.8-3.4 5.8-6.6 8.4-9.1-.2-1-.9.6-1.1.1.8-1 2.6-.7 2.3-2.2-.8.4-1.1.5-1.5.7.1-.7.9-.5 1.7-1.5.1 1.1.5.4 1.1 1-.8 1.2-2.2 2.2-3.5 3.6-.9.9-2.3 1.9-2.1 2.9.9-1.1 3.2-3.6 4.8-4.4-.2-1 1.2-1.4 1.5-1.7 3-2.7 6.7-5.3 9-7.4-.2-.1-1.5.5-.8-.1.9-.7 1.3.2 2.1-.1.4-1-.8-.2-1-1.2.8.1 2-.5 1.8.8.8-.5 2.3-.4 2.1-1.4-.8.5-1.4.7-1.9.4.1-.8 2-2.5 2.4-1 1-.2.3-.9.9-1.3 1.3.4-.3 1.2-.7 1.8.9.2 2-.3 3.3-1-.1-1-1.6.5-1.6-.7 2.2-.3 2.3-1.7 3.9-2.7-.1.8.5.7 1.1.5.6-.2 1.2-.3 1.1.4-1.2-.1-1.9 1.1-3.1.8.3-.2.9-.3.8-.6h-.7c-.7.2-.2.4-.4.7-.4.5-1.1.7-.3 1 .5.6.2-.8 1.1-.7 1.6-.2 3.8-.5 4.5-1.7-.5 0-1.5.8-1.6.2 0-.3-.2-.7.1-.9 0 1 1.1.5 2 .3.1.3-.3.5-.1.9 1.7-.5 3.2-.8 4.4-.9 1.3-.1 1.5-.3 2.5-.3.8 0 1.9-.5 2.2-.4.1 0 .6.4 1 .5 1.4.3 2.4 0 3.2.1.8.1 1.2.4 1.9.5.4 0 .9-.3 1.4-.4.4 0 .4.4.9.4.4 0 .7-.5 1.1-.3.1 0 .7.7.5 1-1.4-.1-2-.8-2.7.3-1.1-.5-2.1-.5-2.9-.3-.9.1-1.7.2-2.7-.1-.2.3-.3.6-.6.8-.6-.6-1.8-.7-3-.4-1.2.2-2.5.7-3.4.8-.7.1-1.6-.2-2.2-.1-2.2.3-4 1.6-5.6 1.7-.4.3.3 1-.3 1.2-1.1.6-1.5-.2-2.7.6-.3.6.8.8-.5 1.4-.1-.9-.6-.8-1-1-1.1.8-1.2.7-2.1 1.3-.9-.2-1.5.2-2.1.7-.6.5-1.2 1.3-2.1 1.7.1.3.4.6.1.9-.2-.5-.6-.2-.9-.4-1.5 1-2.5 2.2-3.7 3.3-.5.1-.5-.2-1 .1-1.1.7-2.2 2.3-3.6 3.8l-.8.4c-.8.8-1.6 1.8-2.4 2.7-.8.9-1.5 1.9-2.2 2.7l-1 .7c-.4.5-.6 1.5-1.1 2-.6.7-1.5 1.5-1.6 2.3-.3.2-.6.4-.9.4-.3.5-.3 1.1-.6 1.5-.6 1.1-2.1 2.5-2.9 3.5-.2.3-.2.8-.3.9-.2.2-.5-.1-.9.4l-.5 1.2c-.1.1-.6.4-.9.9-.7 1.2-1.4 3.7-1.8 4.7-1 .1-.5.9-.8 1.3-.1.1-.6.2-.8.5-1.1 1.3-1.1 2.7-1.4 3.4-.2.4-.7.7-.9 1.2-.5 1.1-.5 1.8-1.3 2.4-.3.8-.1 1.4-.4 2.3 0-.2-.6-1.2-1-.6-.2.8.9.9.1 1.9-.3-.2-.1-.6-.3-.9-.7 1.2-1 2.3-1.4 3.3-.4 1-.8 1.9-1.3 3 .4.3.6-.2.8-.3-.9.9-1.1 2.2-1.4 3.8-1.4 1.6-1.3 3.6-1.6 5-.2 1.2-.6 2.9-1 4.5s-.7 3-.9 3.7c-.3 1-.1 3.9 1.1 3.3 0-.2-.1-.3-.3-.3 0-.6.6-.3.6.1l.1.2h-.1v-.2c-.1.1-.2.2-.3.2v.1l-.9.2c.1-.1.2-.3.1-.5-.5 0-.4.5-.7.6h-.1l-2.2.5c-.8.1-1.5.3-1.9.3v.2l-.7.2c0-.1 0-.2-.1-.4-.1.1-.2.3-.3.5l-.6.2c.6-.5 1.2-1.4 1.5-.5h.2c.1-1.3-.5-2.9-1.1-3.2.1-.9.3-1.4.8-1.2-.2 1.2.2 1.9.5 2.5-.1-1.4-.1-3.1-.7-3.9-.6.6-1.1 1.2-1.6 2.1.2 1.6.5 1.9.4 3.6l-.1.8-1 .2h-.2l-.2.1-.9.2c0-.4.1-.8.3-1-.4 0-.6.5-.7 1.1l-.6.1c-.7 0-1.1.2-1.4.4l-1.7.4h-.5c-.7.1-1.3.4-1.8.5-.3 0-.4-.2-.8-.1-2.2.5-8.4.8-7.6.7-1.4.1-1.9.6-.5.7-1.4.5-3 .1-4.7.4-.8.1-1.4.4-2.1.4-2.4.2-5.4.1-8.2-.1-1.4-.2-2.7-.3-3.8-.5-1.1-.2-2.1-.4-2.8-.5-.2.2-.4.4-.6.5-1.4-.1-2.5-.5-3.2-1.1-.1.2-.1.6-.4.5-.5-.6-1.1-.1-2-.5-.7-.1 0-.8-.8-.9-.1.2-.2.4-.6.2-.5-.2-.2-.6-.9-.7-.5.6-1.1-.1-1.5-.3-1.6-.6-4.6-1.6-5.9-2.5-.6-.4-1.3-.5-2.1-.9-.3-.2-.2-.4-.6-.6-.6-.4-1.3-.4-1.8-.9-.4-.3 0-.6-.7-.8-.7-.1-1.5-.4-2.3-.7.7.7-.2.9-.6.8.5.6.7 1.4 1.5 2.1.5.4 1.1.3 1.4.9-.9-.1-1.8-.3-2.3-1.4-.7.3.4.7-.1 1.1-.8-.7-.7-1.2-.1-1.4l-.4-.3-.4-.3c-.1.5.4 1.6-.5 1.6.4.3.7.7.7 1-.4-.3-.5.4-1-.1-2.8-2-5.1-4.8-6.7-7-.3-.4-.7-.1-1-.4.1-.4.3-.7.2-1.2-.4-1-.7-.2-1.1-.7 0-.7.2-1.2-.2-2.2-.3-.4-1.5-1.2-.9-1.9.1.4.3 1.1.5 1.1-.2-.7 0-.9-.3-1.7-.2 0-.5.2-.6-.5-.4-.2-.1 1.5-.7.5 0-.5.1-.8.3-1 .2.4.4.5.7.5.2-.7-.3-1.4-.3-2.3.3.5.6-.5.8.5 0 .4 0 1 .1 1.6l.4 1.8c.7.1-.5-1.8 0-2 .1.2.2.3.3.2-.2.8.3.9.5 1.5-.2.5-.1.6-.6.5.1.7.6 2.7 1.3 3.1-.4-.5-.4-1-.2-1.1l.7.8c-.4.1-.1.7.1 1.2.5.5.9 1.1 1.3 1.6s.8.9 1.4 1.1c.5.1.7-.8 1.5-.3-.3-.4-.5-.7-.4-1 .6.8 1 .3 1.5.6.3.3.7 1.3 1.2 1.2-.2-1.1-1.7-1.5-2.5-2l.5-.4c-.4-.4-.6-.8-.9-1.2l-.6-1.2c-.4-.3-.8-.7-1.2-1.1-.7-1.8-1.2-3.5-1.6-5.4-.4-1.8-.5-3.8-.5-5.7l.4-1c-.1-.5-.1-1.2.1-1.8.1-.7.3-1.3.6-1.9 0-.6-.1-1.1.2-2 .2 0 0 1.2.4.5-.2-.3.1-1.1.2-1.7l.3.2c.4-1.3.9-3.3 1.8-4-.1-.2-.1-.4-.1-.7.7-1.1 1.5-3.3 2.7-4.9 0 0 .4-.2.5-.3.5-.6.8-1.4 1.2-1.6l-.1.6c.8-1 .6-1.3.8-1.9.2.2.4.1.7-.5l.7-1.3 1.2-1.2c.4-.6.2-.6.7-1.3.1 0 .2-.1.4-.4.1.1-.1.6.2.2 1.5-2.8 5.2-6.5 7.9-9.7 1-1.2 2.5-2.7 3.7-3.9 0-.3 1.9-2.3 1-1 1-1.3 2.2-2.2 3.6-3.6 0-.2.4-.7.9-1.2 0 .1.2-.1.3-.1.1.1-.5.6-.5.7 1-.9 1.2-1.3 1.5-1.8.7-.1 3-2.7 4.5-3.9.3-.2 1.3-1.2.6-.6-.4.3-1 1-.9.7 1.2-1 1.1-1 2-2 .1-.3-.3 0-.4-.1l.6-.7 6.7-5.7c.1-.4-1.1.8-1.2.8.2-.3.9-.7 1.7-1.5l.1.1.9-.7c.5-.4-.4.2.4-.5.5-.3.8-.5.9-.6 1-.8 1.2-1 2.4-1.9.1-.2-.3.1-.3 0l.9-.7c.6-.5-1.1.6.4-.6-.2 0-1.1.6-1 .3l1.8-1.3c.9-.5 3.1-2.1 4.2-2.8l.2-.2c.7-.5.8-.6 1.6-1.1.3-.2.5-.4.9-.7l.5-.3.2-.2.5-.3.5-.3-.5.3c.4-.2.3-.2.7-.5l-1 .6.7-.4c-.1 0-1.6.9-.7.4l-.7.4c-1.2.7-1.3.7-2.7 1.4-.1 0-.9.4-.8.3-1.3.7-2.8 1.5-4.2 2.3l-1.2.8c-1.6 1-4.1 2.4-4.6 2.9-.9.5-1.3.8-2.2 1.4-1 .6-2.1 1.4-2.6 1.7l-.7.6c-1.1.6-1 .2-.5-.3-.7.4-1.2.9-1.5.9.7-.4.2-.4 1.1-.9 0-.1-.5.1-.4-.1l-2.7 1.7-2.1 1.5c-1.3.9-2.8 1.9-3.6 2.5-1 .7-2.2 1.5-3.1 2.2-.2.1-.4.4-.6.6-.4.3-1 .6-1.5 1l-1.8 1.5c.2.3-1.4 1.4-2.5 2.1-.8 1.1-3.2 2.5-5 4.1 0 .1.1.1-.1.3-.9.9-3.1 2.9-4 3.5.4-.6-.3-.1-.4-.5-1 .9-2 1.6-3.2 2.8.5 0-.6.8-.7 1-.1.2.2.3-.2.7-.6.4.2-.7-.6.2-.5.6.4-.2.3.3-.8.5-.6 1.2-1 1.2.7-1-.5.1-.2-.6-.5.6-2.5 2.5-1.8 2.1.3-.3.8-.8.9-.8-.6.6-.8 1-1.2 1.4-.1.1-.8 1.1-1 1.2-.1.1-.3 0-.6.3-.1.1-.1.4-.5.9-.4.4-.7.6-1.1 1.1-.7 1.4-2.2 3.6-3.3 4.8.1.1.3.2.1.5-1 1.1-2.6 3.9-3.8 6.2-.3.6-.5.6-.8 1.1-.1.3-.1.6-.4 1.4 0 .1-.4.7-.6 1.3-.7 2.1.6-1.4.6-.5-.4 1.2-.7 1.4-1.1 1.4-.4 1-.7 1.1-1.1 2.3-.2.5.1.4 0 .8-.2.6-.4.1-.6 1 .2 1.1-.8 2.6-.9 4.6-.4.4-.8.3-1.1 1.4.2.1.5 0 .3.9-.8-.3-.9-.3-1.3-1.5-.1.8-.2 1.5-.3 2.1-.1.6-.2 1.2-.2 1.7-.1 1.1-.1 2.1 0 3.8.3.1.5.3.6.9-.3.1-.2 1.2 0 2.3l.6-1c-.1.8-.1 1.6-.6 1.5.1 1.5.6.5.8 1.7 1.1 4.3 3 8.6 5.9 11.3 0 .3 0 .6.1 1 .8 1.1 1.8 2 2.7 3 .5.4 1 .9 1.4 1.4l.7.7.7.6c.9.8 1.9 1.6 2.9 2.4 1 .8 2 1.5 3.1 2.2l1.1.1c.3 1 .5.4 1.4 1 .4.3.3.6.7.8-.1-.1.9.3 1.2.5 1.7 1 2.4 1.3 3.6 1.8.7-.8 2.3.9 2.4 1l.4-.2c.5.1 1 .6 1.1.7.5.7 1.3.5 2.1.8.6.2 1.5.7 2.1.8 1.3.4 2.6.8 3.3 1.1.1 0 .3-.2.7 0l.6.4c1.2.3 2.2-.2 3.2.2 0 .3-.2.7.5.7 1.3.4.5-.4 1-.4.3.3 1.7 1.1 2.1.7-.5-.1-1.1-.2-.8-.6 1.2.1.8.7 1.7.8.5-1 2.6.8 3.4.2-.2 0-.3-.2 0-.2.1.3.4.5.2.9.6 0 2 .5 2.1.1-2.1 0 1-1.2 1.3-.5l-.9.3c1.6-.1 2.8-.2 4.5.3.1-.2 0-.6.3-.6.4.7 1.2-.2 2.1.1 0 .3-.4.3-.3.6 1.7-.7 1 1.1 2.4.6l-.6-.9c.4 0 .3-.4.6-.4.3.2 1.2-.1 1.5 0 0 0-.1.4 0 .4.8.2 1.7-.1 3 .1.1-.2 0-.4.3-.4 1.6.3 3.4-.1 5.4.2 0-.3-.1-.6.3-.7 1.1.1.8-.7 1.7-.7.1-.4-.4-1.3.2-1.4.4 0 1.1-.2 1.2.1-1 .4-.6.6-.8 1.4 1.1-.3 2.4-.9 2.9-.4-.2.4-.9.7-.2 1.2.9-.4 2.3-.5 3.2-.3v-.1l-.2-1.1 3.7-1.2zm107.5-93.9c.3.6.6 1.4 1.2 2-.3-.1-.7-.3-.4.3-1.2-.6-1.1-1.4-2.3-3 .8-.3 1.2.2 1.5.7zm-2.6-2.9c.9 1.1.3 1.6.7 2.5-.3.1-.8-.6-.6-.7.3-.5-1-1.5-.1-1.8zm-1.6-1.7c-.5.5-2.1-.9-2.4-1.5 1.1-.4 1.1.9 2.4 1.5zm-98.1 52.1l.5-1.3 1.2.6c-.4 1.1-1 1-1.7.7zm1.2 1.3c.4-1.6 1.2-1.2 2-1.2l-.4.9c-.8-1-.9 1.3-1.6.3zm12.6-20.5c-.4-.1-.7.7-1.1-.1.5-1.7 1.2-.3 1.8-1 .3.1-.6 1.5-.7 1.1zm8.9-17c.8.6-1 1.6-1.4 2.4-.8-.6 1-1.6 1.4-2.4zm1.7 0c-1 .7-2.1 3.2-2.9 2.6 1.7-1.4 1.6-2.2 3-3.9.5.4-.4.9-.1 1.3zm.4 3.3c-.4-.6.2-1.3.4-1.9l.8.9c-.4.6-.8.1-1.2 1zm.5-4.3c.1-.4.6-2-.1-1.7-.2-.7.9-.3 1.1.3-.2.5-.5.9-1 1.4zm5.9-7.8c.9-1.3 1.2.1 1.6.6-.6-.2-1.1-.2-1.6-.6zm1.5-1.3c.6-.4.8-.7.5-1.1.6-.2 1.2-.3 1.5.5-.5.3-.6.7-.5 1-.6.2-1.2.3-1.5-.4zm1.4 5.4c-.7-.8 1.1-1.7 1.8-2.5.4-.4 0-.8.6-.8.3 1.1-1.7 2.2-2.4 3.3zm10.5-12.4c.3-.9 1.4-.4 2-1.3.2.7-1.5 1.4-2 1.3zm15.5-1.1c-.2.9-1.1.1-1.3 0 .2-.7 2.1-2.4 2.5-.8-.5.5-2.3-.2-1.2.8zm.6.1c.3-.6 1.7-.5 1.1-1.6.5.1.7.5.8 1-.4.4-1.1.5-1.9.6zm-49.4 96.6zm2.9-19.6l-.3.1c.1-.2.2-.4.3-.3.1-.1 0 .1 0 .2zm.8 19.8c-.1-.6.9-.8 1.4-.6.1.6-1 .8-1.4.6zm1.4-12.3l-.1-.4h.2c0 .2 0 .3-.1.4zm.8-1.4c-.8.1-.5-.3-1 0l-.1-.7c.8-.1 1.4 0 1.1.7zm7.2-4c.3-.5 1.4-.9 1.4 0-.3.5-1.4.9-1.4 0zm5.3-7c0 .2.2.2.3.1-.2.7-1.2-.1-1.5-.5.5.2 1.3-.3 2.1-.5-.1.4-.5.7-.9.9zm1.9 1.7c.1-.5.9-1.1 1.4-.8 0 .5-.8 1-1.4.8zm1.2.1c.6-.4 1.1-1 1.4 0-.5 0-1.4.9-1.4 0zm5 14.8c.5-.5.7-1.8 1.7-1.5-.1.7-.7 1.1-1.7 1.5zm2.7-.3c.8-.3 1.5-.6 1.6.2-.8.4-1.5.6-1.6-.2zm.3-14c-.6.2.1-.4.2-.4-.6-.5-1.4.6-2.4.7-.1-1.2 2.2-1.2 2.8-1.2.8-.2 0-1 1.1-1 .6 1.1-1.5 1.2-1.7 1.9zm1.8 12.1c-.1-.5.5-.8 1.2-1 .5.8-.7 1.3-1.2 1zm3.9-1.3c-.3-.1-.5-.4-.6-.8.6-.4.7.2 1.4-.3-.1.4-.2.9-.8 1.1zm3.2-15.2c-1 .5-1.4-.5-2.2-.3.1-1.1 1.4-.2 2.4-1.5 0 .3-.1.6-.5.9.4.1.5.4.3.9zm3-.1c-.3-.6-.3-1.1.3-1.3.7.2.4 1-.3 1.3zm11.7-6.7c-.6-.3-.2-.8-.9-1.2.7-.6.5-1.2 1.5-1.3.4.6-.8.8-.6 1.3.2.4.9-.9 1.7-1 .1.3.3.4.5.3-.7.4-1.5.9-2.2 1.9zm14.2-11.8c-.4-.5.1-.8-.5-1.3.4-.3.6-.1 1-.5-.1.6.1 1.2-.5 1.8zm4-4.1c-.3-.2-.8.7-1.2.3-.2.3.2.7.4 1-.8.2-1.7 1.4-2.4 1 .1-.8 1.4-.2 1.7-1.5-.2-.1-.5-.2-.7-.5.2-.7 1-.4 1.6-.7.9-.2 1.4-1.3.6.4zm6.3-51.6c-1 .4-1.2.1-2.7-.8.5-.4 2.1-.2 2.7.8zm-2.2 8.8c-.7.2-1.7-.3-2.5-.5.9-.4 1.3-.6 2.5.5zm-32 7.3l.3 1c-.7.3-.9-.3-1.6.1.1-.5.5-.8 1.3-1.1zm-14.5 11.1l-.8.7c-.4.2-.4-.4-.3-.4-.5-.3-.7.5-1-.4.8-.9 1.4-.3 2.1.1zm-1.6 1l.5.6c-.4.5-.6.4-1 .6-.2-.4 0-.8.5-1.2zm-3.9 3.9c.2.2.3.3.5.2.2 0-1.1 1.6-1.5.8.7-.5.5-.3 1-1zm-11.2 14.2c.4-.4.3-.7.4-1.1.6-.5 1-2.3 1.7-1.6-.6.5-1 1.4-1.3 2.3-.3.9-.6 2-1 2.8 0-.6-.4-1.1.4-1.9-.5-.6-.8.4-1.3-.3.3-.6.7-.7 1.1-.2zm-.8.8c.2.9.3 1.9-.2 3 0-.3-.7-1.3-1.1-.8-.4-.9.9-1.5 1.3-2.2zm-1.9 8.8c.3-.6.7-1.2 1-1.3.4.2-.5 2.1-1 1.3zm.4-4.2c-.4.7-.9.2-1.3.8-.1-.3-.2-.5-.4-.3-.3-.9 1.7-1.2 1.7-.5zm-2.9 4.9l-.6-.8c.4-1 .6-1.8 1.4-2.9.7-.5.4 1.9 1.3.2.1 1.1-1.9 2.1-1.3 3.2-.6.9-1.2 1.1-1.8 1.9 1-.7.3.3-.1 1.3-.5-.4-.8-.9-.8-1.5.5-.8 1.2-1 1.9-1.4zm-4.7 8.2l.6.3c.3-.7-.1-2.2.9-2.1.1-.4-.4-.5-.7-.7.1-.2.2-.4.2-.5.2.1.3-.2.5-.4.4.2-.3.9.2 1.1.1-.7.4-1.5.9-2.4 1.1 1.2-1.3 2.8-1.7 4.2.3.7 0 1.6-.4 2.7-.3-.9-1.3-.4-1.5.9-.8-.6 1.2-1.7 1-3.1zm.5 10.9c-.3-.1-.6-.2-.7 0-.4-.4.4-1.5.8-1.2.1.3.1.7-.1 1.2zm-2.9-4.7c.4 0 .5-.8 1-.2.3-.7.6-1.5.5-2-.2 0-.5.1-.6.4-.3-1.2 1.1-1.6 1.7-1.4-.4.9-.7 1.8-1 2.8-.3.9-.7 1.9-.9 2.8-.6-.4-.3-.3-1-.4.3-.8-.2-1.1.3-2zm-.9 5.4c.2 1-.6 2.7-.7 4-.7-.5.1-1.6.3-2.3 0-.5-.6-2.1.4-1.7zm-1.4 5c.2.1.2-.1.3-.2.5.2-.1 1-.2 1.1-1.1-.1-1-1.3-.4-2.2.1.4.7.5.3 1.3zm-.3-8c.5.2-.3 1.2-.3 1.8-.6-.2-.1-1.5.3-1.8zm-.8 8.8c.5 0 .8.8 1.6-.2l.2-.1c.3-1.5.6-3 1.2-5-.3-.9-.9-1.7-.2-3.4.3.3 1.2.1 1 .6-.2.8-1.1.7-.4 1.4.5-.4.8-1.6 1.5-1.3-.4.8-.7 2-1.3 2.2.1.6 0 1.6-.2 2.6-.1 1-.4 1.8-.8 2.1.1.1.1.3.1.4l2.4-.9.3-.1v-.4c-.2-.4-.6.4-.5.4-.6-.5-.1-2.3-.6-3 .5-.4.7 1.3.6 2.2.2-.6 1-.7 1.3-1.3.3-.6.4-1.3.5-2 .1-.7.2-1.4.5-2 .5 0 .1.6.5.7.2 0 .9-.6.4-.7.2-.3.6 0 .9.1-.5 1.2-1.1 1.4-1.1 2.7-1 .1.4-1.3-.2-1.5-.3.1-.5.6-.6 1-.1.5-.1 1-.1 1.3-.3.5-1.7.9-1.2 1.9.4-1 1.2-1.1 1.5-2.3.7.3-.1 1.1-.2 1.6-.1.3-.1.6-.2.8.3-.2.6-.4.8-.6l.1-.4c.2-.6.4-1.3.5-1.8.1-.6.2-1.1.2-1.7.4-.3.8-.4 1-1l-.1-.9c.8-.2.6-1.3 1-2.1.4-.9 1-1.8 1.5-2.7.6-.9 1.2-1.9 1.7-3 .7-1.4 1.1-2.8 1.9-3.7-.3-.2-.7-.4-.3-.8.3.2.6.3.9.3 1-2.3 2.5-3.2 2.5-4.7.6.5 1-.1 1.5-.6 0-1.1.2-2.2-.6-3.1.8-.8 1.6-1.2 2.4-1.9.1.6-1 1.8-.4 1.4.2-.1.1-.7.9-1 .9-.2-.1.5.6.8.5-1.1 1.3-1.9 1.5-2.5-.1.1-.3.1-.2-.2 1.2-2.2 3.1-4.6 5.1-6.9 2-2.3 4.2-4.3 5.8-6-.3.2-.2-.3.2-.5-1-.6-.3-2 .4-1.4-.4.6-.5 1.7.2 1.9 1.3-.8-.5-.9.3-1.6l.8.6c1.9-1.9 3.4-3.1 4.9-4.5.3.3.5.2.4.7 1.1-.5 1.3-1.5 2.2-1.4-.4-.6-.1-.9.4-1.1.3.6.1 1 0 1.5-.9.7-2.5 1.2-2.8 2.2 1-.5 2.4-2 3.8-2.1-.7-.8.1-.9.6-1.2.3-.6-.7-.5 0-.9.4.1.1.4.7.5l1.3-.7.2-.7c.7.2 1.3.4 2.2-.1l.2.5c.7-.2 0-1.3.8-1.4.4.5 1 .4 1.4.7-.3.5-1.1.5-1.8.9-.7.3-1.9.3-1.6 1.2 1.9-1.2 4.9-1.4 6.7-2.4-.6-1.4.5-.9.7-1.5-.8-.3.3-.7-.4-1.6l.9-.7c.9.7 1.1 1.4 1.5 2.3 1.2-.3 2.3.8 3.2.1-.2.2-.5-.3-.5-.3.3-.1 1.4.6 1.5-.6.2.5.2 1.1.6 1.2.2-.3.6-.2.7-.7l-.1.8c.4.3.5-.7.9-.6-.5 1.3.4.8.5.7-.1-.1 0-.3 0-.6.4.5.2-.5.5-.7-.4 1.3.3 0 .5.2-.2.8-.1 1.4.4 1.4.4-1 .6-.4.9-.7-.2.4-.5.7-.7.9.2.1.4.3.5.4.3-.3.8-1.3 1.1-1.2.5-.2.1.1.4.3-.4.6-1 .7-.6.9.4.5.6-.7.9-.6l.3.2c-.5.5-.5.3-.8.8.2.2.3.4.5.5.3-.3.7-.6.8-.3.1.4-1 .4-.5.7.1-.1 1.6-.9 1 0-.1-.2-.3-.1-.6 0 .6.6.7.9.9 1.7.4.1.9-.6 1.3-.4 0 .5-.9.4-1.2.7.3.9.8 1.8.3 2.5.3 0 .6 0 .5.2-.4.4-.6.7-.4 1.1.1.2.4.3.4.5s-.6.4-.5.7c0 .1.4.3.4.5 0 0-.5.1-.6.2l-.4.8.3.4c-.9-.1-.3.4-.5.8-.1.2-.3.1-.5.2l-.4.9-.8.1c-.1.1-.3.2-.5.4l-.6.5-1.2 1c-1 .8-2.1 1.6-3.3 2.2.6.4-.2.6-.3.9-.1.7.6 1.6 0 2.3 1.1-.8 1 1.2 1.8 1.3-.5.3-.7.7-.5 1.1.7-.3 1.3.3 1.8 1.2 1.1.4 2.2.2 3.2-.3.5-.3 1-.6 1.5-1.1.5-.4 1-.9 1.4-1.5.6-.7 1.4-1.6 1.9-2.3.5.2.8-.1.9-.3.6-.5.4-1.2.7-1.7.1-.2.4-.1.6-.4.9-1.4 1.5-3.1 2.4-5.1-.2-.6-.9.1-.9-.5 0-.2 1.2-.1.4-.5-.6.3-.5-1.1-1-1.4.9 0 .4-1.1 1.4-.4.1-.4-.3-.4-.4-.7.3-.6.2-1.3.1-1.9-.1-.6-.1-1.2.2-2-.9-.2-1 .9-1.3.4.3-.5 1.3-.7 1.1-1.5-1.1.3 0-.3-.4-.7-.8.4-.9 0-1.2-.2.7-.5.6-1.2.8-1.8-.4.2-.6 0-.7-.3l-.5-.9c-1.1.3.3.8-.3 1.1-.1-1-.9-1-.4-1.8-.5-.4-1.2-.3-1.8-.5.4-.3.6.4 1.2-.3-.8-.5-.9-1.5-1.4-1.9-.4-.4-1-1-1.8-.5.4.7 1.6.3 1.7 1.4-.4 0-1 0-1.3-.1-.6-.3-.9-1.2-1.5-1.1.1-.9-1.3-1.7-2.2-1.8-.1 0-.5.3-.7.3-.3 0-1-.7-1.1.2-.2.8.9-.7.8.3-.4 1.4-.7-.3-1.3.4.4-.4.3-.9-.3-.9l-.4 1.3c.2-1-.9-.8-.8-1.8-.6-.5-.7.4-1.1.4 0 0-.3-.5-.6-.6l-.8-.1c.2-.8-.2-1-.4-1.1-.1-.1-.3-.5-.4 0 .2.1.3.3.4.6-.9 0-1.5.2-1.9.8.7.8.9-.6 1.9-.2.2.1.9.8.4.8-.2-.2-.5-.4-1-.3-.1.3-.2.6-.4.8-1.7 0-2.6-.3-4.3.2-.1-1.1-.7-1.4-1.2-2.5-2.1-.3-4.9-.1-6.7.5-.2.5-.7.9-1.1 1.3-.7-.4-2.9.5-3.5 1.3.1-.1.4.1.1.2-1.8-.2-3.2 1.8-5.3 2.9.1.3.4.6.2.8-.6.5-1.3-.1-2.1.5l-1 1.4s0-.7-.3-.4c0 0 0 .6-.1.8-1.1 1.3-3.9 1.9-4.6 4.3.5-.3 1.2-1.8 1.7-.9-1.2 1.5-2.1.7-3.7 2.2 0 .6.1 2.2-1 1.7.3-.3.7-.6.2-1-1.1 1-2.1 2.4-2.7 3.4-.3.5-1.3.6-.7 1.2.4-.3.7-1.2 1.1-.5-.6.7-1.2.6-1.8.9-.3.2-1 1.3-.3.8.2-.2.5-.6.7-.5-1 .6.7.8.2 1.3-.7-.5-1.9 1.4-2.1.3-1.6 1-2.2 3.2-3.6 4.5-.1.7.7.1.4.7-.5.4-1 .4-1.5 1.3-.2.3.2.5.1.8-.6 1-1.4 1.6-1.9 2.4-.2.3.1 1.5-.6 1-.3-.4.6-1.2.2-1.6-.4.7-.9 1-1.5.3 1.2-1.3 2.2-3 2.6-4.8 1.5-1.6 3.3-3.1 4.7-5.6-.5-.4.2-1.1-.7-1.4-.7-.1-1.3 1.9-1.9 1.3.7-1.1 2.4-1.8 3-3-.3-1-.7.6-1.1.2.2-1.1 1.1-.3 1.2-.4.4-.2.2-.9.5-.6.8.5-.6.9-.7 1.3-.1.2.2.7.2 1 0 .5-.9 1 0 1.2.9-.5.3-1 .5-1.4 0-.1.7-.4.9-1.1.4-.4.7.2 1.1-.5 1.2-1.7 3.1-4.2 4.9-6 1.7-1.6 3.6-2.4 4.1-4 .3.9 1.9-.8 1.8-1.1-1.2.4-.2-1 0-1.6l-1-.5c.5-.2 1-.7 1.5-.8.1 0 .4.5.6.5.7 0 1.1-1 1.6-.5-.4 1.1-1.6 1.1-2.2 1 0 .5-.7.9 0 1.6.5-.6.7-.1 1.2-.6.3-.2 0-.5.2-.7.7-.3 1.2-.6 1.8-.9.5-.3 1-.7 1.6-1.1 1-.8 2.1-1.6 3.7-2.2l.3-.7c1 .2 1-.1 2-.6 1.8-.9 4.1-1.2 4.4-2.2.8.5 1.3-.5 2.2-.6-.4-1.2.5-.3.6-1.2 0 .1-.7-.7-.1-.8.9.2 1-.4 1.6.2.2 1.2-1.4-.3-1.2 1 1.4-.2 1.8-.1 3-.5 0 .3-.3.6.3.5.8-.5-.6-.6-.4-1.3.8-.3.1-1.2.4-1.4.7.4.5.6.4 1.3.6-.1 1.3-.2 1.3.4-.7 0-1.3 0-1 .9.6.1.9-.5 1.5-.6.7-.1 1.6.7 1.8-.3-.7-.2-2.1.5-1.8-.8 1.2.2 2.4.2 3.7-.2-.7 1 1-.1 1.5.7.7-.2-.1-1.3.4-1.3 1.3-.2.5 1.2 1.7 1.1.9.1-.5-1.2.7-.7.5.5-.6 1 .2 1.4-.3 0-.6-.1-.6.4.4 0 1 .2 1.4.4.5.2.9.3 1.2.1-.3-1-1.9-.1-1.7-1.1 1.2.6 2 .5 2.5-.3 1.6.9 2.8 1.1 4.4 2.4-.1.2-.3.2-.5.3.6.2.9.5 1.1.9.3.3.5.6 1 .9-.3.3-.6.1-.9.3.4.3.8.6 1.1.9.3-.9.9-1.1 1.7-.3l-1 .9c.4.4 1 1.1 1.5 1.6.4.5.8 1.7 1.5 1.1-.2-.4-.6-.8-.9-1.2-.4-.4-.7-.8-.6-1.1 1 1 .8-.3.6-.9 1.3-.4.8.2 1.3 1.1.2.4.6.2.6.9l-.7.5c.3.7.4 1.4.6 2.1.8.5.4-1 .9-.5.5 1.4.3 2.2-.1 3-.1.2-.5-.1-.6 0l.3.9c.9-.3.5-1.1 1.2-1.6.2.8 1 .3 1 1.4-.5.1-.4-.8-1-.5-.4.7.6.6.7 1.5-.3.1-.4-.2-.8 0 .5.4.2 1.2.3 1.8.2.6.7 1.4.7 2.1 0 .7-1 1.3-.3 1.9.1-.3.5-.7.5-.3.1 1.1-1 .8-1 1.8l1.9-.4c-.1.8-.8.3-1.1.5-.2.1-.3.9-.9.5-.4 1.4.4 1.9-.1 3.2l-.7-.2c-.3.7-.5 1.1-.7 1.4-.2.3-.4.6-.9 1 .1.8 1.7.1 1.4 1.2-.2.6-.6.7-1.1.4 0-.5 1.1-.4.5-.9-.4.5-1.4.5-1.6-.2 0 1-1 1.3-.9 2 .2-.2.5 0 .8.2-.1.5-.5.9-.7 1.3-.3.4-.5.8-.3 1.4.2-.3.7.2.6.5-.2.3-.5.1-.7.5-.3-.5.1-.9-.6-.9-.6 1.5-2.3 1.4-3.1 3.3-.4-.6-.8-.8-1.2-.3-.3.2.1.5-.1.8-1.6 1.1-2.2 2.2-3.9 2.6.1.7-.9 1.3-1.7 2-.2.4-1.3.6-.9 1.1.8-.4 1.7-1.8 2.3-1.5-.2 1.2-2 2.2-3 2-.4.6-1.3 2.4-2.2 1.6.4-.4 2.3-1.5 1.4-1.4-.7.7-3.4 2.1-1.7 1.9-.9.5-1.5 2.1-2.4 2-.7-.6 2-1.6 1-1.6l-2.1 1.4.7.8c-1 0-1 1.8-2.2 1.2 0-1 1.8-.4 1.1-1.4-.5-.4-1.3.8-2 1 .3.6.9 1.3.3 1.7-.7.1-1.4.3-2 .3-.4-.6.8-.8.6-1.3-1 .6-2.2 1.2-2.3 2.1-.2-.2-.5-.3-.9 0 1.1 1.1-1.1 1.3-.7 2.2.6-.2 2.4-.6 1.9.7-1.3-.3-2.8-.2-4-.6.2-1.1 2 .1 1.8-1.4-.8.7-1.3.6-1.9.5 0 .5-.6.8-1.3 1.1-.7.3-1.5.6-1.8 1.2-.1.9 1.3-.1.6.6-.7.2-1.4.3-2 .2-.4.3-.6.7-1 1.1-.9.9-.4 0-1.3.4-1.1.3-.5 1.2-1.8 1.5.4-.9-.6-.4-1-.9-.7.1-.6 1.6-1.4 1 .4-1.1 1.8-1 2.3-1.7-.2 0-1.3-.1-.8-.5.3.5 1.1-.5 1.4-.1 0-.7-1.4-.3-.7-1.1.9-.7 1.2.3 2.1-.5.4-.2-.1-.7.5-.9.1.3-.2.7.4.3 1.3-.5-.1-1.8 1-2.3.3.7.6.3.4.9.7-.9 1.7-.7 2-1.4-.6-.4.8-2.1.3-3.2-.9-.2-.8.8-1.5 1.2-.5-.7-1.4 0-1.8-.8.7 0 .7.3 1.3-.4l-1.5-.7 1.2-.6c.1.9.7.6 1.2.2-.5-.8-1.5 0-2.2-.2.1.3-.2.5-.6.6.7 1-.2 1.5-.4 2.3-.4-.6-1.7-1.6-2.2-.3.7-.6 1.3.4.6.8-.5-.1-.8-.7-1.2-.8 0 .6-.6 1-.8 1.6.5.9 1.6.5 2.2 1.1-.3.7-1.4 1-1.5-.1-.6.2-.3.7-1.1.9-.2-.4-.3-.8-.2-1.1-.5 0-.5 1.1-1 .5.9-.2.2-.7-.1-.8.4-.2.8-.4.5-.8-1.3.3-1.6 1.3-1.9 1.6-.8.7-1.3.5-1.2 1.2-.3-1.1-2.5.1-2.8.8.3-.1.7-.4.8-.1-.4.7-1 .3-1.5.5-1.2.4-2.4 1-3.6 1.7-1.2.7-2.5 1.5-3.8 2.1-.4.2-1 .1-1.3.3-1.4.6-3.2 1.6-3.2 2.1-1.6-.3-3.2 1.5-3.9 1.8-.5.2-1 .1-1.6.3l-.9.6c-.3.1-.4-.2-.8 0-.1 0-.4.7-.6.7-.3.1-1.1.2-1.6.3-.4 0-.9-.2-1.4-.1-.6.1-1.2.8-2 .9-.3 0-.4-.1-.8 0l-.5.3c-.2.5-.4 1.1-.5 1.6l-.1.5-.1-.6-.3.1c.1-.3.2-.7.2-1.1l-.6.3-.9.3c0 .4.2.9-.3.9 0-.3.2-.7 0-.8l-.8 1.1h-.2c-.2-.3-.4-.3-.6.2h-.7v.2l-.9.2c.2-.4.5-.4.9-.4 0-.1 0-.3-.1-.4l-1 .3c0 .2-.1.4-.1.5l-.6.2-1.6.4c.3-1 .5-1.4.6-1.4zm16.9-23.6l.6.4c-.7.6-.3.7-.9 1-.4-.7.2-.6.3-1.4zm4.9-15.2c.6-.8 1.2-2.1 1.9-.9-.6.9-1.2 1.2-1.9.9zm2 5.9c.4-.2.4-.9.8-.3-1.1.3-1.1 1.4-2.1 1.7-.6-.9.7-1.1 1.3-1.4zm4.9-10.1c.7-.1.4 1.3-.3 1.9-1.4-.7.4-1.6.3-1.9zm1.9-4.9c-.8-.6.5-1.9.9-.9l-.9.9zm1.8 2.9c.4.5-.3.9-.7 1.5-.9-.6.4-1.1.7-1.5zm6.9-4.6c.1.5-.3.9-.8 1.3-.7-1 .2-.6.8-1.3zm10.3-5.6c.4.3.8.2 1 1-.3 0-.5-.7-.9-.2-.3-1.1-1.3-1.6-.1-2 .4.6-.2.7 0 1.2zm3-6.4c-1 .7-.9-.7-1.8-.3.1-.5.5-.8 1.2-.9-.3.7.5.3.6 1.2zm8.2 2.2h.8l-.4 1.3c-.4 0-.4-.6-.4-1.3zm11.1 6.6c.9-.6.8.5.6.7-.7.1.1-.7-.6-.7zm.9 1.5c.8-.3.7.6-.1.8-.1-.3.4-.5.1-.8zm-3.5 12c-.5.9-.3-.9-.9-.5-.2-.3.1-.4.3-.6l.6 1.1zm9.5-4.6c.2.5-.4 1.9-.6 2-.3-.8.2-1.1.6-2zm-34.4 29.2c-.3.4 0 1.1-.9 1.3-.1-.3-.2-.4-.4-.4-.2-.4 1-.5 1.3-.9zm3.7-2.3c-.9.6-.4-1.2-.4-1.5.6-.5.7.2 1.2-.1-.5.7-1.1 1.2-.8 1.6zm-56.9 38.7c-.1.2-.2.1-.3.1l.3-.1zm-71.5-27.2c-.7-.1-.3-1-.8-1.4.6 0 .7 1.1.8 1.4zm-1.5-5.4c.4-.4.4.4.2.5.1.3.3 0 .4.1.2.2.3 1.6.1 1.6-.3-.8-.6-.8-.9-1.5.3-.1.3-.3.2-.7zm45.9-69.7l-.1-.1c.9-.7.9-.5.1.1zm-4.6 4c-.7.5-1.3 1.1-1.4 1 .7-.6 1.5-1.3 1.4-1zm-5-1.1c.1.1.1.2-.1.4-.8.5-.5.1-.9.2.4-.3.5-.3 1-.6zm-4.1 9.8c.3-.3.4-.3.5-.3.6-.4.5-.8.8-.8.2.2-1.3 1.3-1.8 1.9l.5-.8zm-1.7-6.1c.1.1-.1.3-.6.7.2 0 .3-.1.3 0-.9.7-.7.3-.6.1l-.6.2c.4-.3.7-.4 1.5-1zm-2.4 1.7c.4-.1-.4.7-1 1.1-.4.3-1.3 1.1-1.2.7 1.1-.4 1.3-1.1 2.2-1.8zm-2.6 2.3c.2.2-.7.8-.9 1.3-1.1.6-.3-.6.9-1.3zm-9.2 18.8c0 .4-1 1.2-1.1.8.5-.6.7-.3 1.1-.8zm-15.4 15l.4.3c-.4.7-.6.7-.9.5l.5-.8zm-2.8 21.3v1.6c-.4-.1-.4-1.7 0-1.6zm2.7 12.3c-.2-.5 1.2.9 1.8 1.5.2.6-1.3-1.2-1.8-1.5zm2.8 3.4c.9.6.5 1 1 1.5-.6.1-1.2-1.2-1-1.5zm4.4 1.1c.6 0 1.1.7 1.6 1.1-.3 0-2.1-.5-1.6-1.1zm6.9 7c-.6-.2-1.2-.7-1.5-.9-.4-.3-.5-.1-.8-.3-.6-.3-1.3-1.1-1.8-1.5-.6-.4-.9-.3-1.3-.7-.5-.4-1.2-1.2-1.1-1.6l-1-.5c-.4-.4-.2-.3.1-.1.3.2.6.4.6.2 1.3 1 3 2.6 4.6 2.7.1.3.6.5.6.7.6-.1 1.4.3 2.4.9.2.3-.2.7.6.9-.3.5-.8.4-1.4.2zm32.1 5.9c-1.5 0-3.2.5-4.2.2.4-.6 1.1-.7 2.5-.7 0 0 0-.3.3-.2.1 0 0 .2.3.2.5 0 .7-.5 1.4-.4l1.9.7c-.3 1-1.4.2-2.2.2zm2.7.5c0-.2.3-.2.6-.2l-.5-1.3c1.6 0 1.4 1.4-.1 1.5zm10-1.7c-.3.1-.5.3-.5.7-1.5 0-3-.3-4.7-.2-1 .1-3.2 1.2-3-.4 3.1-.1 4.5-.4 7.4-.8.7 0 .8-.4 1.1-.8 1.1.1 2.2 0 3.3-.1l.2 1.1c-1.2.4-2.3.6-3.8.5zm4.4 10.4c.3-.2.9-.5 1.5-.5v.1l.5-.1c.1 0 .3 0 .4.1-.6.8-1.3.2-2.4.4z"/></g><path fill-rule="evenodd" clip-rule="evenodd" fill="#009640" d="M345.3 124c-.3 0-.2-.4-.6-.3v-.4c.2-.1.4.5.5.2.2 0 .1.3.1.5zm1.1 1.8l-.3-.3c-.2-.3.3-.2.3-.2.1-.2-.3-.8.3-.6.1.5-.1.8-.3 1.1zm-1.4-1.8v.7c-.5-.1-.6-.9 0-.7zm2.4 7.4c-.2-.3-.3-.2-.2-.7 0-.2-.5-.1-.6-.3v-1.3c.1-.4.2.2.2.4.4 0 .3-.5.8-.4 0-.2-.5-.1-.6-.3-.1-.8.5-.9 1-1.2-.2-.4-.2-.8.2-1 .3.6-.3 1.5-.5 2.1.2-.1.2-.3.5-.3-.1.5 0 1-.6 1-.4.7.5 1.2.5 1.8 0 0-.5.1-.3.3.4 0 .3-.4.9-.3-.3.4.2.6.2.9 0 .2-.3.4-.1.8-.2 0-.1-.2-.2-.3-.4-.4-1.5-.3-1.6-1l1.1.5c.2 0 .1-.2.1-.4-.4-.1-.5-.1-1.1-.2l.3-.1zm-2.3-4.7c-.6.1-.6-.5-.3-.7.4 0 .4.3.3.7zm0 2.9v-.3c-.1-.4.2-.4.3-.7.1-1.2 0 .2.3.4-.2.2-.1.6-.6.6zm-.3-2c-.1-.3.1-.4.2-.5.3.2.1.7.8.6-.1.2-.9 0-1-.1zm1.6-1.6c.1-.4.5 0 .3.3.4-.1 0-.9.3-1 .3.3-.1.5.1.9-.4 0-.3.4-.8.4 0-.3.6-.5.1-.6zm-.2-2.7c.7-.1.6 1.1 0 .9.1-.4.1-.6 0-.9zm26.1-73.7c.3.4.4-.2.5-.3.2.2 0 .7-.3.5-.1.2.3.4.3.6l-.6.7-.3-.3c-.1 0-.3.8-.5.2.1-.5.4-.3.7-.3.1-.3.2-.5.2-.8-.6-.2-.2.3-.4.6-.7-.1-1.1 1.9-1.9 2.3.7-1.6 1.9-3.5 2.9-4.8.3.5-.7 1.1-.6 1.6zm.7-4.4c-.4-.5.2-.7.2-1.1 0-.2 0-.2.3-.4.9.5-.5 1.4-.5 1.5zm-.9.6c0 .1.2.4.3.3.2-.2-.1-.4-.1-.3-.2-.5.4-.4.5-.8l.2.2c-.4.8-.5 1.9-.9 2.5-.2.3-.6.1-.6.7-.2 0-.2-.1-.3-.3-.4-.1-.6.3-.9.5-.5-.3.7-.7.2-.8-.2-.5.5 0 .7 0 0-.4.4-.1.4-.1.1-.1.1-.4.3-.4.1 0 .3.3.3 0 0-.1-.1-.1-.2-.2-.4-.1-.1.2-.5.3 0 0-.1-.3-.2-.3-.2.1-.2.7-.5.3.4-.8.8-1.1 1.3-1.6zm.2.5c-.2.2-.4-.1-.5.3.2.4.7 0 .5-.3zm-25.2 78.7c0-.5.6-.5.5-1.1.5.4.4.7 0 1 .4.3.7.9.1 1.2-.4.3.1-.3 0-.7 0-.2-.4-.2-.6-.4zm26.6-82.3c.2-.4 1.1-.5.7.2-.1-.7-.4.1-.7-.2zm.2 1.4l.3-.5c.5.1-.1.9-.3.5zm-28.7 78.7v.4h-.6v-.4c.3.2.2 0 .6 0zm24.5-74.1c-.3-.3.1-.6-.2-1 .5-.7.9-1.7 1.5-2-.1.8-.9 1.3-1.2 2-.1.4.1.6-.1 1zm-19.9 34.8c-.7-.7-.1-1.3.2-2.2.5.3-.1.6-.2 1 0 .5.2.8 0 1.2zm-3.2 49.4c0-.6-.7.2-.6-.4-.2.1-.2.3-.5.3-.1-.2.1-.4.1-.7 0-.2-.2-.8.3-.7.1.3 0 .5-.1.7 0 .3.5 0 .5 0 .3.1 0 .6.6.4-.4.6.4.7 0 1.2-.1-.1-.3-.1-.5-.1.2-.2-.1-.7.2-.7zm21.4-82.6c-.2-.4.1-.6.4-.6.1-.1-.1-.2-.2-.3.4-.1.2-.6.3-.8.1-.1.2-.6.5-.2-.4.3-.1.9-.2 1.2-.1.3-.5.2-.8.7zm37.2-38.7c.2.1-.5 1-.7.6.2-.1.2.1.4-.2.2-.2-.2-.1-.3 0l-.4.8c-.1-.2.1-.7.4-1 .3-.1.4 0 .6-.2zm-7.2 6c-.2.2-.4.7-.6.3.2-.1.3 0 .6-.3-.2-.2-.5.3-.6 0 .3-.2 1-.5.7-.6 0-.3.5-.4.6-.2-.1.1-.3.2-.3.3v.2c-.1.1-.3.1-.4.3zm1.9-.3c-.1.4-.8.8-1.2 1.2 0-.2.1-.4-.2-.6.2-.3.3.1.4.2.3-.1 0-.2 0-.4 0-.1.1-.3.2-.2 0-.1-.1-.2-.3-.2-.1 0-.1.2 0 .1-.1 0-.5 0-.6.3 0-.3.3-.6.5-.5.5-.4.3-.6.8-.8.1.2-.2.4-.4.6l.1.2c.3-.3.2-.5.6-.7.1-.1 0-.2-.1-.3.2-.3.3 0 .4-.2.2-.2 0-.4.4-.6.1.2-.1.5-.3.7-.2.4-.1.5 0 .8-.2.4-.2-.3-.5.1 0 .3.1.4.2.3zm3.8-5.4c.1-.2.2-.1.4-.2s.2-.3.3-.3c.3-.2.5-.1.7-.3-.1.5-.7.4-.9.8-.2-.1-.3 0-.5 0zm-1.1 1.2c-.1-.1.3-.5.4-.4.2-.2.2-.5.6-.7-.4.4 0 .4.4.1-.2.6-.8.5-1.2 1.1-.1-.1-.1-.2-.2-.1zm-7.3 7l.2-.2c.1.2.2.5 0 .7l-.2-.5zm.8.9c.2-.1.3.1.5-.3 0-.1 0-.3.1-.4.1.1.1.2.2.1-.1.4-.5 1-.8.6zm.9-.6c-.1-.4.4-.4.7-.8-.4-.2.6-.5.7-.9.3.2-.3.6-.5.8-.3.4-.6.8-.9.9zm-.4-.2c0-.1.1-.2.1-.2-.1-.1-.2-.1-.3-.1-.1-.1.4-.5 0-.4-.2-.3.3-.2.4-.2.1-.1.2-.3.3-.3l.2.1c.2-.1.3-.3.3-.1.2-.1.4-.5.4-.2-.3.1-.5.4-.8.6-.2.1-.6-.2-.6.3.2 0 .6-.5.7-.1-.3.4-.5 0-.7.6zm8.3-9.1c-.1 0-.2 0-.1-.1.3-.3 1.3-.9 1.9-1.4.3-.3.4-.2 0 .1-.5.5-1.2 1.1-1.8 1.4zm-8.5 7.6c.1-.3-.2-.5.2-.7-.2.3.5.2.1.5.2.1.4-.4.5 0l-1.3.9-.3-.2.8-.5zm-.4-.8c-.4.1.6-.5.5-.7l.6-.5c-.3.3-.6.9-.8 1 .3-.3 0-.1-.3.2zm6.7-4.2c.2-.1.1-.3.2-.3.2-.2.2.1.5-.1-.1.4.2.3-.1.7-.2-.1 0-.3-.1-.4-.2.2-.4.6-.1.5 0 .1-.1.1-.1.1l-.2.1-.1-.6c-.3.4-.3.6-.7.8-.1-.2 0-.4.1-.6.3-.2.4-.1.6-.2zm10.4-8.4c-.2 0 .7-.5 1-.7-.1.3-.6.4-1 .7zm-3.2 3.3c.2 0 .4-.2.7-.5 0 .2-.5.6-.6.5l-.4.5c.3-.1.8-.7.9-.8 0 0 .1.1 0 .1.2-.2.2-.3.3-.4.1-.1.2-.1.3-.1.2-.2.4-.4.6-.5.3-.3.1.2.4-.2.1-.1 0-.1-.1 0 0-.1.5-.4.7-.6l-.4.4h.1c.2-.2.2-.3.4-.4 0 .2.7-.4.9-.6-.1.2-.3.3-.5.5l.4-.2c-.2.3-1.2 1.2-1.7 1.6-.1.1-.2.1-.2.1l-.1.2c-.2.2-.2 0-.2.1l-.2.3-.7.5-1.1 1c-.3.3-.7.5-1.1.7-.1.1-.2.2-.2.3-.5.5-1.2.8-1.6 1.4l-.3.1c0-.2.5-.4.3-.6-.2.3-.4.6-.5.9-.5.2-1.1 1-1.7 1.4-.2.2-.3 0-.4.1-.3.1-.5.4-.7.3-.1-.3.4-.5.6-.7l.8-.7c.1-.1.1-.2.1-.2.1 0 .3-.1.3-.1l.4-.4c.3-.3.4-.3.6-.6.1.1-.2.5.2.3.1-.1-.1 0-.1-.2.2-.2.4-.5.4-.6.7-.5 1.1-.9 1.7-1.2.3-.3.5-.6.5-.9.2-.1.5-.3.8-.6l.1.2c.3-.2.4-.3.3-.4zm-3 2.7h.2c-.1-.2-.3.1-.6.3.1 0 .2.2.4.2.1-.3-.2-.2 0-.5zm.7-.4c-.3.2-.1.3-.3.5 0-.1-.2.1-.2.1l.5-.2c-.2-.1.1-.3 0-.4zm.6-.4c-.1-.1-.4.1-.6.2l.2.2c.2-.2.1-.3.4-.4zm3.8-2.9h.1c.2-.2.4-.4.4-.5-.3.2-.4.4-.5.5zm-2.6 2.1c-.2.3-.9.6-.7.6.1-.1.9-.7.7-.6zm.1-.6c-.2-.2-.9.7-.9.9.5-.3.3-.5.9-.9zm-35.1 33.1v-.8c.3.3 0 .6.5.9-.1.2-.3.1-.5-.1zm47.8-42.2c-.7.4-.5.3-.8.5-.3.1.5-.4.8-.5zm-16.8 11.5c.3-.3.3 0 .5-.2 0 .3-.5.3-.5.5-.3.2.2-.2 0-.3zm.9 0c.1.1-.1.2-.1.3-.3.1-.4.2-.6.5 0-.3.3-.4.7-.8zm1.3-2.5l.4-.3c0 .1-.1.1 0 .2l.2-.1c.1-.1 0-.2-.1-.1 0-.2.4-.2.5-.3l-.2-.1c.3 0 .5-.2 1-.5 0 .1-.4.3-.3.4l-.3.1c-.1 0 0 .2 0 .2-.2.1-.4.2-.8.6-.1-.2-.4 0-.4-.1zm-61.3 126.3c-.5.1-.6-.4-.4-.6.4 0 .4.3.4.6zm61-125.4c.4-.3.8-.3.8-.7.3-.3.3-.1.6-.3.4-.2.4-.5.7-.6 0 .1-.3.4-.6.7-.6.3-1.3 1-1.5.9zm-.2.2c.2.5-.7.6-1 1.1 0-.3 0-.1-.3 0 .2-.6 1-.6 1.3-1.1zm.9-.2c.2-.1.2-.2.3-.3.3.1-.3.3-.3.3-.4.4-.8.6-1.3 1.1-.2 0 1.1-.9 1.3-1.1zm13.7-9.8c-.3.1-.4.1-.9.3-.1 0-.3.1-.5.2s-.6.2-.9.3c-.3.1-.4.1-.6.2-1.5.5-2.4 1-3.4 1.3l.3-.2c-.1 0-.3.1-.5.2-.1 0-.7.1-.9.2.3 0 .7-.1 1-.2l-1.2.5.2-.2c-.2 0-.5.2-.6.2.1.1.4-.1.4.1l-.5.2c.6-.3-.2-.1-.5.1 0 .1.2-.1.3-.1.3-.1-.6.3-.8.4-.1 0-.2.1-.2 0-.3.2-.8.3-1.2.4.5-.3 1.1-.6 1.1-.8h.2c.3-.2-.1 0-.1-.1.4-.1.5-.2.8-.4.1 0-.2.1-.4.2 0 .2.8-.2.8-.3.3-.1.3 0 .6-.2l.3-.2c0-.1-.3.1-.3.1-.1 0-.2 0-.3.1-.2.1-.4.2-.8.3.9-.4 1.9-.8 2.8-1.1-.1.1-.1.2.1.2l.6-.2c.3-.1-.3.1-.1-.1l.5-.2c-.1-.1-.4 0-.8.2.2-.2 1.1-.4 1.6-.6-.1 0-.1.1-.1.1.3-.1.3-.1.5-.2h-.2c.4-.2 1.3-.4 1.9-.5h.1l.2-.1s.5-.1.7-.1c.4.1.4.1.8 0zm-7.5 2.6c0-.1-.8.2-.8.3.3 0 .4-.1.8-.3zm1.9-.7c-.3.1-.5.1-.4-.1-.6.2-.1.2-.3.2-.2 0-1 .3-.9.4.3-.1.2-.1.4-.2.5-.1.9-.1 1.2-.3zm2.1-.9c-.4.1-.5.2-.7.3-.1.1-.7.2-.5.2l.5-.2c.1-.1.5-.2.7-.3zm-.1.1c0 .1.2 0 .4-.1.1 0-.2 0-.4.1zm.7-.3c-.3.1-.3.1-.4.2.1-.1.2-.1.4-.2zm.3-.1c-.1 0-.3.2.1 0 .2 0 .2-.1-.1 0zm1.5-.4h-.1s.1 0 .4-.1c.1 0-.3.1-.3.1zm-40.9 34.6c-.3.1-.5.8-.9.5.3-.5.6-.4.8-.8.2.1 0 .2.1.3zm-.5-.1c-.4.1-.1-.8.3-.7 0 .3-.6.3-.3.7zm2.3-3.1c.1.2 0 1.4-.7 1.3-.1.2-.1.5-.3.7-.1-.1-.1-.1 0-.2-.1-.1-.1 0-.2 0-.2-.7 1.4-.8.7-1.4.2-.4.3-.2.5-.4zm-2.7 4.1l-.5 1.1c-.4-.4.2-.8.1-1.2.2-.1.8-.2.8.3l.3-.4c.3.4-.1.7-.3.8-.5-.2-.3-.4-.4-.6zm2.5-2c-.6.5-.7.8-1.3 1.4-.3-.5-.2-1 .2-1.5.5.2-.3.4 0 .6.5.1.5-.8 1.1-.5zm17-17.9l-.1-.2c0-.3.4-.3.5-.1l-.4.3zm-20.4 21.8c.1-.3.5-.3.7-.9.2.2-.3.5.1.7-.3.1-.5.6-.8.2zm-3.9 2.8c-.2-.3.4-1.3.9-1.2.4.3-.1.2-.2.3-.2.1-.4.7-.7.9zm8-7.8v-1.2c.2.3.1.6.4.9-.3.4-.4 1-.9.7.3-.1.3-1 .5-.4zm-6.9 5.8c-.1-.4.6-.9.8-1.3-.1.6-.3 1.1-.8 1.3zm1.7-.2c.4-.1.2-.3.5-.5.2.2-.2.4 0 .7-.1 0-.3 0-.5-.2zm-1.5 2.8c-.2-.3-.4-.2-.6.1-.3-.6.6-.7.6-1.3.2 0 .4.2.6.1.1-.3-.3-.1-.4-.4.1 0 .3-.1.4-.3.2.1.1.6.4.4.1.2 0 .8-.3.7-.1.2.2.4-.1.6-.2-.1-.1-.3 0-.5-.1-.2-.2-.1-.4-.2-.1.5.3 1-.1 1.5-.3-.7-.3 0-.4.3-.2-.1-.1-.3-.3-.5.2-.4.4-.2.6-.5zm1.2-5c.4 0 .5-.6.8-.9l.4-.3.2-.5c.6-.7 1.4-1.6 2.1-2.6.5.5-.4.8-.5 1-.2.3-.1.7-.4.7-.1.1.1.3.2.2.1.3-.4.3-.6.1-.5.9-1.1 1.3-1.4 2.1-.3.2-.5.4-.8.2zm22.5-21c-.3 0 .4-.7.6-.7l-.6.7zm2.1.7c-.2.1-.4.1-.6.3-.2-.2.6-.4.6-.3 0-.1.3-.5.6-.7.2-.2.5-.3.7-.6.1.1.2 0 .4-.2-.2.4-.6.5-1 .8-.3.3-.5.6-.7.7zm-1.6-.5v.5c-.1.1-.3.1-.3.1.1-.3-.1-.4.3-.6zm-.3.5c-.3.2.4.4 0 .6-.2-.1.1-.5-.2-.3-.1-.2.1-.4.2-.3zm1.1.8c.2-.3.5-.1.5-.4.3-.2-.5 1-.5.4zm-16.3 9.5c.3-.4.4-.2.6-.6.4.5-.6.4 0 .8-.3.4-.4-.1-.6-.2zm9.3-9c.3-.6 1.1-.9 1.6-1.3.4-.3.5-.8.8-.9.2.2-.3.4-.4.6-.1.2-.2.4-.4.5l-.2.1c-.1.1-.2.5-.5.3-.4.5-.4.5-.9.7zm8-2c0 .2-.2.3-.3.5-.3-.2.1-.5.3-.5zm.2-1.7c.2 0 .4-.1.6-.2 0 .7-.9 1.1-1.5 1.6-.1.1 0 .2 0 .3-.4 0-.5.4-.7.7-.2.3-.3 0-.6.2.2-.4.7-.4.9-.9.1-.2-.1-.4.2-.7.1.1 0 .2 0 .3.7-.5 1.5-.7 1.1-1.3zm-2.5-.1c-.1-.3.3-.6.7-.8 0-.2.6-.8.8-.5-.5.4-1.1 1.1-1.5 1.3zm-28.1 178.2c-.5-.3-1.1-1.1-1.6-1.5.6.3 1.2.9 1.6 1.5zm6.7-137.5c-.3-.4.1-.5.2-.7.3.3 0 .5-.2.7zm-.2-1.2l-.5.9c-.3-.2.2-1.3.5-.9zm1.1 1c.3.3 0 .4-.2.6-.3-.2 0-.6.2-.6zm-4.6 5.2c.2.2-.2.5-.2.8-.4-.4.1-.5.2-.8zm5.7-4.6c.2-.8.6-1 .9-1.6l.6.1c-.3.2-.4.6-.6.8l-.2-.2c-.1 0-.1.4-.3.5 0 .2.2.1.4.5-.5-.1-.3.5-.7.7 0 .1.1.1.1.1.3.4-.3.2-.3.3l-.3-.7c-.2-.4.4-.4.6.1-.1-.2.1-.4-.2-.6zm-1.2-3.9c.4.4-.3.9-.4 1.3-.4-.6.4-.7.4-1.3zm-3.6 11.4c-.3-.2-.5-.1-.6 0 0 .2.1.3.3.5-.2.2-.4.2-.5.6-.2-.5-.4-.3-.5-.7.4-.3.1.1.5.3.1-.4-.4-.7.1-1.2.7.5.4 0 .7-.4.5.4.4.8.2 1.2-.3-.1-.2-.2-.2-.3zm5-9.7c-.2-.3.4-.4.5-.9.4.3-.3.7-.5.9zm1 2.2c.2.2-.1.4-.2.6-.3-.4 0-.6.2-.6zm-6.7 9.6c.1.3.3.6.1.9-.3-.3-.1-.6-.1-.9zm-1.4 2.8c.1 0 .2-.1.3-.2.1.3.3.6.1.9-.3-.3-.2-.5-.4-.7zm5.9-16.7l1.9-3c.3-.2-.1.4-.2.7-.4.7-1.1 1.8-1.6 2.7-.2-.1-.1-.2-.1-.4zm-7.4 21.2c-.1.5-.5.2-.8-.1.1-.3.5.1.8.1zm-.2 5.7c-.1.3-.2.4-.6.2.1-.3.2-.4.6-.2zm1.4-4.2c0 .8-.4 1.5-1 2-.2.3.3.5 0 .8l-.2-.3c-.4.5-.1.9-.2 1.3-.6-.5-.8-.1-1 .1-.6-.6.4-1 .7-1-.5-.4-.8-1.1-.5-1.3.4.2 0 .5.2.7.5.1.1-.4 0-.5.2 0 0-.6.3-.6l.3.2c.1-.1-.1-.4-.1-.6 0-.2.2-.1.2-.1.1-.1-.2-.5.2-.5l.2-.1c.4-.2.7.5.9-.1zm-.5.2c-.1.5-1.1.4-.1 1 .1-.3.5-.7.1-1zm.6-10.7c-.4-.3.1-.6.2-.8.2.2-.2.5-.2.8zm.5.6c-.2-.4.4-.9.5-1.3.1.4-.4.9-.5 1.3zm-6.9 14.1c.4.5-.1.5-.2 1-.3.1.1-.8.2-1zm1.5-3.7c.1.5-.2 1-.5 1.6-.2.5-.9 2.2-.7 1.2l1.2-2.8zm-15.9 36.1c-.8.2.1-1-.1-1.4.3.3.5.9 0 1 0 .2-.1.4.1.4zm-.7 1.8c.2-.4.4-.9.4-1.5.3.4.2 1.5-.4 1.5zm-1.4.6c-.1.3-.5-.1-.6-.1 0-.3.3-.3.4-.6.3.2-.5.6.2.7zm31.5-65.3c0-.4.6-1.3.9-1.4 0 .6-.7 1.1-.9 1.4zm-11.5 30.2c1.2.7.9 1.6.1 2 0 .2.2.1.3 0 .3.5-.4.6-.6.8 0 .1.2.1.1.1.1.3-.2 1-.6 1.1.2.3-.2.6.4.8-.6.2-.5.8-.7 1.4-.3.2-.8-.1-.9.3.2.4.5-.5.9.2 0 .2-.1.3-.4.2-.2.8-.7 1.6-.6 2.3-.1.2-.2.3-.5.1.5.4.3 1-.1 1.4.4.3.1.7.2 1.1-.3-.1-.2-.3-.2-.5-.5.1 0 .8-.4.9 0 .1.1.1.1.1.5.4-.2.1-.2.3 0 0-.1.5-.2.5-.1.2-.1.4-.2.5-.1.1-.4.2-.4.2 0 .1.3.4.3.6l-.2.3.1.3c-.2.4-.6.6-.4.9 0 0 .2-.1.2-.2.1.6-.4 1-.6 1.4v.6c0 .1-.3.2-.3.4s.2.1.3.2l-.2.8c-.3-.1-.3-.3-.2-.6-.3.4-.5-.4-1-.2l.1.3c0 .4.4 0 .6.2.2.2-.1.2-.1.4l.2.4c0 .1-.6.3 0 .5 0 .3-.3.1-.4.2-.1.2.1.2.3.3-.4.4-.6.7-.3 1.3-.2.2-.5.4-.7.7.3.1.3 0 .4-.1.2.3-.1.4 0 .8 0 .2.5.2.6.4-.3.3.3.6.3.8 0 .1-.2.3-.1.5.1.9-.4 2.3-.7 3.5-.1.2.3.7-.3.7-.1.2.3.2.3.4-.3 1.3-.2 2.2-.9 3-.4-.5.4-.8.1-1.4-.5-.3-.4.3-.4.6 0 .1-.2.3-.2.3 0 .3.3.5.2.6-.4.5-.6 1.2-.1 1.7-.4 1 0 1.8-.7 2.4.5.7-.1 1.9-.3 2.7.6.3 0 1.1 0 1.9-.1.6.2 1.2.2 1.7-.1.7-.2 1.4-.2 2 0 .6-.5 1.2 0 1.7-.5.3-.1.5-.1.9 0 .2-.2.2-.2.3-.1.6.2 1.4.2 2.1 0 .4-.2.8-.2 1.1 0 .2.3.4.3.7l-.2.8c0 .4.4.7.1 1.1 0 .1.2.1.3.1-.1.3-.2.5-.2.9-.4.4-.9.6-.8 1.3-.5.2-.8-.4-1.6-.3-.4.2 0 .6 0 .8.1.2.2 0 .6.1.1.4-.6.3-.6.6-.2.4.4.3.3.7l-.6.2c-.1.4.2.4.2.8-.2.1-.3-.1-.5-.1.1.4.3.8-.1 1 0 .1.2 0 .2 0 .2.3.2 1.1-.1 1.4.1.2.5 0 .2.3.1.3.3.5.7.6l-.6.4c.1.1.2.2.2.3.4 0 .4-.3.9-.2 0 .3-.1.2-.3.2-.1.3.3.3.2.5-.1.3-1.2.8-.2.8.2-.1.2-.4 0-.3.1-.2.6-.2.9-.4.1.3.3.5.2.9-.3 0 0-.6-.5-.5-.3.5.1 1.3.6 1.4-.1.4.2 1-.5 1.1-.1.4.4.3.4.6-.1.2-.2 0-.2-.2-.5.1-.5.8-1.2.6-.2.2-.1.7.1.8.2-.1.2-.4.2-.6.2.1.8-.3.9.2 0 .5-.2-.1-.6.1.1.4.6.4.1.7.1.3.3-.2.6-.1-.2.3 0 .8 0 1.2-.2.3-.6-.1-.7.4 0 .2.2.3.3.3l.2-.4c.5-.2.3.3.4.5.5-.2 0-.5 0-.8.8 0 .3.7.5 1.3l-.5-.1c.4.7-.3.8-.6 1.2l.2.2c.4-.3.7-.7 1.2-.9-.1.3-.2.5-.7.6 0 .4.3.4.5.4-.1.2-.3.3-.5.4.1.3.3 0 .2.6 0 .2 0 .5-.2.5.2.4.4-.2.8 0l-.1-.3c.3 0 .3.8-.3.8l.1 1.2c.2-.4.1-1.3.7-1.1l-.3.7.2.2c.3-.1.3-.2.5-.3 0-.2-.2-.3-.2-.4.3-.3.4.6.2.9l-.6.1c.3.3.4 1.1 0 1.4.3.1.4-.3.6-.5.5.5-.5 1.4.1 1.9.2.3-.4.3-.1.6 0 .4.4.1.5.3-.2.6.2.9-.1 1.4.1.1.3 0 .4.2l.6.1c.1-.2.2-.2.3 0-.4.2-.9 0-.9.5.1.3.2-.2.5-.2 0 .5.4.6.5.9.1.4-.3.9-.1 1.4 0 .3.6-.3.5.1.2.3-.1.1-.2.2s.1.4-.3.5c.3.4.5-.1.9-.1-.1.4.1.9.4 1.2-.2.4-.4.2-.7.2-.2.3.2.7.5 1-.5.1-.5.4-.8.1-.2.1 0 .3 0 .5.1.2.5-.2.8-.3.1.3.5 0 .6.4.1.1.3 0 .4-.1.1.8.5 1.3.5 1.9 0 .1.2 0 .3 0 .1.5.4.7.4 1l-.2.1c-.1.1.2.4.2.5.1.1.3-.1.3.1l.4-.5c.5.3-.6.7.1 1l-.4.1c0 .4.6.3.3.7.1.1.2 0 .4-.1 0 .7.4 1 .8 1.4-.2.1-.2-.3-.4-.1-.3.4.9.8.5.2.3-.1.3.5.4.6l-.4.4c.1.1.1 0 .1-.1.5 0 .1 1.2.7.9.2.3-.2.5.1.7.2-.1.1-.3.1-.4.3-.1.3.6.2.8.1.1.3-.4.4.1.1.2-.1.3-.2.4.1.4.5.4.8.7v.3c.1.1.2.1.2.1.1.3.3.7.6 1l.4.7c.1.3.5.2.4.7 0 .1 0 .4.1.5l.2-.1s0 1.1.5.7c.2.3.4.5.8 1l.3.3v.4c.2.3.4 0 .3.5h.4c.9 1.3 1.8 2.5 2.8 3.4 0 .1 0 .3-.1.4 1 .4 1.5 1.3 2.3 2 .2.2.3-.3.5.1-.2.2-.2.4-.1.7.2-.2-.1-.4.2-.6.2.2.3.4.2.6.1.1.3 0 .4-.2.5.5.6.8 1.1 1.5-.4.1-.5.2-.8.7.1.2.2 0 .3-.1.2.3 0 .5-.1.8.5.2.6.9 1 .8.2.1 0 .3.1.4h.3c.3.2.2.4.5.7-.1.2-.1.4.2.6.3-.1-.5-.8 0-.4l.3.3c.2.1.3.1.4.1.1.1.1.2.3.4.6.6 1.4 1.2 1.7 1.6.1.1.1-.1.2-.1.3.5 1 1 1.5 1.1l.4.4.3.1.1.3.4.3c.2.1.3.1.5.4l-.3-.4.8.6c-.3 0 .1.4-.3.3l.4.3c.2-.1-.1-.4.1-.3.3.3-.1.1.1.3.1.2.2-.1.3-.1.1 0 .4.5.4.2.5.4.8.7 1.1 1.1-.1.2.1.4-.2.4.3.4 1.1 1.1 1.5 1.2h.1c.7.5 1.5 1.3 1.9 1.5.4.3.9.8 1 .6l.7.5c.2.1.4.3.5.4.1.1.2.1.3.1l1.2.8c.3.2.9.6 1.4.9l.9.5 1 .7c-.1 0 .1.2 0 .3-.3-.3-.2 0-.5-.2.1.1.3.2.6.4-.3-.1-.4.1 0 .4l.3.1c.2.1.7.4 1.1.6.4.2.5.2.9.5.2 0 1.2.7 1.9 1 .1.1.4.2.5.2l1.7 1c-.1 0 .2.2.3.2.5.3.6.4 1.1.6l.3.2c-.4-.2.2.1.3.1-.1-.1-.2-.1-.3-.1.2.1.3.1.4.2-.2-.1-.2-.1-.3-.1 0 0 .1 0 .2.1 0 0-.1-.1-.2-.1s-.1 0-.2-.1h-.1s-.1 0-.2-.1c-.2-.1-.3-.1-.4-.1-.4-.1-.4-.1-.7-.2h-.1c-.5-.2-1.5-.5-1.8-.7l-.8-.3c-.1.1.3.3.3.4-.7-.2 0 .1-.3.1l-.4-.1s.2.1.1.1c-.6-.2-.7-.2-1.1-.4 0-.1-.2-.1-.4-.2-.4-.1 0 .1-.2 0l-.4-.1v-.1c-.4-.1-.7-.3-.8-.2 0 0 .6.1.5.2-1.1-.3-2.1-.7-3.2-1.1h-.3c0 .1.1.2 0 .3-.5-.1-.5 0-1.1-.3-.1.1.2.1.4.2.3.1-.2 0-.3-.1-.7-.3-2-.6-2.1-.9-.2 0-.4.1-.9-.2.1-.1.3.1.3 0l-.1-.1c-.3-.1-.5-.1-.6 0l-1.9-.8c.6.1-.4-.3-.5-.2-.6-.3-1.4-.7-1.9-.9-1.5-.6-3.2-1.9-4.5-2.2-.2-.1 0-.1.1-.2-.1-.1-.2-.1-.2-.2l-.6-.2-.5-.5c-.2-.1-.3 0-.6-.2-.2-.1-.3-.3-.2-.4-.3 0-.4.2-.8-.2h.3l-.6-.5-.1-.3c-.7-.5-1.5-.9-1.9-1.2-.1 0-.2 0-.3.1-.2-.5-1-.8-1.5-1.1l.1-.2c-.2-.1-.5-.3-.7-.2-.2-.3.2-.1.3-.2-.3-.3-.5-.2-.8-.3-.3-.4-.9-.8-1.4-.9-.1-.2-.1-.3-.3-.5-.8-.3-1.5-.8-2.3-1.4-.7-.6-1.5-1.2-2.1-2-.3-.1-.5-.3-.8-.3-.3-.4-.5-.8-.9-1.2l.3-.3c-.4-.2-1.2-.3-1.2-1 .3-.1.4.5.6.6.3.1.5-.2.8.2 0-.2 0-.3-.2-.5.4.1.6-.4.8-.4.6-.1.8.6 1.4.9.1.2.3.4.1.6l.5.2c.1-.2 0-.3-.2-.5.3 0 .8.7 1 1-.3.2-.2.2-.2.5.2.2.5 0 .6.4.1-.1.1-.1.2-.1.2-.3-.8-.5-.4-.8.4.3.8.7.9 1 .4.2.2-.3.5-.3-.2-.3-.6-.3-.7-.6.1-.1.3-.2.4-.2 0-.2 0-.3-.1-.5-.4-.1 0 .4-.2.5-.1-.2-.2 0-.4.1-.3-.2-.2-.4-.4-.6.1-.1.3.1.4.2.2-.5-.5-.4-.7-.4-.3-.3-.2-.6-.3-.9-.2-.1-.4.4-.6 0-.1-.2 0-.5.1-.7-.2 0-.3.2-.5.1-.8-.7-1.7-1.9-2.6-3-.1-.2-.3.1-.5 0-.1.2 0 .4.1.5-.5 0-.4.6-.5.9l-.2-.2-.2-.2c.3-.1.5-.4.2-.8-.3.2.2.4-.2.6-.1-.6-.4-.7-.9-.8 0 .3.3.3.5.5.3.4.2.8.4 1.2-.2 0-.7.1-.5.5-.4-.2-.7-.3-1.1-.4-.3-.2 0-.4-.2-.5l-.7-.7-.1-.4c-.3-.3-.6-.5-.8-.8-.4-.6-1.4-1.8-1.9-2.4-.1-.2-.1-.7-.5-.5-.3-.2 0-.4-.1-.6-.1-.2-.2-.1-.3 0-.3-.3.2-.4 0-.6-.2-.4-.6-.4-.6-.8-.1-.1-.2.1-.4.1 0-.5-.3-1-.7-1.5h-.4c-.4-.6-1-1.6-1.7-2.8-.7-1.1-1.4-2.4-2-3.4-.2-.3-.5-.4-.7-.8-.5-.7-.6-1.5-1.1-2 .2.7-.1.6-.5 0 .2.4-1.1-2.4-1.5-3.4-.1-.2 0-.3 0-.4-.1-.2-.4-.5-.5-.8-.1-.3-.1-.5-.1-.7-.1-.3-.6-.3-.7-1 0-.1.1-.5.1-.5l-.6-.4c0-.1.1-.3 0-.4-.1-.3-.5-.5-.6-.9-.1-.3-.5-1.7-.7-2.1-.1-.1-.4 0-.4-.3.2-.1.3 0 .4 0-.1-.2-.2-.2-.3-.5-.2 0-.2.1-.2.2-.4.1-.1-.4.2-.4-.3-.2-.3-.4-.4-.7 0-.1-.5-.6-.5-.8l-.1-.8-.8-2.4c-.1-.3-.5-.6-.5-.9-.1-.2.1-.3 0-.4 0-.4-.3-.7-.4-1 0-.3.1-.5.1-.7v-.8c0-.1-.4-.3-.4-.3-.1-.2.1-.3.1-.4l-.3-.5c-.1-.3.1-.6 0-.8-.1-.4-.9-1.3-.5-2.1-.3-.1-.6-1-.8-1.8l.1-.7c-.3-1.4-.9-2.8-.8-4 0-.3.4-.5.1-.8-.2 0-.1.3-.1.4-.3-.3-.5-1.5.2-1.5-.4-.1-.2-.3-.4-.8-.1-.2-.6-.5-.4-1.2.3-.1.3.2.3.4.1-.1.5-.4.5.1.5-.1-.2-.3 0-.5.1.1.4.1.6.1.1-.4-.2-.3-.2-.6.6.1.7-.5.4-.7-.5.2-.5.8-1.2.9-.2-.2-.3-.5-.7-.6l.8-.4c-.1-.4-.8-.3-.6.2-.6-.4.3-.9.7-1-.4-.2-.4-.8-1.1-.6 0-.2 0-.4-.2-.4.3-.3.2-.9.7-1 .1.3.1.7-.4.5v.7c.6.1.1-.6.8-.6.2.4.1.3-.1.7l.9-.7c0-.4-.6-.6-.2-.9.7 0 1.2.9 1.6.7.3.3-.1.7.2 1.2-.3-.2-.2 0-.6 0 0 .6 1.1.2 1 .9 0 .3-.1.2-.3.1-.1.3.3.2.3.4.2.6-.4.5-.3 1.1.3.4.4-.3.8-.2-.3.1.1.6-.3.7.1.3.4-.2.4-.3.3.3-.1.9.4 1.2.5-.3-.3-.4-.2-.7.4-.1.4-.6.8-.3.1-.6-.5-.5-.4-1 0-.4.4-.1.1-.6-.1-.2-.3-.4-.3-.6.2-.3.3-.6.4-.9-.2-.4 0 .4-.5.1-.5-.5.2-1.6-.4-1.8.2-.2.4-.4.3-.9.8.2-.3.7.2 1 .6-.5 1-1.1 1.6-1.5-.5-.4-.8.3-.9.6-.6 0-.1-1-1-.7 0-.2.1-.3.3-.4-.4-.2-.3-.8-.3-1.4.3 0 0 .6.5.5l.5-.9c0-.3-.5-.3-1-.3.1-.3-.2-.9.2-1 .7 0-.2.6.3.8.7-.3-.2-.7.2-1.1l-.6.1v-1.1c.4-.4-.1.9.5.8.4-.3-.2-.9-.1-1.4-.5.7-.2-.7-.3-1.2.3-.3.1.7.1.9.7-.2.2-1 0-1.3.4-.3.8-1.2.2-1.6-.4.1-.1.9-.2 1.2-.3 0 0-.5-.1-.6 0-.5.1-1-.3-1.2.5-.7.2-1.2.4-2.1 0-.1-.3-.1-.3-.3 0-.3.3-.4.7-.3-.4-.9.4-1.3.2-2.1.3-.2.3.1.6.2l.2-.4c0-.2-.5-.2-.5-.1-.6-.4-.2-.9-.3-1.4-.2 0-.5-.1-.5.1-.3-.3.2-.7 0-1.2.3.3.9.2 1-.1.5.2-.2.2-.1.5.3.1.5 0 .5-.3-.1-.6-.8-.1-1.1-.4.4-.5.4-.6.5-1.3l.5.1c.1-.6-.5-.9-.3-1.6.4.3.4-.1.5-.2.2 0 .7.2.7-.1-.3-.5-.5.4-1.2 0 0-.5.7-.2.6-.8 0-.2-.3-.1-.3.1-.4-.3.2-.5.3-.8.1-.3-.2-.7-.2-1.1 0-.3.3-.6.1-.9.3 0 .3.2.5.2.1-.4-.4-.6 0-.8.4 0 .1.4.4.5.3-.4-.3-.4-.2-.8-.4 0-.5.4-1 .3l.1-.5.3.2c.4-.2.8-.4 1-1-.1-.4-.4.3-.6-.2.1-.3.3-.6.5-.9l.5.1c.3-.2 0-.3.1-.5.2-.4.6-.3 0-.8-.2.2-.7.7-.7 0-.4.1-.2.9-.4 1.3-.6-.1-.2-.6-.2-.9 0-.4.2-.8.2-1.1l.8.2c.1-.5-.2-.7-.7-.7l.2-.7.4.4.4-1.3c.1.1.1.2.3.2.4-.9.3-1.5.7-2.2-.5-.3-.6-.7-.4-1.3-.6-.2 0 .7-.5.9-.3-.3.2-.9.2-1.4.3 0 .3.2.3.3.3-.4.6.2.8 0 .3-.5-.4 0-.4-.4-.1-.6.8 0 .7-.7 0-.2-.6 0-.7-.4.5-.2-.1-1.1.5-.6-.1-.7 0-1.2.3-1.7-.7-.4-.5.4-.7.7-.6-.3.1-.5.1-.9 0-.3-.3-.6-.1-.8.5.1.5.3.3.6.3.1.4-.2.5-.5.4.2.5.4.8.2 0-.2-.7-.1-.7-.5-.4-.3-.7.3-.8-.2.1-.3.2-.1.3 0 0-.7.1-.8.4-1.4.8.3-.4.5.3.8.5-.1.2-.3.5-.6.1-.3-.5-.2-.5-.2-.5-.3.2-.4-.5-.6.2-.4-.2-.9.3-1.1-.4-.5.2-1.4.4-2.4.1-.5 0-.6.5-.9 0-.1-.3-.2-.2-.4.6-1.4.4-2.6 1.2-3.6 0-.1-.3-.2-.2-.4 0-.3.4-.1.4-.5.6.1.4.5.6.7-.3.1-.9.3-.7.9.5.1.2-.4.5-.6l.5.1c.2-.1.2-.4.4-.6-.4-.4-.2.3-.7 0-.1-.3-.2-1.1-.6-.7-.2-.2 0-1.2.5-.9-.3-.8.4-1.5.8-2.5s.7-2.5 1-3.3c0-.4.4-.1.5-.3 0-.3.2-.5.2-.6 0-.2-.4-.4 0-.7.6 0 .2.3.3.6l.3.5c0 .2-.7.4-.1.6.3.1 0-.2.1-.3 0 0 .7.3.6-.2-.3-.2-.1.6-.6.1.1-.6.8-1 1-1.5-.5-.3-.4.7-.8.7-.6-.2-.3-.5-.7-.7.2-1.3.9-2 1.5-2.8-.1-.9.1-1.7.7-2.3-.5-.4-.7-.3-.9 0-.3-.2.1-.6-.1-.8-.5-.3-.2.3-.2.4-.1.4-.5.7-.7 1.1 0 .1.2.2.2.4-.1.4-.4.4-.6.6l.4.3c-.6.6-.5 1.7-1.2 2.3-.3-.6-.6.4-1.1.2-.2.3.8.3.4.6.2.1.2-.1.3-.3.3-.3.1.3 0 .4-.3.2-.6.2-.8.6.4.3.4-.1.5-.3.5.3 0 .4-.1.6-.1.5-.2 1.3-.6 1.9-.3-.1-.2-.3-.1-.5-.8-.1-.2.7 0 1-.4.9-1.1.7-1.3 1.6.5.4.4-.5.6-.7.3 1.2-.8 2-.9 2.9 0 .1.2.4.2.4-.1.2-.3-.2-.3-.1v.8c-.2.5-.7.3-.8.7 0 .1.2.2.4.3-.5 1-.3 2.3-1.1 2.8 0 .1.2.1.1.1.1.5-.3 1.6-.7 1.7l.2.9c-.3.9-1.1 2.1-1.8 3.1-.8-.1-1.1.2-1.7-.1-.1 1.1-.4 1.6-.7 2.6.1.2.2.3.4.4 0 .3-.2.5-.3.6 0 .3.5 0 .5-.1.3-.5-.5-.9.1-1.2.2.4.3.8.2 1.3.2 0 .3 0 .4-.1.3.2 0 .2-.1.2-.1.1-.3.3-.7 0-.1.2-.1.3-.1.5-.1.1-.4.3-.4.3 0 .2.4.4.2.7l-1.1.4.8.4c0 .4-.3.5-.6.2.4.5-.6.8.3 1 .6.1-.3-.7.2-.6.6 0 .1.6.1.8l.2.5c0 .7-.2 1.7-.7 1.9.2.4-.3.9-.3 1.4 0 .3.2.7.3.9.6-.4 0-1 .3-1.5.5.4.3.9.2 1.3-.1.4-.5.8-.5 1.5-.5 0-.3-.4-.6-.5.1.4.4.7.5 1.2-.5.2-.2.5-.5 1.1.4.1 0-.7.6-.4 0 .4-.4.9.1 1.1-.3.3-.5.7-1 .7.1.2 0 .5.6.5.1.4-.6.4.1.5-.1.5-.6.4-.9.6.1.4.3-.3.8 0-.7.8-.1 1.6-.5 2.4.1.1.3.2.3.4-.6-.5-.3.2-.9.2.3.2.4 1.1.7.9.5.2-.2.2-.2.4.1.4.4-.1.6.2-.3 1.2-.2 2.3-.2 3.3l-.2.4c0 .3.3.6.2 1.1 0 .1-.1.4-.4.5v1.6c.1 1.4 0 2.5-1.3 3.1-.6-.1-1.2-.1-1.3.3-.3-.1-.4-.3-.3-.5-.3.3-1.2-.4-1.3.3-.1-.5-.8-.5-1.1-.8-.1-.1.1-.5-.3-.4.5-1.3.4-2.9.8-4.3l.4-.6c.1-.3-.2-.7-.1-1.1.1-.2.2-.3.2-.5 0-.5-.4-.8.1-1.1 0-.1-.3-.1-.3-.3l.1-1.1c.1-.1.4-.3.4-.3 0-.1-.2-.3-.3-.5-.1-.3.3-.6.3-.9 0-.3-.2-.4-.2-.6-.1-.4.1-.9.4-1.3.1-.2-.1-.3-.3-.3.4-.7.3-1.9.5-3 .3-.2.6.4.8-.1-.1-.4-.6.1-.8-.3.2-1 .3-1.3.4-2.3.2.1.3.2.2.5.7-.3-.3-.8-.4-.8 0-.6.4.3.5-.1.1-.3-.2-.3-.4-.4l.2-.9c.4-.1.2.1.6.2l.1-.4c0-.3-.8.3-.6-.4.1-.5.2.1.7 0 .1-.4.3-.2.1-.5 0-.3-.7-.2-.9-.4l.2-.9c.1.1.3.2.6.3-.2-.2.1-.7-.5-.7 0-.8.4-1 .9-1.1.1-.2-.6-.8.2-.6-.1-.4-.7.1-.4-.5-.2 0-.3 0-.4.2 0-.1-.2-1.3.5-.8.1-.4-.5-.5-.3-.9l.5.1c-.2-.2-.2-.5-.3-.7.1-.4.5-.4.8-.4-.7-.3-.2-1.1-.2-1.3 0 0-.3.2-.3.3-.3-.9.6-1.5.7-2.4.6 0 1 0 1.6-.4.2-.3-.4-.4-.1-.7-.7.2-.6-.6-1-.2-.3-.3.3-.9-.6-.9 0-1.6 1.1-3.4 1.3-4.8.5.3 0 .9-.1 1.4-.1.5-.3.9-.2 1.3.3-.2.4-.5.8-.5.3-.5-.5-.6-.4-1l.3.1c.1-.6.5-.9.9-1 0-.1-.3-.2-.2-.4l.3-.9c.3-.2.3.1.5-.1.2-.5-.2-.1-.4-.4.1-.3.4-.7-.2-.8.6-.6.7-1.8 1-2.4.2.6-.4 1.4-.6 2 .2.2.2.5.6.7.1-.3.1-.5-.3-.7.5-.3.2-.9.5-1.5.1.2.2.2.4.2.2-1.1.5-2.1 1-3.5.3-.2.4.4.6.2.2-.5-.8-.2-.3-.9.4-.1.7.5.7.9.6.2.5-.7-.2-.8.2-.2.1-.5 0-.3.4-1.2 1-2.6 1.7-4 .6-1.4 1.2-2.8 1.6-3.9 0-.1-.1-.1-.1-.1 0-.3.3-.8.5-1.3l.5.4c.5-.1.3-.4.4-.5.3-.2-.2.4 0 .7.4-.3.8-.5 1.1-.9-.6-.5-.6-1.1-.8-1.6.2-.2.4-.5.8-.2-.2-.8.6-1.2 1-2.3.2 0 .4.1.6.2.2-.2-.1-.3-.3-.5.4-.4.6-1.1.9-1.8.5-1 1.3-1.7 1.9-2.5.3-.4.2-.9.7-.9l-.1-.5c.2-.3.4-.2.7-.3 0-1.1 1.1-1.9 1.8-3.4.4 0 .1.3.5.5.3-.5-.5-.9.1-1.5.1.2.1.5.6.7.3-.3-.2-.8.3-.8.2.2-.2.5 0 .8.4 0-.1-.8.4-1.2.3.2.3.4.1.7.5.1 0-.5.3-.7.3.2.3-.4.5-.3 0-.4-.3-1.2 0-1.4.1.2.4.4.4.7l-.4.3c.5.5.7-.3.7-.6l.5.7-.2-.8c.2-.4.5-.1.8-.1-.3.5-.5 2-1.4 2-.1.3.3 0 .3.4-.3.4-.5 1.1-.9 1.3-.1.1.1.2.2.3-.3.6-1 .7-.7 1.5-.5 0-.9 1.3-.9 1.9-.4-.1-.6.4-.9.7.5.3.6-.1 1-.2.4.5-.2.2-.3.5-.1.2.4.4.6.5.5-.6.2-1.1 0-1.6.8-1.2 1.1-2.1 1.8-2.9 0 .4.5.7.4 1 .3.2.3-.5.6-.4-.2-.2-.4-.3-.5-.1-.3-.3.1-.7.2-1 .2.1.4.4.5.3.3-.3-.5-.5 0-.8.3.5.2.4.6.3 0-.2-.2-.3-.3-.1-.2-.2.1-.3 0-.5.3-.1.6-.2.9.2.3-.4-.1-.7.3-1.1l.9-.3c0-.4.1-.8-.4-.9.4-.5.3-1 0-1.3.1-.4.3-.1.4-.4.3.1.1.3 0 .5.3.3.5.1.8 0 .1-.5 0-.5.4-.7l.3.6c.3.2.1-.3-.1-.4.2-.3.1-.6.5-1-.2-.2-.4-.3-.6-.4.1.3-.2.5-.3.8-.5-.5-.7.2-1.2-.2.8-1.1 1.9-3.2 2.8-4.1.5.4 0 .3-.2.5-.6.8-1.4 2.1-2 3 .4-.1.7-.6 1.1-.4v-.8c.1-.3.3 0 .4-.1.3-.1 0-.4 0-.5l.2-.1c.1-.1 0-.3 0-.3.3-.4.7-.6.8-1.3.1-.2.2-.1.3 0 .1-.3-.3-.1-.4-.4.2-.3.4 0 .6-.1.2-.2-.3-.4-.4-.5.5-.8.8-1.6 1.3-2.3.1-.1.3 0 .3 0 .1-.1.2-.5.3-.7.1-.2.4-.4.3-.7.1 0 .2-.2.4-.1.1-.7 1.2-1.5 1.5-2.4.3.2 0 .4.1.6-.4.3-.5.5-.7.9-.1.2.3.4 0 .6.5 0 .2-.7.4-1 .3.1.5-.6.8-.2 0-.3-.5-.3-.4-.7l.4-.4c-.2-.4-.3 0-.5.2-.1-.4.3-.9.5-1.2.2-.3.4-.6.6-.7.1-.1.4-.1.4-.1v-.4c.1-.3.5-.2.4-.6.1-.2.2-.1.3 0 .2-.2 0-.5.3-.7.1.2.1.4-.1.5h.6c.1-.2.3-.5 0-.7.1 0 .7-.3.3-.5-.3-.1-.2.5-.5.6-.1-.2.1-.4.2-.6l-.9.1c-.2.5-.4.5-.8.5-.2-.2.6-.1.3-.5-.1-.1-.2.1-.1.2-.4.1-.2-1-.7-.3-.4-.5.8-.5.4-1.1-.4.2-.7.2-1.1.7-.2.3.3.1.4.4-.3.2-.5-.1-.8-.2-.2.2-.2.5-.5.5-.2-.8.7-1 1.1-1.8.1.2-.2.4.2.5l.2-.8c-.1-.1-.2-.1-.2-.1.1-.5.3-.9 0-1.4.2-.3.4-.1.6-.3.4-.3.4-.6.7-1 .2.2.2.3 0 .5.6.2.8-1 1.3-.4.2-.5-.4-.5-.7-.4-.2-.2.3-.3.3-.5 0 .5.5.2.7.4.3-.6.1-1.1.7-1.7.2-.3.3 0 .5 0l.1-.3c.1-.3-.4 0-.2-.4.1-.2.3 0 .4.1.2-.4.2-.7.6-1.1.2-.2.5 0 .7-.4-.1-.1-.2.1-.3.2 0-.5 1.2-1.1 1.6-1.8.2-.1.4.3.7.1.1-.2-.1-.1-.2-.2.5-.5 1-.9 1.3-1.3.2.2.4.3.7-.1-.1 0-.3.1-.4-.1.1-.2.2 0 .3 0 .2-.1.2-.6.6-.5-.1.5-.5.6-.9 1.1-.2.2.1.4-.2.6 0-.5-.7.5-.9.5 0 .2 0 .3-.1.5-.3.1-.5-.1-.7-.2-.1.5-.5.1-.8.6.3.6.8-.2.8.5-.3.1-.7.1-1-.2-.4.3-.2.6.1.5.1.2-.2.2-.2.1-.3.3-.5.3-.7.4-.2.1.2.5.3.2l-.4.6c.1.2.2.1.3.2 0-.2.5-.5.3-.7l.7-.4c.2.1-.1.3 0 .4.2.2.1-.2.1-.2l.4-.1c.1-.1.1-.4.3-.6.1-.1-.1-.3-.2-.4.3-.4.6-.1.8-.2.3-.2.1-.4.1-.6.3-.1.5.1.8.1-.1-.5.4-1 .8-1.4.1.4.4-.2.6-.3.2-.3-.1-.6.4-.8l-.1.4c.2.2.4-.3.4-.4l-.3-.1c-.4 0-.5.3-.5-.1l-.8.7c-.1-.4.5-.5.9-.9.3-.3.8-.8 1.4-1.2.1.3.3.2.4.4.5-.3.6-.6 1.1-.8.1.2 0 .4-.1.6.4 0 .2-.6.4-.8l.7-.2c.2-.1-.2-.3-.4 0-.1-.5.4-.1.6-.3.3-.4-.1-.3 0-.6l.5.1c-.1-.2.4-.4.1-.6l.6-.3c.2-.2.8-.5.8-.7.2-.1.1.1.1.2.3-.2 0-.3.1-.5.3.1.2-.3.7-.6 0 .2-.1.4-.1.5-1.8 1.2-2.2 2.1-3.6 3.4-.1.1.1.1.2.1-.3.3-.5.7-.8.9l-.4.1c-.1.1-.2.3-.1.2-.2.1 0-.3-.4.2-.2-.6.5-.7.7-1-.6 0-1.2.4-1.9.9 0-.1 0-.2-.1-.3-.3.4.1.5.4.7.4-.3.1-.5.4-.8.2.4.1 1 .7.6-.7.6-1.4 1.9-2.4 2.3-.1.5-.7 1-1.2 1.5-.1.2.2.4-.1.6-.4 0-.5-.2-.7-.3-.3.5-.3.3-.8.9.1.2.2.2.3.2l.3-.9c.9 0 .2 1-.3 1.3 0 0 0-.3-.1-.2 0 0-.5.5-.3.6-.5.5-1.4 1.6-2 2.5-.4.6-1.1 1-1.4 1.6-.2.3-.2.7-.5 1-.3.4-.6.7-.5 1.1.3.2.6-.3.9 0 .2-.6.8-1.2 1.2-.9-.2-.4-.1-.8.1-1.2-.1-.3-.3-.1-.5-.3.4-.6.7.2.8.5l.7-.6c.1-.2-.4-.2-.3-.5-.2-.1-.1.7-.5.6 0-.2.1-.4-.1-.6.7-.5 1.2-1.4 2.1-2.3.4-.1-.5.5-.2.7.2.2.4-.1.6-.3.2-.2-.2-.4.1-.6 0 .4.4.2.4 0 .1-.3-.3-.4.1-.2.3.1.6-.1.7-.4-.2-.1-.5.2-.6-.1.2-.3.4 0 .6-.2l.1-.2c-.1-.3-.3 0-.4 0-.2-.1.2-.3.2-.3l.2-.5c.3-.4.9-.8 1.3-1.3 0 .4-.3.4-.6.7.2.2.4-.1.6-.3.2.2.4.1.6.1l-.4-.4c.4-.5.7.1 1.1.1.3-.3.6-.4.8-.6.1-.2-.1-.3-.1-.5.4-.5.6 0 1-.6l.7.4c-.4.1-.5.7-.5 1 .1.1.2-.1.4-.3 0 .1 0 .3.1.4-.2.2-.3.2-.4 0-.1.1 0 .5-.2.3-.2 0-.2-.1 0-.3-.2 0-.4-.3-.3-.5-.3-.1-.2.4-.4.6-.2-.2-.3-.2-.5-.5v.7c.1.2.4-.3.5.1-.1.1-.3.5-.5.3 0 .2 0 .5-.3.7-.1-.4-.3-.6-.6-.1-.4 0 0-.4-.3-.4 0 .2 0 .4-.3.6-.1-.2-.2-.1-.3 0-.1-.2-.2-.6-.5-.6-.1.2.2.4-.2.7-.4-.2.1-.4-.2-.6-.4.2 0 .4-.1.6-.2.1-.3-.4-.5.1 0 .1.2.3.1.7.2.1 0-.4.4-.6 0 .3.3 0 .4 0l.2.2c.1.1.3-.1.3.1s-.1.3-.3.5c-.1-.1 0-.3 0-.4-.2.2-.3.4-.3.6.3.4.6-.1.9-.5.3.2-.1.3-.2.5.3 0 .5.1.4.6h.3c.2-.2 0-.6.4-.6.2.4-.5 1-.9 1.5-.2.3-.3.7-.6.8-.1-.1.1-.4.2-.4-.4.1-.2.4-.4.6-.1.1-.4.1-.4.1l-.2.7c-.1.2-.2.1-.4.3-.2.3-.4.9-.7.9-.3-.5-.2-1 .4-1.3-.3-.2-.5.2-.8.4-.2.3 0 .2.2.4-.2.1-.2.3-.1.4-.1.2-.4.4-.1.5.1.2.2-.5.4-.4-.2.6-.8.9-1.1 1.5l-.1.5-1 1.4c-.5.7-1 1.5-1.5 1.9 0 0-.1-.2-.2-.2s0 .4-.2.5c-.4-.8 0 .4-.5.6-.1.1.1.2.2.4-.3.4-.6 1-.9.8l-.2.7c-.4-.2-.4-.5-.1-.7-.3-.3-.5 0-.7.3.2.3.4.2.6.4-2.8 4.8-6 9.3-8.7 13.9-.5.8-.8 1.5-1.3 2.2l-.1.4c-.2.3-.7.9-1 1.5l-.4 1.1c-.3.4-1.2 1.9-1.5 2.8-.2.5-.1 1.4-.9 1.8-.1.7-.2 1.1-.7 1.4.2 0 .2-.2.5 0-.6.7-.6 1.4-1.1 2.3-.2-.1-.1-.3-.3-.5-.3.3.3.6.3.9-.1.2-.6-.3-.6-.4v1c-.4.2-.3.5-.4 1l-.4.5c-.1.3.1 1-.3 1.4-.1.1-.4.1-.4.2-.1.2.3.6-.2.5-.1.4-.1 1.5-.2 2l-.3.4v.5c-.1.2-.3.1-.4.2 0 0 .1.3 0 .4-.2.5-.7 1.1-.8 1.6l.1.7c-.2 0-.3.1-.4.2.2.4-.1.7-.2 1.1v.9l-.3.4c-.2.8-.4 1.8-.7 2.7 0 .2-.2.1-.3.3-.2.8-.1 1.6-.4 2-.1.2-.3.1-.4.2-.1.6-.1 1.2-.3 1.9-.2 0-.2.2-.5 0 0 .1.2.2.4.3-.3.7.3 1.6-.6 1.8 0 .4-.1.4-.1 1-.2.1-.4.2-.8-.1-.2.5.3.3.5.6 0 .6-.5.4-.6.9l.5.5c-.4.5-.3 1.4-.6 2.2-.1.2-.4.4-.5.7-.2.7.1 2.2-.8 2.4.1.1.2.3.4.4-.6.6.1 1.3-.5 2.1.6.4.2.5.3 1.1.2.1.5 0 .5-.1.1-.1-.2-.3-.2-.4 0-.2.2-.2.2-.3l-.2-.6c0-.3.2-.4.3-.6.1-.3 0-.7.3-1.1.1-.1.4-.2.4-.2.1-.1-.1-.6.1-.9.1-.4.1-.4.2-.9.1-.4.3-.9.4-1.6.3.1.2.2.4.3.1-.3.1-.8.7-.5 0-.1-.3-.2-.4-.3-.3-.1-.2.4-.3.5-.5-.5-.1-1.3.3-1.8.3-.2-.5-.6 0-.5.4-.1.3.2.4.4.1.2.3.1.2.3 0 .1-.2 0-.2.2-.2-.1-.1-.3-.1-.4-.5.2-.1.8-.5 1.1.8.5.3-.9 1.1-.3-.1-.7-.7-1.2-.2-1.8l-.9.1c.1-.5.3-1 .7-1.1.2.3 0 .9.6.8 0-.2-.6-.3-.3-.6.8.5.8-.5.4-.8-.3 0-.4.2-.5.5-.6-.4.1-.6.1-1 .5.5.7 0 1-.1-.5-.4-.7.2-.9-.3.2-.3.7 0 .8-.4 0-.4-.3.1-.4.1 0-1.2.6-2.8 1.1-4.2 0-.1.6-.4.1-.8.4-.5.9-1.7 1-2.2.4.4 0 .9-.2 1.3-.2.7-.5 1.3-.5 1.8.5.2.5-.1.9.3l.3-.8c-.1.1-.2.2-.5.4-.7-.6.3-.6.4-1.1-.3-.2-.1.5-.6.1 1-2.5 2.3-6 3.3-8.7l.4-.5.1-.7c.2-.3 1-.4.6-1 .3.1.4-.3.6-.3 0-.2-.2-.3-.3-.2.1-2.3 1.9-3.8 2-5.6.1-.1.1.1.3.2 0-.5.1-.9.3-1.4l.3.8c.2-.3-.1-1.1.4-1.1l.1.8-.5.6c0 .1.1.2 0 .3.3.2.5.3.6.1 0 .4.5.9.7 1 .6.2.3-.6.6-.7.4.2 0 .4-.1.5l.2.3c-.1.4-.3.7-.4 1.2-.3 0-1-.5-1-.8-.2-.3-.7 0-.4.2-.4.2-.3-.5-.5-.6-.1.2-.1.4.2.6-.1.4-.5 0-.5.5-.4-.5.5-.6 0-1.1.2-.4.9-.4.7-1.1-.5-.5-.4.8-.7.1.1.6-.3.7-.1 1.3-.1.2-.3.4-.6.2.2.7-.4 1.4-.9 2.1.1.6 0 1.2-.3 1.4 0 .4.2.8 0 1.2-.2-.1-.2-.3-.5-.4-.1.3.2.4.2.7-.1.4-.5.8-.3 1.1.2 0 .3-.1.4-.3.2.3-.2.8.1 1.1-.2.5-.7.3-1 .7 0 .2.2.1.4.2-.2.5-.6.4-.7.9 0 .2.3.3.2.5.2.2.3.1.4-.1.1.5-.2.7-.5.8l.4.3c-.2.3-1-.4-1 .4.2 0 .2-.2.5 0-.4.2.2.6-.1.7 0 0-.3-.3-.4-.2-.1.1.2.5.2.3l.1.7c.4.1.2-1.1.9-.5 0-.2-.3-.3-.5-.4l1-.3zm5.4-10.5c-.4-.2-.8-.4-.9-.1l.8.5.1-.4zm-1.7-1l-.1.3c.4.1.9.5 1-.1-.5-.6-.4.3-.9-.2zm-3.8 7.8c.2-.3.8.4.8-.3-.4-.4-.4 0-.6-.1-.2-.3-.4.3-.2.4zm24-50.2c.1-.3.5-.6.2-.9-.3.2 0 .4-.1.6-.1-.2-.3-.4-.5-.2l.4.5zm-3.8 3.7l-.2.3c.3.2.2.4.3.6.3-.3 0-.6-.1-.9zm.8.6c0 .4.2.5.1 1 .3-.3.4-1.2-.1-1zm1-1.9c.2.2.1.8.5.4-.3-.2 0-.4-.1-.7-.1.2-.2.1-.4.3zm-.4-.4c-.1-.1 0-.3 0-.4-.1.1-.2 0-.4.3.1.1.2.2.4.1zm.3 1.3c.1.1 0 .3.2.4.1-.2.3-.2.4-.3-.2-.2-.4-.4-.6-.1zm-2.3.5c.4 0 .4-.6.8-.9l.4.1v.3c.3-.1.5.2.7-.2.1-.2.1-.4.1-.6-.4-.4-.7-.5-1.1-.1.1.2.2 0 .3 0 .2 0 .5.1.4.3-.3.1-.5.2-.7-.2-.5.5-.8.9-.9 1.3zm-1.5-1.4c.2-.2.4-.5.3-.7-.2.5-.2.2-.6.4l.3.3zm-2.6.8c.1 0 .8-.4.5-.7-.2-.1-.7.5-.5.7zm0 1.8c.3-.5 1-.4 1.1-1-.3-.5-.7 0-.6.3-.3.4-.5.3-.5.7zm-1.1 1.2c.5 0 .3-.9.9-1-.5-.3-.7.6-.9 1zm-1.1-.6c.4-.4 1.1-.4 1-1.1-.3.5-1 .6-1 1.1zm6.2.4c0 .1.1.1 0 .2.2.2.3.2.5-.1-.1-.2-.3-.3-.5-.1zm-1.4-1.4c.2.4.5-.4.8-.5.1.4.3.3.6 0-.4-.6-1.2.2-1.4.5zm.5.6c.2-.3.3-.1.5-.1.1-.2.2-.3.2-.5-.3.3-.5.2-.4-.2-.2.2-.4.9-.3.8zm1.1 1.4c-.3.1-.6-.4-.9.2.1.3.3 0 .4.2 0 0-.1.3.1.4.1.1.2.2.4-.2-.4-.4 0-.4 0-.6zm-2.2 1.5c-.5-.4.7-.6 0-.9.3-.2.2-.5.3-.7.4-.1.8-.2 1.2-.5l-.3-.3c-.3.4-.6.6-.7.1-.4.5-.5 1-.8 1.5.4.2-.4 1 .3.8zm.3 2.2c.2-.4.3-.8.4-1.2.4-.2.8-.6 1.1-1.1-.2-.2-.3-.3-.4-.3l-.4.8c.3-.1.2-.4.4-.4 0 .5-.5.6-.7.5.3-.6-.2-.5-.1-1 .1-.2.2-.1.4-.3l-.6-.2c0-.1.2-.6 0-.3-.2.4.2.8-.2 1.1.5.1.3.5.2.7.1-.2.3.4.2.5-.4-.5-.7.4-1 .2l.4.4c.2-.2.4-.6.6-.4-.2.4-.7.7-.3 1zm-1.7-1.1l-.4.4c.1.5.6-.2.4-.4zm.3 1.4c.3-.3-.1-.3 0-.5.2-.2.5-.5.3-.7-.3.3-.3.7-.6.7.3.1.1.3.3.5zm0 .9c.1-.2.6-.2.4-.5-.1.1-.1 0-.2-.1-.2.2-.4.4-.2.6zm-.6.5l-.4.2c-.1.2.2.4-.1.5l.5.2c-.2.3-.7.1-.4.6l.6-.4c.1-.5 0-1 .3-1.5-.1-.1-.2-.2-.2-.4.2-.6-.3.2-.1.4-.1.1-.5-.1-.4.3 0-.1.2-.1.2.1zm-1.5.5c.2 0 .3-.2.5-.5l-.5-.2.5-.5c0-.3-.1-.1-.3-.4-.1.4-.6.7-.4 1.1.4-.3.2.4.2.5zm.3.9c-.2-.1-.9-.6-.9-.1.1-.1.3-.1.5.2-.1.2-.4.4-.1.5.2-.4.4-.5.6-.6.1-.1.5-.7.2-.5l-.3.5zm-.9-1.4c-.2 0-.9.6-.6.6.2.1.7-.3.6-.6zm-1 .3c.3-.2-.2-.4.1-.5.1-.1.3.2.4-.1l-.3-.4c-.2.4-.5.3-.7.6l.5.4zm.4 1.7c.2.4.9-.5.6-.4-.2.5-.5-.1-.6.4zm-1.1-.5c.3-.2.6-.1.8-.5-.3-.3-.9.1-.8.5zm-.5 1.3c.2-.2.9-.4.6-.8-.2.2-.9.5-.6.8zm.6 1.3c.1-.3.7 0 .6-.4-.2 0-.9-.1-.6.4zm.9.8c.3-.1.6-.7.9-1l-.7.1c.1-.1-.2-.3-.2-.1.1.2.5.4.4.5-.4-.1-.6.2-.4.5zm-2.5 3.5c-.1.2-.4.1-.5.5.2.4.6-.4.5-.5zm.3-5.1c0 .1-.1.2 0 .3.4-.3-.1-.6-.2-.8l-.3.4c.2.3.3-.1.5.1zm1.6 2c.2.2.4.1.6.1-.1-.2-.1-.3-.3-.5l-.3.4zm-2.8-.4c.5-.4.3-.7.5-1.1.2.2 0 .5.1.7.5-.1.2-.7.1-1-.5.4-.5.9-1.1.9.4.1.2.3.4.5zm1.7 1.1c-.6 1.1.5-.1.2-.5-.2.2-.1.3-.2.5zm-1 1.1l.5.5c.1.1-.4.7-.1.6.2-.4.5-.7.7-.9-.4-.6-.5.4-.8-.2.1-.2 0-.3.2-.5.5.5 1.5-.1 1-.8-.3.4-.6.7-.7.8-.6-.3 0-.6-.4-.8-.3.5.1.9-.4 1.3zm-2.3.2c.1-.3.3 0 .5-.2 0-.3-.3-.1-.2-.4.2.1.1-.1.2-.3.4.2.2.5.5.5.1-.2.3-.3.2-.5 0 .1-.2 0-.1-.1.2-.6.6-.1.9-.3-.4-.3-.4-.7-.9-1-.2.5-.3.5-.7.8.1.1.2.2.1.4-.2.3-.5 0-.7.5 0 .2-.2.4.2.6zm.6.5c.5-.1.5.1.4-.4.3.4.4 0 .7.3.2-.1-.1-.7-.2-.5.1.1 0 .3-.1.2l-.2-.2c.1-.3.6-.5.4-.8-.3 0-.4.4-.5.7-.5-.1-.6.4-1 .7.3.4.4 0 .5 0zm.1 1.7c.2-.1.3-.4.5-.3l-.4.7c.1.2.2.4.4.6.5-.5.1-.9.4-1.3-.2-.2-.3 0-.4-.1 0 0 0-.3-.1-.4l-.2.1c-.1 0-.1-.4-.3-.1.7.3-.1.6.1.8zm-1.4.2c.3 0 .5-.6.7-.9-.6-.5-.7.4-.7.9zm.3.7s-.1.1-.2.1c-.1.1-.3-.1-.4.1 0 .1-.3.3 0 .6.2-.1.2-.7.5-.5-.4.4.1.5.1.7-.2 0-.3.2-.5.5.5.3.7-.6 1.1-.7.1.1.1.2.1.3.3-.2.2-.1.3-.5l-.6-.1.3-.5c-.4-.5-.3.4-.6.2-.1 0-.1-.1-.1-.2zm-1.4 1.3c.4-.4 0-.4 0-.6.2-.5.8-.6.9-1.1-.1.1-.3-.1-.5-.3 0 .7-.5.9-.9 1.6l.5.4zm-1.9 2.5l.4.2c.2-.2 0-.5-.1-.7-.2 0-.4.2-.3.5zm.3 1.9c0-.2.5-.5.3-.7-.2 0-.6.4-.3.7zm-.5 2.8c.3-.1.1-.1.2-.4-.3-.4-.7.2-.2.4zm-1.2-.7c.2-.2.9-.4.7-.9-.2.1-.8.5-.7.9zm-2.6.8c.1-.1.4.2.5-.2l-.4-.3c-.1.1-.3.3-.1.5zm0 1.1c.4-.2.5-.7-.1-1.1-.1 0-.5.2-.2.4 0-.1.1-.1.2 0-.3.3 0 .5.1.7zm-1.3 1.2c.5.5.3-.4.3-.6.1-.3.7-.5.3-.9-.1.4-.7 1-.6 1.5zm.9 1.8c.2 0 .5-.5.2-.7 0 .2-.5.4-.2.7zm.5-7.8c.2-.3.6-.1.7-.6-.5-.5-.7.2-.7.6zm-.8 1.1c.1-.5.8-.2.6-.6-.4.3-.4 0-.5-.4-.1.3-.3.7-.1 1zm-1.8.4c.3.1.8.5 1 .1-.4-.4-.7-.2-1-.1zm.4.8c.5-.4.5.9.9.2-.3-.5-.9-.7-.9-.2zm-1.1 3.2c-.1.1-.3 0-.4-.2-.1.2-.2.3-.1.5.2.3.7-.1.5-.3zm-2.1-.3c.2.1.4.4.6.2-.3-.1.2-.3.3-.2.2.1-.1.3.2.5.3-.4.4-1.3.8-1.7.2-.2.7-.1.8-.3-.2.4-.2 1.2.2 1.2-.3-.5.2-1.2-.1-1.6 0 0-.3.3-.4 0 .2-.1-.1-.7.3-.5-.1.1-.2.3-.1.4.2-.1.4-.3.7-.3.1.2.2.3.4.2-.4-.2.1-.5-.5-.7-.1.3 0 .5-.4.3l-.9-1.1-.2.4c.2.4.6-.1.5.2-.1.1-.3.5-.4.3 0 0 .1-.4 0-.3-.3.2-.4.6-.6 1-.1.2-.7.4-.2.7.3-.5.8-.4 1.1-.7.2.6-.6.4-.8.6-.1.2-.2 1-.5 1-.4-.2.5-.6-.1-.8 0 .7-.3.7-.7 1.2zm1.8 4c.4.2 1.2.3 1-.3-.1.1-.2.1-.4 0-.1-.3.1-.5.3-.8.3.4.4 0 .6.1l.3-.8c-.4-.2-.3-.1-.6-.4-.5.7-.8 1.4-1.2 2.2zm-1.1 3.3c.2-.4.3-.7.4-1.1.3.2 0 .4.2.6.1-.1.1-.2.2-.1l.1-.2c-.2-.1-.5-.3-.5-.4.6.2.3-.5.4-.9l.4.3c-.2-.7 1-.8.5-1.3-.1.5-.7.6-.9.1-.2.4-.3.8-.1 1.2-.1.7-1.5 1.1-.7 1.8zm-4.9-.1c0-.4.4-.3 0-.7-.3.2-.1.2-.4.5l.4.2zm2.2 2.3c.2 0 .3-.3.5-.6-.4-.4-.7.4-.5.6zm1.1.8c.3-.8.4.4.8.2.3-.4.3-.9.4-1.3 0-.4-.5-.1-.5-.4.4-.1.8-.1 1.1-.5-.1-.3-.3-.6-.6-.8-.2.4-.5.8 0 .6l-.9.7c.6.7-.5.9-.3 1.5zm.6.5c-.1.1-.2 0-.3-.2l-.6.3c.1.4 1.2.4.9-.1zm-19.9 52.6c0 .2-.1.4.1.4l.7-.2c-.1-.1-.3 0-.8-.2zm4.7-5.9c-.1.6-.4.8 0 1.3.1-.2.2-1 0-1.3zm-3.3-6.9c0 .4-.2.4-.3.7.4.2.7-.6.3-.7zm.1-2c.3.4-.4.7 0 1.1.2-.1.7-1 0-1.1zm2.8-12.3l.7.5.1-.5c-.4-.1-.7-.2-.8 0zm4.8-4.4c-.1.5-.8 0-.7.7.5.2.5-.3.8.2.1-.4.1-.7-.1-.9zm-3.1-3.5c0 .5-.3.2-.5.4.4.2.6 0 .9-.1.3.1.1.4.5.5.3-.7-.3-.5-.9-.8zm2.8-6.7c-.2.3-.2.6 0 .9.1-.6.7-.6 0-.9zm4.1-1.7l-.2.6c.5.4.8-.4.2-.6zm-1.8-2c-.1.3-.4.6 0 .8.1-.2.6-.7 0-.8zm1.2-1.7c-.3.3-.1 1.1.3 1-.2-.1.6-.7-.3-1zm3.3-1.4c-.4-.1-.7 0-.9.5.6.6.7-.1.9-.5zm-1.8-3.8c-.5.1-.3.8-.9.9.3.3.2-.1.4-.2.3-.1 1-.2.5-.7zm4.7.6c-.1.5.1 1 .4 1.5.1-.3.7-.5.4-1-.1.2-.7-.4-.8-.5zm-.7 3c.5.4.4-.5.7-.7 0-.2-.1-.3.1-.5.3.3.5.2.6-.1l-.8-.2c.3-.4 0-.6-.1-.9-.2.8 0 2-.5 2.4zm-2.6 6c.1-.1.2-.1.3 0 0-.4 0-.3.2-.6-.3-.3-.6.6-.5.6zm-.5 2.3c.1-.2.1-.4-.1-.6-.1.1-.3.1-.3.4l.4.2zm-.5.7c.5.1 1 .3 1.1-.3-.5-.4-.3 0-.7-.1 0 0-.1-.3-.3-.1l-.1.5zm-1.7 8.2c.1-.3.1-.6-.1-.8-.1.4-.5.2-.5.6l.6.2zm-8.2 46.7c-.3.1-.4-.3-.7-.6 0 .3-.4.2-.3.5.2.1 1 .6 1 .1zm.4 2.8c0-.1.1-.2.3-.2.1-.4-.3-.4-.5-.6.1.3-.1.9.2.8zm25.4 55.1c-.3-.2 0-.7-.4-.6 0 .1.1.7.4.6zm.8 1.8c-.2-.1-.1-.3 0-.4-.2-.3-.4-.1-.6-.5-.1.1.1.8.2.8 0 0 .2-.2.2-.1-.1.2 0 .6.2.2zm1.8.9c.2-.2-.2-.8-.4-.6.1.2.2.4.4.6zm28.6 16c.4.2.5 0 0 0zm-2.8-.9c0 .1.3.2.6.3.1 0-.3-.2-.6-.3zm-.2-3.2c.1.1-.1.2.2.4.1 0 .2 0 .2-.1-.2-.1-.3-.2-.4-.3zm-2.4-1.7c-.1.1.1.2.1.3-.1.1-.3.1.1.3v-.2c.2.2.3.2.3.1-.3-.2-.3-.4-.5-.5zm-1.8 3.9c.3.1.9.5 1 .3 0-.2-.2 0-.4-.1 0-.1 0-.1-.2-.2.1.3-.4-.1-.4 0zm.9-4.2c.2.1.6.3.5.1-.3-.2-.6-.1-.9-.5-.1.1.2.3.4.4zm-1.2-.5c.2 0 .5.2.6 0-.4-.3-.9-.3-.6 0zm-7.6 1.1c-.2-.1-.1-.3-.4-.5-.1.2.2.6.4.5zm-6.1-6.5l.2-.3-.3-.2c-.1.2-.1.3.1.5zm-10.7-9.5c.2.3.8.8.8.5-.2-.1-.8-.8-.8-.5zm-.4-1.8c.1.3-.1.5.2.8.2-.2.1-.9-.2-.8zm-1.7.4c.3-.3-.4-.6-.5-.6.1.2.2.6.5.6zm-1.8-4.3c.2.2 0 .4-.1.5.3.4.5.7.8.7-.1.1.1.3 0 .5.7.2 1 1.1 1.4 1.7h.3l-.4-.3c.2-.2 0-.7-.1-.9l-.4-.4-.4-.9c-.1-.1-.2 0-.3-.2 0-.3-.5-1.1-.8-.7zm-7.5-12.2v1c.1.3.4.2.5.4.1.1-.1.2-.1.2 0 .1.2 0 .2 0 .3.5.5.8.9.7-.1-.5-.7-.9-1-1.5-.2-.3 0-1-.5-.8zm-11.2-14c0 .3-.1.6.2.8.5-.1.1-1-.2-.8zm1.6 1.9c.1-.6-.8-.3-.8 0 .4-.3.3.3.8 0zm.5-.9c0 .3-.4.4-.2.8.5.5 1-.8.2-.8zm8.5 13.1c.4-.2.2-.5.6-.6.1.1.1.2.2.1-.3-.6-1.1-.2-.8.5zm3.3-9.4c-.2.3.2.7.4.8-.2-.4.1-.8-.4-.8zm-1.1-2.7c.4.3-.1.5-.1.9.3-.1.5 0 .6-.3-.2-.1 0-.9-.5-.6zm-1.9-6.1c-.2.2-.1.6.2.5.2-.2.2-.6-.2-.5zm-7.2 3c-.2.5.2.5.4.9-.6.1 0 .5 0 .5 0 .3-.3.5-.2.8.6-.3.4.6.9.5 0 .2.3.6-.1.6-.2-.4.2-.6-.3-.6-.1.2-.1.5 0 .7.1.2 1.2.6.6 1 0-.1-.1-.1-.1.1.4 0-.4.9.4.8l.1-.6c.2.5 0 1.1.6 1.2 0 .1-.3.4-.3.4l.3.8-.3.1c0 .2.4.4.4.7-.1.1-.4.1-.3.3.4.1.4-.2.6-.4.3.4.6-.1.9.4.1.2-.3.3-.1.6.2 0 .3.2.4.3.4.6.7 1.4.9 2.3.2 0 .5 0 .6.3.6 1.1.9 1.7 1.5 2.9.9-.4-.1-1-.3-1.4-.3-.7-.3-1.4-.5-2-.2.1-.3.1-.5 0-.2-1.1-.7-1.4-1.1-2.3.3-.2.5.1.3-.3l-.7-.3c-.2-.9-.8-1.6-.6-2.2-.4-.3-.5-.9-.4-1.3-.6.4-.5-.5-.8-.6.3-.1.4.2.6.1-.4-.3-.2-.6-.3-1.1-.6 0 .1.5-.3.6-.5.1-.1-.6-.4-1-.2 0-.3.1-.3-.1.5.1.1-.1 0-.4-.1-.5-.1-.9-.6-1 .2-.1.4-.1.6-.1 0-.5-.4-.3-.6-.5-.1-.8-.3-1.5 0-1.8.2 0 .4.1.4-.1l-.8-.1c-.1-.3.5-.7-.2-.7-.1.6.3.9 0 1.2-.2-.2-.3-.5-.5-.8-.3-.5 0-.2 0-.7-1.3-.3-.3 2.5.1 2.3zm-2-5.6c.5 0 .4-.6.2-.7-.6 0-.5.6-.2.7zm-3.8-3.1c0 .4.2.8 0 1.1.2-.1.8-.7.5-.8 0 .1 0 .2-.1.2-.1-.3-.2-.5-.4-.5zm1.3-1.2c-.2.3 0 .7.3.7.2-.2 0-.7-.3-.7zm.7-.5c-.6.1-.3.4-.2.7.6 0 .2-.5.2-.7zm8.5-1.9c-.4.4.3.5.5.7.1-.4-.1-.7-.5-.7zm.9-.4c.5 0 .5-.3.4-.6-.5 0-.5.3-.4.6zm-1-1.5c0 .3 0 .6.4.5.1-.1.1-.6-.4-.5zm-7.6-.2c-.2.5.4.2.4.6-.1.3-.5 1.4.2 1.4.1-.5-.4-.9 0-1.1-.1 0 .2.4.2.1-.5-.2-.1-1.2-.8-1zm7.4-1.2c.2.3-.2.3-.1.6.3 0 .5-.1.6-.2 0-.3-.2-.4-.5-.4zm-8.2-2.7c.4.6-.3 1.1.3 1.2.1-.4.7-.5.7-1-.2-.1-.4-.1-.6.1-.1-.1-.2-.2-.4-.3zm1-1.3c0 .3.2.4.6.3 0-.3-.4-.5-.6-.3zm-.1-6.9c0 .1-.1.1-.3.1-.2.4.3.9 0 .9s0-.6-.5-.5c-.3.5.1.5.2.9.5-.2.6 0 .9-.1-.2-.5-.2-1-.3-1.3zm-1-7.5l-.2.5c.5-.1.4.2.8.2 0-.4-.3-.6-.6-.7zm.1-1.8c-.1.3-.6.4-.4.7.2 0 .4 0 .5-.1.5.5-.4.7-.1 1 .5-.1.3-.8.5-1.1-.2 0-.6 0-.6-.2.3 0 .1-.4.4-.5-.4-.7-.1-.2-.3.2zm12.1-13.8c-.1.5-.4.5 0 .9.1-.1.2 0 .3.1-.1-.4.7-.6-.3-1zm-.2-.3c-.2 0-.2.1 0 .2.2-.2.7-.1.7-.4-.5-.2-.4.2-.7.2zm.6-1.5c-.2.1-.3.6.2.7-.2-.3.3-.4-.2-.7zm-5.1-3.7c.1.3 0 .7.3 1 .3-.5.2-.6-.3-1zm5.5 1c-.2.4-.3.4.2.8.3-.2.1-.6-.2-.8zm-2.6-9.1c-.1.3-.2.5 0 .7.3.1.5.1.7 0-.8-.1-.5-.5-.7-.7zm.5-.6c-.1 0-.7.1-.3.4.8 0 0 .3.2.6.9.3.4-.7.1-1zm3.7-3.7c-.2.1-.5.6-.1.8-.2-.4.4-.4.1-.8zm1.2-4.2c.2.1.3.3.2.5.4.3.6.1.8 0-.3-.1-.3-.3-.2-.5-.4-.2-.6-.1-.8 0zm1.1-.6c-.4-.1-.7-.1-1-.1.4.2 1 .7 1 .1zm-3-1.4c.1.5-.5 1.2.1 1.6.3-.1 0-.2 0-.4.1-.4.6-.9-.1-1.2zm2.5-3.1c-.1-.3 0-.6-.4-.8 0 .4-.3.2-.3.5l.7.3zm.7.9c-.1.2-.1.4-.1.6.3.2 1 .4.6.1-.2.2-.4-.5-.5-.7zm1-1.5c0 .3-.6.8 0 1 0-.3.6-.7 0-1zm-.1 0c-.6-.3-.5.8-.7 1.1l.3.5c.2-.7-.1-1 .4-1.6zm-11.9 84.4c.4-.1.6.1.7.5-.2 0-.3 0-.4-.2-.1 0-.1.1-.1.2-.1 0-.1-.3-.2-.5zm32.6-138.5c.2.3-.2.4-.4.6-.2-.3.2-.4.4-.6zm-39.1 93.5c-.3-.3-.4-1.4 0-1.8.7.1 0 .2 0 .4.3.4.1 1 0 1.4zm2.7-17.5c-.1-.4.1-.9.2-1.6 0 .5 0 1.3-.2 1.6zm34.2-63.4c.4.6-.4 1.1-.7 1.4-.2.2-.3.9-.7.6.7-.5 1.1-1.5 1.4-2zm6.1-13.3l-.2.4c-.2-.1-.4-.2-.7-.5.3-.1.6-.2.9.1zm-4.5 11.7c0 .4-.6.8-.8 1.3 0-.5.5-.9.8-1.3zm-6 8c.3-.6.8-1.2 1.1-1.6-.2 1.3-1.2 1.6-1.8 3.1-.3 0 .4-1.1.7-1.5zm11.2-19.8c-.3.3-.5.6-.8.8.2-.2.5-1.1.8-.8zm2-2.6c0 .3-.2.4-.4.6 0-.3.2-.4.4-.6zm-1.1 1.5c-.2.5-.5.5-.8.7 0-.3.2-.5.5-.8.1.2.2.2.3.1zm-8.8 6.3c-.4.3-.1.5-.4.8-.6-.3-.4.6-.8.7 0-.1 0-.2-.2-.3.2-.1.4-.7.6-.5.2-.4.4-1.2.8-.7zm-22.2 155.1c-.6-.6-1-1.3-1.5-2.2.5.4 1 1.1 1.5 1.8.2.2.2.3 0 .4zm-2.1-51.6v.8c-.2 0-.6-.8 0-.8zm22.6 59c.1-.1.4.1.6.3.1.1.4.5.2.6-.3-.4-.5-.4-.8-.9zm-22.3-53.6c-.3.3-.1.8-.1 1.2 0 .5.3 1-.2 1.1.1-.6-.6-2 .3-2.3zm4.8 27c.3-.6.4.7.7.7-.1.1 0 .2 0 .4-.6.1-.4-1.1-.7-1.1zm-5.7-19.9c0 .3 0 .6-.4.7-.1-.3-.1-.6.4-.7zm-.5-7.7l.3.5c-.4.1.2.9-.4.8 0-.4.2-.8.1-1.3zm-.1-3.6c.1.5-.4.6-.4 1-.1 0-.3-1.1.4-1zm-.5 4c0 .4.1.8-.4.8.2-.2-.2-.8.4-.8zm-.4 1.5c.5 0 .2-.5.8-.4 0 .4-.5.4-.4.8-.3 0-.4-.1-.4-.4zm8.2 49.5c-.4.1-.8-.6-1-.9-.4-.4-.7-.8-1-1.2l-.9-1.2c-.3-.4-1.1-.7-.7-1.2.4 1 1.3 1.6 1.9 2.4.5.6 1 1.4 1.7 2.1zm-6.6-8.6c-.2-.2-.6-.7-.6-1.1.4 0 .5.6.6 1.1zm-3.5-6.6c-.3-.1-.5-.4-.6-.7.4-.3.4.5.6.7zm2.8 5.2c-.4.3-.9-1.1-.9-1.4.4.1.6 1 .9 1.4zm13.8 16.3c-.4 0-.6-.4-.9-.8.3 0 .6.6.9.8zm7.6 5.5c-.3.2-.4-.2-.6-.3-.9-.5-2-1.3-2.8-1.9.4-.4.7.3.9.5l2.5 1.7zm-13-10.6c-.4.2-1.2-.9-.9-1 .1.3.5.5.9 1zm4.4 4.1c-.2.2-.6-.2-.6-.4.2-.2.4.3.6.4zm-11.6-71.6c.4.3 0 .9.1 1.3-.4-.2 0-.9-.1-1.3zm13.4-60.3l.1.9c.1 0 .3.1.3 0 .4.5-.4 0-.3.3-.2-.4-.4-1.1-.1-1.2zm1.4-2.3c.6.5 0 .6-.3.9-.2-.2.3-.6.3-.9zm-.1 4.4c-.1.3-.3.6-.6.4.3.1.1-.8.6-.4zm.7-2.6c.3.4-.3.6-.5.6-.1.3.1.5-.2.5-.2-.5.5-.8.7-1.1zm-1.7 1.8c.2.3-.1.4-.1.6l.2.3c0 .2-.2.1-.3.2 0 .1.4.6.1.9-.4-.2-.1-.4-.1-.6-.4-.2-.4-.6-.7-.3-.4-.4.2-.1.3-.2.1-.1-.2-.2-.2-.3 0-.2.5-.2.5-.6.2.1.3.1.3 0zm-2.4 5.9c-.3.5.2.9-.3 1.4-.3-.2-.3 0-.4.1-.5-.6-.2-1.2.4-1.3-.3-.2-.5-.1-.7-.4-.1.5-.6 1.7-1.4 1.4l.8-.8c.1-.1-.2-.6-.3-.4-.1-.9 1-1.7.9-2.5.4.5.1 1 .1 1.3.3.3.7 0 .4-.3.5-.2.1.6 0 .8-.3 0-.4-.3-.6-.5-.1.5-.4.5-.5.9.5.4.4-.2.6-.2 0 0 .1.3.2.3s.1-.4.5-.1c0 .1.2.2.3.3zm4.3-4.6c-.1.5.1 1.1.1 1.6 0 .3-.3 0-.2.4.2.8-.1 1.8-.5 3-.2 0-.3.2-.6.2-.6-.3-.1-.8-.8-.9 0-.5.3-.4.2-.9-.6-.4-.6.4-.8.8-.2-.1-.2-.3-.5-.4.7-.2.6-1.2 1-1.9.3.1.2.3.1.5 0 .3.2.6.5.8.5-.1 0-.4 0-.7.4-.8 1.1-1.2.9-2.1.4-.1.5-.2.6-.4zm-.6 2.1c-.2-.1-.2.1-.4.1.5.4.5-.1.7-.5.3-.6-.2.1-.3.4zm-3 1.7c-.1-.1 0-.3-.2-.4-.3-.2-.2.4-.4.5.1.1.2-.1.2-.1.4.2.5.7.6.1.2.4.1.4-.1.7-.1.1-.1-.3 0-.3-.1-.1-.2.6-.3.7-.3-.1-.2-.3-.1-.5-.4-.6-.5-1.3-.2-2 .1.1.2.2.3.4-.1-.3-.5-.6-.2-1 .3.2.6.3.7 0 .7.6.2.9.2 1.5-.4-.2-.2-.3-.5-.3-.1.3.2.5 0 .7zm2.2-9.6c.2.1-.1.3.1.5-.1.3-.3.6-.4.8-.2.3-.4.8-.8.6l.4-.4-.4-.3c-.5 0-.3.6-.7 1-.5-.2 0-.5 0-.7v-.7c.2-.6.6-1.1.6-1.5.4 0 .1.3.5.5-.5-.3-.8.6-.8 1.1.4.2.7.1.9-.2-.3-.3-.4-.3-.5 0-.1-.5.8-.3 1.1-.7zm-3.3 12.1c.4.8-.5.4-.6 1.1.4-.4.5.1.5.5-.6-.4-.4.3-.9.2-.1-.1-.2-.7-.4-.2-.5-.4.1-.6.2-.9.3.3-.1.6.5.8 0-.1-.1-.2-.2-.3l.3-.7c0-.2-.7-.2-.4-.6.4 0 .7 1 1 .1zm5.9-14.3c.2-.3.4 0 .4-.5.4.3-.2.8-.4.5zm39.7-54.5c.2-.2.8-.5 1.2-.7-.2.1-.8.4-1.2.7zm-39.9 54.2c.1.3 0 .6.3.9-.2.3-.3.8-.8.5.3 0 .4-.6.5-.9-.1-.1-.2.1-.2.1-.2-.2-.1-.6.2-.6zm41.5-54.6s-.1.2-.3.3l-1 .9-1.6 1.6c-.1.1-.2.2-.3.2l-2.4 2.5c-.1.1-.3.3-.5.4l-.3.4c-.1.1-.3.2-.4.4-.5.6-1.2 1.4-1.8 1.9 0-.2-.2 0-.2-.1-.3.4.1.1.1.2-.5.6-.8.9-1 1.3-.1.3-.2.2-.3.3-.2.2-.2.5-.5.6.3.2-.2.3-.3.6.2-.1.3-.1.4-.1.1-.2-.1-.1 0-.5l.5-.5.1.2c.3-.3-.1-.3.2-.7.1.1 0 .2 0 .3.3-.3.3-.6.6-.7.2-.3.3-.7.8-1.1-.1.2-.2.4-.4.6.1 0 .2-.1.4-.2.2-.2-.1 0-.1 0 0-.1.1-.2.2-.3.1-.2 0-.3.3-.5.1 0-.1.2-.2.3 0 .1.1.1-.1.3.4-.2.5-.5.8-.8-.1-.2-.3.3-.4.3-.2-.1.2-.4.2-.5.3-.2.1 0 .2.1.2-.1.3-.1.6-.4.1.1-.2.6-.3.5-.2.3.2-.2.2.1-.1.3-.3.4-.5.6-.1.1-.1.2-.3.4l-1.1 1.2c-.2.2-.2.3-.3.4-.5.6-1.2 1.3-1.7 2-.2.3-.4.4-.6.6-1.3 1.4-2.5 2.9-3.8 4.2-.1.1-.2.1-.4.2-.3.2-.5.6-.8 1-.2.3-.4.3-.6.7-.2.3-.3.1-.5.2-.3.6-.8.8-1.1 1.5-.1.2-.2-.3 0-.4-.4.1-.5.9-.4.9-.3.3-.6.7-.9.4-.1.8-1.1.9-1.1 1.6-.1.2-.3.1-.3.1l-.1.3c-.3.3-1 .8-1.4 1.4-.1.1-.3.5-.2.6-.1.1-.2-.1-.2-.1-.3.6-.6 1-.9 1.3-.1.1 0 .2.1.3-.4.2-.3.6-.7.6-.2.2 0 .3-.1.4-.2.1-.6.5-.9.8-.2.2-.4.7-.5.9l-.2.7c-.4.7-.9 1.4-1.3 1.9s-.5 1.4-1 1.5l-.1.5c-.1.2-.2.1-.3.2l-.3.9c-.3.5-.8.9-1.1 1.5l-.1.4-.4.4-.1.6c0 .1-.2.1-.3.2l-.1.5c-.5.7-1 1.4-1.3 2.2-.1.2-.2.1-.3.2-.2.4-.1 1.2-.7 1.4.1.6-.5.9-.9 1.7l-.1-.6c-.2.2 0 .4.1.7-.3 0-.4.6-.6.9-.2.2.2.4.1.6-.5 1-1.2 1.8-1.5 2.7l-.1.8c-.3.7-.8 1.2-1.1 1.8l-.2.7c-.1.2-.3.1-.5.3l-.1.6-1.4 2.2c-.4-.2.1-.4.2-.8.1-.2-.2-1.1.4-.7.2-.3-.3-.6 0-.9.2.2.3.2.4.1-.3-.1-.3-.7.2-.7-.4-.4-.4.2-.7-.2.3-.7.5-1 .7-1.6-.4-.4-.4.3-.8-.2.6-.5.2-1.5 1-1.6.1-.3 0-.3-.3-.4 0-.3.5-.1.2-.4.2-.2.2.4.4.5.1-.9.3-1.4.8-2-.1-.1-.1.1-.2.1.2-.4.5-1.4 1-1.7l.1-.9c.2 0 .4-.2.5-.4.1-.1 0-.3-.1-.4.2-.2.5-.3.3-.7-.3-.1-.4.5-.6.7-.2-.3-.4-.4-.6-.1v.3c.1 0 .2-.1.4.1-1.7 2.2-2 3.5-3.5 5.7-.2 0-.2-.1-.3-.3-.3.6-.5 1.3-.9 1.7 0 .1.2.2.1.4-.2.2-.4.5-.8 0 0 .4-.1.4.3.6-.1 0-.3-.1-.4.1-.4-.4-.2-.8-.3-1.1.4-.2.3-.2.6-.8.5.2-.1.4.2.6.4 0 .5-.8 0-.8.3-.3.1-.8.4-.8.3.1.1.3 0 .5.4.1.4-.6.1-.8.4-.4.7-1 1-1.7l.7-.4c0-.1-.2-.2-.1-.4.6-.9 1.1-2.2 1.8-2.7.4.2 0 .4-.1.7.6 0 .3-.8.2-1.1 1-1 1.5-1.9 2.2-3.2.2.1.2-.2.3.2.3-.2 0-.4.1-.6.6-.6 1.2-1.4 1.6-2.2.2-.4.5-.9.7-1.2l.6-.7.2-.6c.1-.1.3 0 .4-.2.1-.1.5-1 .6-1.3 0-.1-.1-.2 0-.4.3-.1.3-.2.5-.6.2-.3.5-.2.3-.6.2-.3.4-.1.6-.5-.1-.1-.2.1-.3.2-.2-.4.2-.4.3-.6.8-1.1 1.5-2.3 2.6-3.5.4-.4.9-1.2 1.4-1.8l.3-.3c.3-.4.4-1 .8-.9-.1-.3.5-1.1.7-1.2.1 0-.1.3-.2.3.1.2.5-.3.2-.4.2 0 .4-.2.7-.5-.1-.1-.1 0-.2.1.2-.5.8-1.1 1.2-1.6.4-.1.8-.3 1.3-1-.1-.1-.4.4-.5.1.5-.4.3-.8.9-1.2.3-.3.7-.5 1-.9 0 .1-.1.2-.2.3.3 0 .5-.5.2-.5.2-.2.3-.3.4-.2.3-.7 1.1-1.3 1.6-2-.1.5.5-.1.5-.4l-.4.2 2.2-2.3.2.1.1-.4 1-1c.6-.6 1.2-1.1 1.9-1.8l.4-.5c.7-.7 1.9-1.8 2.8-2.6.3-.3.5-.5.7-.8l1.6-1.4c.7-.6 1.3-1.2 1.9-1.8.2-.1.2-.1.4-.3l.3-.3.7-.6c1.1-.9 1.2-1 2.2-1.9l-.1.1-.7.6c-.2.2 0 .1-.1.1l.2-.2c.2-.2.1 0 .2-.1s.2-.2.3-.2c.9.2.9.2 1.1 0zm-37.6 44.6c-.1.2-.7 0-.5.5.2-.3.7 0 .5-.5zm-.8 5.4c-.2.1-.4.3-.6.5.4.4.9 0 .9-.1-.3.2-.1-.3-.3-.4zm1.7 0c-.3-.2-.8.3-.6.6.2-.1.4-.1.6-.6zm1.5-3.6c-.2.2-.7.6-.4 1 0-.5.5-.4.4-1zm-.7-4.4c-.3-.1-.4 1-.2.9l.2-.9zm5.6-4.9c-.2.2-.4.4-.3.7.2-.1.6-.3.3-.7zm1.7-2.9c-.2-.2-.1.3 0 .5l.6-.8c-.3-.5-.4.1-.6.3zm7.4-11.7c-.2.2-.2.5-.2.7.2-.2.4-.5.2-.7zm-.1-1.1c-.2.4-1.1.7-.9 1.2.3-.2.1-.1.2-.3 0-.5 1-.3.7-.9zm1.5-2c-.2 0-.5.5-.3.7.3-.2.2-.4.3-.7zm.2 0l.5-.4c0-.3-.5.2-.5.4zm4.2-2.1l-.3.4c.1.3.5-.3.3-.4zm1-1.4c-.3.5-.4 0-.7.4.1.2.4-.1.6-.1v.4c.2-.2.1-.5.1-.7zm2.6-2.2l.3-.3c0-.3-.4.2-.3.3zm.2-1c-.2.2-.4.4-.4.6.1-.1.1-.1.2-.1.2-.2.2-.4.2-.5zm4.1-4.1c.2-.1.3 0 .6-.3.1-.3-.3.1-.4.2v-.1c-.1 0-.3.2-.2.2-.1 0-.2.2-.3.3-.1.2.1-.1.3-.3zm-.5.8l-.4.4c0 .3.6-.5.4-.4zm-.8.4c.2.2.4-.4.6-.4-.1-.1.2-.3.2-.4-.4.3-.5.5-.8.8zm-.4 1.1c.2-.2.2-.3.3-.5.1-.1.5-.3.3-.5-.1.1-.7.8-.6 1zm-1.2 1.3c.2-.2.3-.5.3-.6-.2.2-.4.5-.3.6zm7.4-9.5c-.1 0-.1-.1-.3.1-.1.2-.2.2 0 .2.2-.1.1-.1.3-.3zm1.1-1.2c-.1.1-.1.1-.2.1l.1-.1c-.2.2-.3.2-.6.5 0 .1.3-.2.5-.4 0 .1.2 0 .2-.1zm-41.3 53.9c-.2.5 0 .8-.1 1.4-.3.1-.7.2-1.1.2-.3-.5-.2-1.1-.1-1.6.1.3.3.7.1 1.1.3.3.5.2.6-.1-.6-.5-.6-2.2.4-1.7-.1.2-.4.1-.3.5.8 0 .4-1.4 1-1.3l-.5-.4c-.3.3-.1.6-.3.9-.8-.3-.1-1.4.3-1.2 0-.4.1-.6.4-.8.1.2 0 .5.2.8h-.5l.2.5c.2.1.2-.2.3-.3.4.5.3 1 .1 1.4.1.1-.5.2-.7.6zm1.5 1.1l-.2.3c-.1-.5-.3 0-.6-.3.2-.4.5-.2.8 0zm.2-2.3l.4-.5c.2.1-.1.9-.4.5z"/></g></svg>